<?xml version="1.0" encoding="UTF-8" standalone="no"?>
<!-- Created with Inkscape (http://www.inkscape.org/) -->

<svg
   xmlns:dc="http://purl.org/dc/elements/1.1/"
   xmlns:cc="http://creativecommons.org/ns#"
   xmlns:rdf="http://www.w3.org/1999/02/22-rdf-syntax-ns#"
   xmlns:svg="http://www.w3.org/2000/svg"
   xmlns="http://www.w3.org/2000/svg"
   xmlns:sodipodi="http://sodipodi.sourceforge.net/DTD/sodipodi-0.dtd"
   xmlns:inkscape="http://www.inkscape.org/namespaces/inkscape"
   id="svg3344"
   version="1.1"
   inkscape:version="0.91 r13725"
   width="687.75641"
   height="399.40497"
   viewBox="0 0 687.75641 399.40497"
   sodipodi:docname="remparts2.svg">
  <metadata
     id="metadata3350">
    <rdf:RDF>
      <cc:Work
         rdf:about="">
        <dc:format>image/svg+xml</dc:format>
        <dc:type
           rdf:resource="http://purl.org/dc/dcmitype/StillImage" />
        <dc:title />
      </cc:Work>
    </rdf:RDF>
  </metadata>
  <defs
     id="defs3348" />
  <sodipodi:namedview
     pagecolor="#ffffff"
     bordercolor="#666666"
     borderopacity="1"
     objecttolerance="10"
     gridtolerance="10"
     guidetolerance="10"
     inkscape:pageopacity="0"
     inkscape:pageshadow="2"
     inkscape:window-width="958"
     inkscape:window-height="1008"
     id="namedview3346"
     showgrid="false"
     inkscape:zoom="0.5"
     inkscape:cx="319.3047"
     inkscape:cy="67.35522"
     inkscape:window-x="2873"
     inkscape:window-y="0"
     inkscape:window-maximized="0"
     inkscape:current-layer="g5248"
     fit-margin-top="0"
     fit-margin-left="0"
     fit-margin-right="0"
     fit-margin-bottom="0"
     showguides="false" />
  <g
     inkscape:groupmode="layer"
     id="layer1"
     inkscape:label="Layer 1"
     transform="translate(566.29811,182.53483)" />
  <path
     style="fill:#917c6f"
     d=""
     id="path3545"
     inkscape:connector-curvature="0" />
  <path
     style="fill:#917c6f"
     d=""
     id="path3557"
     inkscape:connector-curvature="0" />
  <path
     style="fill:#917c6f"
     d=""
     id="path3559"
     inkscape:connector-curvature="0" />
  <path
     style="fill:#917c6f"
     d=""
     id="path3563"
     inkscape:connector-curvature="0" />
  <path
     style="fill:#483e37"
     d=""
     id="path3627"
     inkscape:connector-curvature="0" />
  <g
     id="g3639"
     transform="matrix(1.0070184,0,0,0.99999015,463.69602,-39.124037)">
    <g
       id="g5248">
      <path
         sodipodi:nodetypes="csccccsc"
         style="fill:#483e37;fill-opacity:1;stroke:#eeebea;stroke-width:2.49128518;stroke-linecap:round;stroke-linejoin:round;stroke-miterlimit:4;stroke-dasharray:none;stroke-opacity:1"
         d="m -385.68351,83.710528 c 0,-0.08644 3.73747,-5.083289 5.73785,-8.307338 l 3.63705,-5.861908 17.27532,-0.20088 19.20463,-0.546278 c -0.40764,3.275556 -0.34963,6.931268 -0.49028,10.046115 -0.30079,0.300788 -45.36458,5.145212 -45.36458,4.870289 z"
         id="path3587"
         inkscape:connector-curvature="0" />
      <path
         style="fill:#a6958b;stroke:#eeebea;stroke-width:2.49128518;stroke-linecap:round;stroke-linejoin:round;stroke-miterlimit:4;stroke-dasharray:none;stroke-opacity:1;fill-opacity:1"
         d="m -348.80528,140.10856 c -0.91246,-5.09669 -2.20396,-12.48167 -2.87001,-16.41108 -0.66604,-3.92941 -0.85071,-6.71882 -1.22555,-6.49722 -0.99358,0.58743 -98.62594,5.67311 -99.08259,5.1409 -0.21199,-0.24705 0.66782,-8.3576 1.85032,-16.0182 l 2.14999,-13.928371 16.89456,-0.604676 c 9.292,-0.332563 72.26451,-0.854109 139.9389,-1.158982 67.67439,-0.304873 209.072406,-1.09676 314.217799,-1.759757 105.145381,-0.662987 191.373721,-1.00375 191.618511,-0.757238 -2.77094,21.499994 -5.72879,37.758914 -9.53016,60.731814 -11.90324,0.19247 -23.80648,0.38493 -35.70972,0.5774 -1.9409,-9.80567 -4.52612,-19.43097 -7.28937,-29.0224 -0.42075,-1.51849 1.92252,-0.60535 -45.54304,-1.37723 -47.631069,-0.77458 -50.438077,-2.16623 -51.256831,-1.34172 -0.744187,0.74942 -1.951647,5.95695 -3.403755,13.26376 l -3.666032,18.44696 c -9.195736,-1.21877 -37.230537,-3.13216 -50.5750956,-3.9176 -0.1413857,-0.16726 -2.9917416,-6.08946 -5.2337036,-13.00213 -3.03682628,-9.36359 -3.02630481,-12.98007 -4.5932772,-13.5517 -1.1568309,-0.42199 -23.7012176,-1.78679 -50.3082486,-2.76904 -26.607021,-0.98224 -49.773527,-0.61351 -52.245737,-0.45044 -4.52975,0.29878 -5.73675,1.06595 -5.97928,1.78309 -0.56074,1.1809 -4.25275,9.80217 -6.3033,14.75014 l -6.71879,15.30653 -16.97633,0 -16.97629,0 -8.0722,-16.17574 -6.87174,-15.35055 -5.13115,0.24367 c -2.82215,0.13401 -24.77093,0.97045 -48.7751,1.85874 -24.00416,0.88829 -47.43735,1.88441 -52.07375,2.21361 l -8.4298,0.59852 c -3.87679,11.18337 -5.4624,19.92163 -8.63224,30.75548 -16.61782,-0.29771 -34.38691,-0.7589 -51.02352,-1.27366 l -2.17347,-10.30291 z"
         id="path5074"
         inkscape:connector-curvature="0"
         sodipodi:nodetypes="csccscsssccccsssccscsscccccccsssccccc" />
      <path
         style="fill:none;fill-rule:evenodd;stroke:#eeebea;stroke-width:2.49128518;stroke-linecap:round;stroke-linejoin:round;stroke-miterlimit:4;stroke-dasharray:none;stroke-opacity:1"
         d="m 108.89998,75.786376 -0.74886,10.483982"
         id="path3443"
         inkscape:connector-curvature="0" />
      <path
         style="fill:#917c6f;fill-opacity:1;stroke:#eeebea;stroke-width:2.49128518;stroke-linecap:round;stroke-linejoin:round;stroke-miterlimit:4;stroke-dasharray:none;stroke-opacity:1"
         d="m -283.12964,133.81357 c 0.33394,-0.33688 107.30868,1.1519 107.63649,1.47969 0.19354,0.19355 1.69935,7.34383 4.63479,14.86646 l 6.64094,17.0187 c 0.003,6.36528 0.0924,10.14005 0.0958,16.50533 -44.87229,0.68284 -89.93859,0.11759 -135.22137,-0.0191 0.62317,-18.76747 5.50604,-25.03788 8.36626,-32.39889 1.28208,-2.87323 5.31211,-12.76963 7.84714,-17.45218 z"
         id="path3515"
         inkscape:connector-curvature="0"
         sodipodi:nodetypes="ccscccccc" />
      <path
         style="fill:#917c6f;fill-opacity:1;stroke:#eeebea;stroke-width:2.49128518;stroke-linecap:round;stroke-linejoin:round;stroke-miterlimit:4;stroke-dasharray:none;stroke-opacity:1"
         d="m 58.495969,164.8104 8.239961,-19.31571 c 4.10003,-9.61109 6.374204,-18.25232 6.561034,-18.06671 0.18683,0.18561 16.395372,-0.0827 35.547366,0.5648 19.15198,0.64745 38.45221,1.17804 43.4875,1.43077 l 9.15508,0.4595 0.26625,28.09788 0.20562,26.51036 -51.22096,-3.2e-4 -52.372965,-0.36667 c -0.142966,-6.53929 -0.06674,-12.77392 0.131114,-19.3139 z"
         id="path3519"
         inkscape:connector-curvature="0"
         sodipodi:nodetypes="csssscccccc" />
      <path
         style="fill:#917c6f;fill-opacity:1;stroke:#eeebea;stroke-width:2.49128518;stroke-linecap:round;stroke-linejoin:round;stroke-miterlimit:4;stroke-dasharray:none;stroke-opacity:1"
         d="m 29.25631,183.92932 -27.86265,0.4049 C 0.65741926,178.65558 0.27599612,171.36114 -0.19243643,165.74005 17.18316,166.88247 39.311399,165.9875 58.606034,164.94716 l -0.363794,10.93206 c -0.157532,4.73386 -0.25274,8.53182 -0.56164,8.43402 -0.3089,-0.0978 -13.09983,-0.27038 -28.42429,-0.38351 z"
         id="path3521"
         inkscape:connector-curvature="0"
         sodipodi:nodetypes="ccccsscc" />
      <path
         style="fill:#917c6f;fill-opacity:1;stroke:#eeebea;stroke-width:2.49128518;stroke-linecap:round;stroke-linejoin:round;stroke-miterlimit:4;stroke-dasharray:none;stroke-opacity:1"
         d="m -354.6542,182.05688 c -0.6297,-2.34974 -1.24869,-10.46415 -0.58486,-11.49965 0.38629,-0.60258 9.46935,-0.76477 28.87653,-1.15517 25.96612,-0.52234 27.61043,-0.47798 27.14602,0.73224 -0.27189,0.70855 -0.49435,4.99699 -0.49435,8.05233 l 0,5.55518 -27.2459,0 -27.2459,0 z"
         id="path3525"
         inkscape:connector-curvature="0"
         sodipodi:nodetypes="ssscscccs" />
      <path
         style="fill:#917c6f;fill-opacity:1;stroke:#eeebea;stroke-width:2.49128518;stroke-linecap:round;stroke-linejoin:round;stroke-miterlimit:4;stroke-dasharray:none;stroke-opacity:1"
         d="m -442.33588,52.883277 c 19.27735,0.518183 34.13111,0.806186 52.52664,1.457631 1.48537,12.298039 2.64902,28.480396 2.84361,36.903625 -21.33818,0.259204 -38.6108,0.343385 -60.98663,1.021467 2.2125,-13.678658 3.78729,-25.721732 5.61638,-39.382723 z"
         id="path3527"
         inkscape:connector-curvature="0"
         sodipodi:nodetypes="ccccc" />
      <path
         style="fill:#917c6f;fill-opacity:1;stroke:#eeebea;stroke-width:2.49128518;stroke-linecap:round;stroke-linejoin:round;stroke-miterlimit:4;stroke-dasharray:none;stroke-opacity:1"
         d="m -338.77165,53.017242 73.25582,1.172494 c 1.27011,11.123119 2.16623,25.053292 2.78719,36.15547 -21.90225,0.06264 -6.15753,-1.052463 -76.53107,0.295976 -2.21596,-12.524965 -0.0101,-26.633751 0.48806,-37.62394 z"
         id="path3529"
         inkscape:connector-curvature="0"
         sodipodi:nodetypes="ccccc" />
      <path
         style="fill:#917c6f;fill-opacity:1;stroke:#eeebea;stroke-width:2.49128518;stroke-linecap:round;stroke-linejoin:round;stroke-miterlimit:4;stroke-dasharray:none;stroke-opacity:1"
         d="m -124.5001,76.277636 c 0.4211,-2.277973 2.2102,-7.959497 2.3666,-9.978844 0.42613,-4.049179 1.49947,-10.107774 2.05762,-14.140326 23.477315,0.935335 47.223833,1.320824 70.449804,0.880809 l 5.857251,12.548415 c 5.049589,10.818099 5.899611,12.045189 6.066957,16.574715 l 0.263317,7.127123 c -29.358266,-0.597118 -61.536924,-0.753856 -87.168899,0.233898 -0.36804,-7.008526 -0.7568,-8.394614 0.10735,-13.24579 z"
         id="path3533"
         inkscape:connector-curvature="0"
         sodipodi:nodetypes="ccccssccc" />
      <path
         style="fill:#917c6f;fill-opacity:1;stroke:#eeebea;stroke-width:2.49128518;stroke-linecap:round;stroke-linejoin:round;stroke-miterlimit:4;stroke-dasharray:none;stroke-opacity:1"
         d="M -3.42983,64.944234 -0.47464918,54.97016 C 26.981883,52.90777 45.013337,52.854972 67.309718,52.901363 c 2.738425,6.995164 3.66839,16.809994 6.748962,22.593323 0.926727,3.703392 1.092841,8.951896 1.092841,12.921603 -23.744538,-0.275525 -58.519854,-0.04899 -81.9108267,0.535084 -1.6680444,-8.13563 1.6085201,-18.200619 3.3294757,-24.007139 z"
         id="path3535"
         inkscape:connector-curvature="0"
         sodipodi:nodetypes="ccccccc" />
      <path
         style="fill:#483e37;fill-opacity:1;stroke:#eeebea;stroke-width:2.49128518;stroke-linecap:round;stroke-linejoin:round;stroke-miterlimit:4;stroke-dasharray:none;stroke-opacity:1"
         d="m -349.67055,160.16986 3.90506,-9.56807 23.96338,0.53963 c 13.17987,0.29679 25.85319,0.47131 25.99457,0.60849 0.14138,0.1372 -1.09083,4.20406 -1.88711,8.72238 l -1.4614,8.2924 -19.25674,0 c -10.5912,0 -22.8356,0.21897 -27.20977,0.48661 l -7.95304,0.48661 z"
         id="path3543"
         inkscape:connector-curvature="0"
         sodipodi:nodetypes="ccscscsscc" />
      <path
         style="fill:#483e37;fill-opacity:1;stroke:#eeebea;stroke-width:2.49128518;stroke-linecap:round;stroke-linejoin:round;stroke-miterlimit:4;stroke-dasharray:none;stroke-opacity:1"
         d="m -355.53713,171.09539 c -0.29294,-5.5065 -0.79643,-12.99198 -1.72962,-21.29956 l -2.35076,-17.61479 2.82714,-4.93722 c 1.55669,-2.71855 3.10414,-7.79518 3.12832,-7.38332 0.0242,-0.88337 2.25673,8.20243 3.68727,16.04411 l 2.79699,15.33208 c -3.21784,5.9136 -5.80352,14.22465 -8.35934,19.8587 z"
         id="path3547"
         inkscape:connector-curvature="0"
         sodipodi:nodetypes="cscscscc" />
      <path
         style="fill:#6c5d53;fill-opacity:1;stroke:#eeebea;stroke-width:2.49128518;stroke-linecap:round;stroke-linejoin:round;stroke-miterlimit:4;stroke-dasharray:none;stroke-opacity:1"
         d="m -298.88503,170.27596 c -0.096,-5.21649 3.46642,-21.2013 6.94657,-32.28438 l 5.17432,-16.47842 1.84376,7.87093 c 0.58817,2.51089 1.17344,4.46311 1.43661,4.72049 0.26316,0.25737 -3.20609,7.36787 -6.1633,14.03787 -7.72584,17.42569 -9.20576,23.88336 -9.23796,22.13351 z"
         id="path3549"
         inkscape:connector-curvature="0"
         sodipodi:nodetypes="sscssss" />
      <path
         style="fill:#6c5d53;fill-opacity:1;stroke:#eeebea;stroke-width:2.49128518;stroke-linecap:round;stroke-linejoin:round;stroke-miterlimit:4;stroke-dasharray:none;stroke-opacity:1"
         d="m -283.57837,133.38124 c -0.56474,-1.78998 -2.51944,-12.04222 -2.2606,-12.30106 0.38207,-0.38207 111.15028,-5.45309 112.79504,-4.30831 -0.68138,5.9664 -2.07325,11.93054 -2.48887,18.39286 l -54.66765,-0.84742 c -41.80437,-0.64802 -53.14531,-0.19879 -53.37792,-0.93607 z"
         id="path3551"
         inkscape:connector-curvature="0"
         sodipodi:nodetypes="ssccss" />
      <path
         style="fill:#483e37;fill-opacity:1;stroke:#eeebea;stroke-width:2.49128518;stroke-linecap:round;stroke-linejoin:round;stroke-miterlimit:4;stroke-dasharray:none;stroke-opacity:1"
         d="m -175.36777,135.00057 1.90099,-8.44658 1.07473,-10.36521 7.12696,14.94333 c 3.26727,6.85061 7.73535,14.57931 7.73789,15.40306 0.003,0.82374 -1.1577,5.75536 -2.34661,9.09499 l -4.29145,12.05457 c -3.37791,-8.85083 -9.52231,-24.13862 -11.20251,-32.68416 z"
         id="path3553"
         inkscape:connector-curvature="0"
         sodipodi:nodetypes="cccscscc" />
      <path
         style="fill:#483e37;fill-opacity:1;stroke:#eeebea;stroke-width:2.49128518;stroke-linecap:round;stroke-linejoin:round;stroke-miterlimit:4;stroke-dasharray:none;stroke-opacity:1"
         d="m -163.92494,167.51441 c 0.19978,-0.52063 2.0604,-4.26481 3.96491,-11.30358 l 2.68967,-9.94057 c 11.42332,0.29511 22.55324,0.0476 33.92569,0.12211 l 0.36379,10.76504 0.68598,10.48325 c -4.1055,-0.12657 -33.48092,0.98138 -41.63004,-0.12625 z"
         id="path3555"
         inkscape:connector-curvature="0"
         sodipodi:nodetypes="csccccc" />
      <path
         style="fill:#6c5d53;fill-opacity:1;stroke:#eeebea;stroke-width:2.49128518;stroke-linecap:round;stroke-linejoin:round;stroke-miterlimit:4;stroke-dasharray:none;stroke-opacity:1"
         d="m -122.83087,146.47411 c 4.45348,-9.77357 8.43929,-19.47034 12.40052,-29.32022 l 0.97688,8.49426 c 0.496,4.31287 -2.10214,7.15354 -5.93997,21.0826 l -7.0044,25.42187 c 0.32273,-7.78428 -0.36927,-17.95371 -0.43303,-25.67851 z"
         id="path3561"
         inkscape:connector-curvature="0"
         sodipodi:nodetypes="ccsscc" />
      <path
         style="fill:#483e37;fill-opacity:1;stroke:#eeebea;stroke-width:2.49128518;stroke-linecap:round;stroke-linejoin:round;stroke-miterlimit:4;stroke-dasharray:none;stroke-opacity:1"
         d="m -0.02275468,165.14578 c 0,-0.4923 6.83763418,-19.23635 7.17313418,-19.7139 17.3028985,1.57448 34.5055185,2.37449 51.7800885,4.24686 l 0.04913,7.71977 c -0.006,3.57423 -0.25904,6.87813 -0.56164,7.34197 0,2.44255 -50.6931799,0.96395 -58.44071468,0.4053 z"
         id="path3575"
         inkscape:connector-curvature="0"
         sodipodi:nodetypes="cccccc" />
      <path
         sodipodi:nodetypes="sscsccs"
         style="fill:#6c5d53;fill-opacity:1;stroke:#eeebea;stroke-width:2.49128518;stroke-linecap:round;stroke-linejoin:round;stroke-miterlimit:4;stroke-dasharray:none;stroke-opacity:1"
         d="m 58.880806,160.24789 c 0,-2.87744 -0.0264,-10.89239 -0.0264,-12.05251 0,-0.66763 5.741055,-29.62637 6.558805,-30.44413 0.15377,-0.15376 2.624783,3.59197 4.086659,5.18607 l 3.768001,4.10881 c -4.253838,11.86185 -7.790299,22.06392 -14.18491,35.7289 -0.15361,0.18484 -0.20215,-0.16361 -0.202155,-2.52714 z"
         id="path3577"
         inkscape:connector-curvature="0" />
      <path
         style="fill:#6c5d53;fill-opacity:1;stroke:#eeebea;stroke-width:2.49128518;stroke-linecap:round;stroke-linejoin:round;stroke-miterlimit:4;stroke-dasharray:none;stroke-opacity:1"
         d="m 122.64385,128.28057 c -19.97573,-0.73265 -38.982227,-0.75478 -42.551059,-0.78751 l -6.48878,-0.0599 -3.395151,-4.53594 -4.767105,-5.22674 2.13813,-0.26644 c 1.17598,-0.14653 24.192393,1.17783 49.007165,1.51117 l 44.9973,0.60446 0,5.15223 c 0,4.44794 -0.008,5.13778 -1.13901,5.04648 -0.72077,-0.0582 -17.82576,-0.70518 -37.80149,-1.43784 z"
         id="path3581"
         inkscape:connector-curvature="0"
         sodipodi:nodetypes="csccccscsccc" />
      <path
         style="fill:#483e37;fill-opacity:1;stroke:#eeebea;stroke-width:2.49128518;stroke-linecap:round;stroke-linejoin:round;stroke-miterlimit:4;stroke-dasharray:none;stroke-opacity:1"
         d="m -386.91657,85.101037 c -0.88793,-14.046637 -2.01686,-22.56317 -2.68615,-29.875004 1.22507,-1.450126 5.90859,-8.54996 6.16459,-7.251324 2.20513,7.263898 5.33591,13.716919 6.97906,21.476511 -3.2519,5.426616 -8.53364,13.183953 -10.4575,15.649817 z"
         id="path3585"
         inkscape:connector-curvature="0"
         sodipodi:nodetypes="ccccc" />
      <path
         style="fill:#483e37;fill-opacity:1;stroke:#eeebea;stroke-width:2.49128518;stroke-linecap:round;stroke-linejoin:round;stroke-miterlimit:4;stroke-dasharray:none;stroke-opacity:1"
         d="m -252.51687,69.432022 8.38298,-0.265168 c 8.81938,-0.278972 10.09991,-0.562657 8.73579,4.238403 l -1.35039,4.752772 c -7.60472,0.02701 -17.4359,-0.131289 -24.96402,1.025009 2.77114,-2.836129 6.39074,-6.826452 9.19564,-9.751016 z"
         id="path3589"
         inkscape:connector-curvature="0"
         sodipodi:nodetypes="cssccc" />
      <path
         style="fill:#6c5d53;fill-opacity:1;stroke:#eeebea;stroke-width:2.49128518;stroke-linecap:round;stroke-linejoin:round;stroke-miterlimit:4;stroke-dasharray:none;stroke-opacity:1"
         d="m -332.75483,47.017185 c 24.03365,-0.616968 49.38756,0.04935 73.23816,-0.338632 -1.46996,2.759647 -4.58447,6.167119 -6.11162,7.294735 -24.53226,0 -48.5631,-1.022214 -73.09536,-1.022214 z"
         id="path3593"
         inkscape:connector-curvature="0"
         sodipodi:nodetypes="ccccc" />
      <path
         style="fill:#483e37;fill-opacity:1;stroke:#eeebea;stroke-width:2.49128518;stroke-linecap:round;stroke-linejoin:round;stroke-miterlimit:4;stroke-dasharray:none;stroke-opacity:1"
         d="m -165.16236,52.804018 c 1.08736,-2.963307 2.37747,-5.823419 3.75049,-8.658322 2.50621,18.10199 5.63022,22.300349 5.12106,24.213895 -0.42158,1.373638 -3.83771,10.464513 -4.10042,10.464513 -1.59009,-6.846327 -2.97061,-18.409103 -4.77113,-26.020086 z"
         id="path3595"
         inkscape:connector-curvature="0"
         sodipodi:nodetypes="ccccc" />
      <path
         style="fill:#6c5d53;fill-opacity:1;stroke:#eeebea;stroke-width:2.49128518;stroke-linecap:round;stroke-linejoin:round;stroke-miterlimit:4;stroke-dasharray:none;stroke-opacity:1"
         d="m -118.50909,44.975338 c 0.53732,-0.586009 72.781014,0.899025 73.387514,1.505521 -0.890758,2.480267 -2.815195,4.17705 -4.366036,6.520528 -23.183738,0.246667 -47.411424,-0.515614 -70.589608,-0.928087 0.3997,-2.378806 0.78968,-4.8784 1.56813,-7.097962 z"
         id="path3597"
         inkscape:connector-curvature="0"
         sodipodi:nodetypes="ccccc" />
      <path
         style="fill:#483e37;fill-opacity:1;stroke:#eeebea;stroke-width:2.49128518;stroke-linecap:round;stroke-linejoin:round;stroke-miterlimit:4;stroke-dasharray:none;stroke-opacity:1"
         d="m -43.214142,66.038221 -5.72967,-12.878017 2.150677,-3.570971 c 2.362203,-3.922188 2.932477,-2.512599 7.604527,9.214481 2.7647,6.939539 3.145623,8.917637 2.708163,12.418969 -0.27091,2.168306 -0.902385,5.400797 -1.188725,5.400797 -0.28633,0 -3.066612,-5.014892 -5.544972,-10.585259 z"
         id="path3599"
         inkscape:connector-curvature="0"
         sodipodi:nodetypes="scsssss" />
      <path
         style="fill:#483e37;fill-opacity:1;stroke:#eeebea;stroke-width:2.49128518;stroke-linecap:round;stroke-linejoin:round;stroke-miterlimit:4;stroke-dasharray:none;stroke-opacity:1"
         d="m -35.607826,66.966665 c 0.41978,-0.556395 23.298177,-2.969009 23.768387,-2.485038 0.67899,0.698872 4.4920584,10.097482 4.1953584,10.363505 -9.1289774,-0.07757 -19.5156334,1.361448 -29.2918484,1.149962 0.507178,-2.583424 0.680446,-6.486129 1.328103,-9.028429 z"
         id="path3601"
         inkscape:connector-curvature="0"
         sodipodi:nodetypes="csccc" />
      <path
         style="fill:#6c5d53;fill-opacity:1;stroke:#eeebea;stroke-width:2.49128518;stroke-linecap:round;stroke-linejoin:round;stroke-miterlimit:4;stroke-dasharray:none;stroke-opacity:1"
         d="m -11.26422,64.483426 c 1.126292,-4.728646 3.4090296,-14.301051 4.9398502,-18.891357 2.3674651,1.954425 4.0119505,6.492429 5.94349167,9.193068 C -2.1521623,60.030036 -4.760736,70.393686 -6.8245369,75.515423 -8.1646559,72.794518 -10.056232,67.714928 -11.26422,64.483426 Z"
         id="path3603"
         inkscape:connector-curvature="0"
         sodipodi:nodetypes="ccccc" />
      <path
         style="fill:#6c5d53;fill-opacity:1;stroke:#eeebea;stroke-width:2.49128518;stroke-linecap:round;stroke-linejoin:round;stroke-miterlimit:4;stroke-dasharray:none;stroke-opacity:1"
         d="m -6.17292,45.577894 c 27.828398,-0.620979 50.71743,0.340957 79.855711,0.773492 l -6.480407,6.439178 C 45.176412,53.391831 22.013726,52.871104 0.01926,54.287485 Z"
         id="path3607"
         inkscape:connector-curvature="0"
         sodipodi:nodetypes="ccccc" />
      <path
         style="fill:#483e37;fill-opacity:1;stroke:#eeebea;stroke-width:2.49128518;stroke-linecap:round;stroke-linejoin:round;stroke-miterlimit:4;stroke-dasharray:none;stroke-opacity:1"
         d="m 89.54794,74.597367 -14.589748,0.793729 c 0.505777,-1.831359 2.362277,-4.611194 1.459369,-6.397911 -0.22772,-0.227717 7.797089,-2.072899 16.049259,-2.072899 l 15.35504,-0.0442 0.0692,2.852404 c 0.14388,5.931886 3.04211,5.932139 -2.28366,5.260413 -1.53527,-0.19364 -8.780858,-0.787519 -16.05944,-0.391541 z"
         id="path3609"
         inkscape:connector-curvature="0"
         sodipodi:nodetypes="sccscsss" />
      <path
         style="fill:#483e37;fill-opacity:1;stroke:#eeebea;stroke-width:2.49128518;stroke-linecap:round;stroke-linejoin:round;stroke-miterlimit:4;stroke-dasharray:none;stroke-opacity:1"
         d="m 68.024051,52.922264 c 1.5331,-2.528959 3.591908,-4.23499 5.723599,-6.301109 l 1.956294,19.620539 c 0.383556,1.74288 0.732895,3.912427 0.483755,4.734686 l -1.647738,5.228478 C 71.629455,71.517995 69.324823,59.549914 68.024051,52.922264 Z"
         id="path3611"
         inkscape:connector-curvature="0"
         sodipodi:nodetypes="cccccc" />
      <path
         style="fill:#917c6f;fill-opacity:1;stroke:#eeebea;stroke-width:2.49128518;stroke-linecap:round;stroke-linejoin:round;stroke-miterlimit:4;stroke-dasharray:none;stroke-opacity:1"
         d="m -385.95048,90.927586 c -1.28154,-0.663218 -1.31939,-6.466886 -0.99326,-6.823789 15.72759,-1.157284 30.38771,-2.749444 46.36879,-5.108995 0.11841,3.675859 -0.0965,9.054363 1.47598,11.627145 -11.99023,0.616693 -32.84625,0.519137 -46.85151,0.305639 z"
         id="path3629"
         inkscape:connector-curvature="0"
         sodipodi:nodetypes="ccccc" />
      <path
         style="fill:#917c6f;fill-opacity:1;stroke:#eeebea;stroke-width:2.49128518;stroke-linecap:round;stroke-linejoin:round;stroke-miterlimit:4;stroke-dasharray:none;stroke-opacity:1"
         d="m -262.15079,89.108842 c -0.25,-0.651493 -0.41897,-3.948836 -0.51661,-5.908743 l -0.17554,-3.523756 c 11.39787,-1.474813 18.35335,-1.787248 26.03597,-1.523219 0.1975,3.79272 0.63179,8.212477 0.90122,12.000463 l -12.74073,0.125921 c -10.16138,0.100428 -13.11621,-0.159284 -13.50431,-1.170666 z"
         id="path3631"
         inkscape:connector-curvature="0"
         sodipodi:nodetypes="sscccss" />
      <path
         style="fill:#917c6f;fill-opacity:1;stroke:#eeebea;stroke-width:2.49128518;stroke-linecap:round;stroke-linejoin:round;stroke-miterlimit:4;stroke-dasharray:none;stroke-opacity:1"
         d="m -36.86245,76.138749 c 9.730669,-0.49055 20.910327,-1.246217 29.20538,-0.981049 l 0,13.705284 -29.20538,0.309362 z"
         id="path3633"
         inkscape:connector-curvature="0"
         sodipodi:nodetypes="ccccc" />
      <path
         style="fill:#483e37;stroke:#eeebea;stroke-width:2.49128518;stroke-linecap:round;stroke-linejoin:round;stroke-miterlimit:4;stroke-dasharray:none;stroke-opacity:1"
         d="m 74.700707,75.575096 c 12.091623,-0.516824 22.143017,-2.424701 33.624313,0.29768 0,3.167096 0.0878,9.339424 0.0878,12.506519 -10.483979,0 -22.679522,0.08839 -33.163506,0.08839 0,-3.494661 -0.548577,-9.397928 -0.548577,-12.892589 z"
         id="path3635"
         inkscape:connector-curvature="0"
         sodipodi:nodetypes="ccccc" />
      <path
         inkscape:connector-curvature="0"
         id="path3992"
         d="m -202.16778,432.34515 c -140.24513,-0.51329 -255.24428,-1.18792 -255.55366,-1.49917 -0.30937,-0.31125 -0.71021,-43.94383 -0.89075,-96.96125 l -0.7986,-97.06697 16.41375,14.28382 c 8.69838,7.56964 17.31114,14.71461 18.98281,16.06202 l 2.31182,1.77819 17.65854,-13.13239 c 11.8004,-8.77578 15.35906,-13.71877 17.59874,-14.0771 1.82928,-0.29267 13.56854,-1.83052 19.91119,-2.46649 13.44916,-1.34855 9.81525,-2.95807 18.68133,13.62498 4.05925,7.59238 6.01854,12.35587 7.39759,12.69474 1.15683,0.28427 7.99314,0.41081 14.9949,0.9909 l 12.0856,0.49193 7.4109,-13.54443 7.53217,-13.72758 9.90729,0.2796 9.9073,0.2796 8.40075,12.70864 c 4.50791,6.81957 8.10106,13.66282 9.09723,14.4069 1.30251,0.97289 4.93344,0.33229 14.69169,0.36825 l 13.63143,-0.009 6.6043,-12.83075 c 3.62672,-7.04594 7.28445,-12.88546 7.67112,-13.25083 0.38665,-0.36538 5.84829,-1.51402 11.7087,-1.58258 l 11.24822,-0.30767 7.08694,12.32801 7.02631,12.26693 c 10.14051,1.18836 21.94307,2.62274 29.96444,3.36202 4.68611,-10.77605 8.23972,-19.01675 13.01522,-30.52363 9.85901,0.50399 20.9981,0.99983 30.02336,1.21657 4.38425,8.78383 7.91094,17.41903 11.895675,26.38996 8.507504,0 16.67202,0.1727 25.179524,0.1727 4.809884,-5.43139 17.526551,-23.89933 23.207155,-25.80461 3.926371,-1.32158 11.75367,-1.65534 17.494684,-2.21637 4.288615,9.02998 8.757589,18.02023 12.877843,27.42087 8.7043482,-0.1846 17.45562264,-0.0475 26.3392161,-0.0475 4.5964439,-9.18121 9.1448819,-17.89621 13.8743029,-26.4087 9.375764,0 20.873661,-0.30529 29.946262,0.67164 5.317345,9.35497 10.39217,18.52676 16.073317,27.88173 7.065733,0 12.433759,-0.0611 19.499492,-0.0611 3.810267,-8.23892 8.781073,-16.62108 12.474729,-23.67741 6.56131,-0.54022 22.88355,-1.69261 27.20849,-0.9661 7.17542,8.73339 12.8411,19.14873 20.53996,27.44199 8.32621,-10.67927 16.67859,-23.23745 22.94899,-31.3929 9.33825,-0.48847 20.49547,0.36635 30.68258,0.79376 l 1.24368,59.01284 c 0.68321,32.41848 0.69799,76.26827 0.69799,97.43284 l 0,38.48106 -75.45668,-0.17712 c -41.501182,-0.0974 -190.202714,-0.5971 -330.44784,-1.11039 z"
         style="fill:#4b413b;fill-opacity:1;stroke:#eeebea;stroke-width:2.49128518;stroke-linecap:round;stroke-linejoin:round;stroke-miterlimit:4;stroke-dasharray:none;stroke-opacity:1"
         sodipodi:nodetypes="ccscsscsssssscccccssscscscccccccccccccccccccccsscssc" />
      <path
         sodipodi:nodetypes="ccscccccccccccccccsscccccsscccsscccssscccccccccsscsssssscccsccccccsssc"
         inkscape:connector-curvature="0"
         id="path3994"
         d="m 138.18713,255.39295 c -5.03975,-7.25429 -9.58736,-13.45361 -10.10579,-13.77626 -0.51841,-0.32266 -7.04356,-0.2757 -14.50034,0.10435 l -13.55776,0.69101 -6.247518,12.01241 -6.247533,12.01241 -9.464951,-0.007 -9.464951,-0.007 L 60.60748,252.4111 52.616693,238.39933 37.470942,238.13272 22.3252,237.8661 l -7.271843,13.24001 -7.2718331,13.24001 -12.5334452,0 -12.5334357,0 -6.484469,-13.74603 -6.484469,-13.74602 -5.785922,0.55661 c -15.32555,1.47433 -13.339767,0.34764 -25.145946,14.26725 l -10.744779,12.66819 -11.825841,0 -11.825862,0 -6.249065,-13.18095 -6.24907,-13.18096 -9.04777,-0.0572 c -4.97627,-0.0315 -11.87323,-0.35459 -15.32657,-0.71808 l -6.27881,-0.66087 -6.67286,15.60034 -6.67287,15.60035 -4.81792,-0.61357 c -2.64985,-0.33746 -9.17412,-1.16264 -14.49838,-1.83374 l -9.68045,-1.22018 -6.8247,-12.33027 -6.8247,-12.33027 -11.88969,0.35336 c -9.59915,0.28528 -12.16215,0.69697 -13.30394,2.13694 -0.77783,0.98097 -4.23039,7.14503 -7.67232,13.69792 l -6.25808,11.91434 -13.36091,-0.0333 -13.36089,-0.0333 -8.4817,-13.99911 -8.48168,-13.9991 -10.97405,-0.28869 -10.97404,-0.2887 -7.25034,13.79162 -7.25034,13.79161 -3.89345,0 c -2.1414,0 -8.19334,-0.30736 -13.44875,-0.68302 l -9.55528,-0.68299 -6.99345,-13.07595 c -3.84639,-7.19177 -7.41316,-13.33717 -7.92615,-13.65644 -1.30685,-0.81336 -31.55644,2.48509 -32.96846,3.59492 -0.63615,0.50001 -7.98818,6.47321 -16.33785,13.27377 -8.34966,6.80057 -15.92873,12.55007 -16.69416,12.25428 -0.76543,-0.29579 -9.29372,-7.76973 -19.09996,-16.08637 l -17.82953,-15.12117 -0.0395,-15.62102 -0.282,-15.62103 92.37142,0 c 50.80428,0 199.75893,-0.30448 331.010348,-0.67662 124.946485,0.0388 197.125452,-0.65927 237.427112,-0.65927 l -0.1715,19.28718 0.24253,15.83319 -15.18036,-0.60537 -16.03783,-0.60538 -10.86132,15.48471 c -5.97372,8.51659 -11.20702,15.48472 -11.62955,15.48472 -0.42252,0 -4.89167,-5.93533 -9.93142,-13.18962 z"
         style="fill:#917c6f;fill-opacity:1;stroke:#eeebea;stroke-width:2.49128518;stroke-linecap:round;stroke-linejoin:round;stroke-miterlimit:4;stroke-dasharray:none;stroke-opacity:1" />
      <path
         sodipodi:nodetypes="cccccc"
         inkscape:connector-curvature="0"
         id="path4000"
         d="m 162.1047,175.31357 0,-7.41337 c 14.32855,-0.29286 28.85177,-0.43314 42.1171,-0.6895 -0.0362,4.89278 -0.23214,9.78067 -0.40927,14.66962 -15.16677,1.45186 -20.94281,0.97257 -41.70783,0.84632 z"
         style="fill:#917c6f;fill-opacity:1;stroke:#eeebea;stroke-width:2.49128518;stroke-linecap:round;stroke-linejoin:round;stroke-miterlimit:4;stroke-dasharray:none;stroke-opacity:1" />
      <path
         inkscape:connector-curvature="0"
         id="path4004"
         d="m 162.93884,167.54765 c 0,-0.26569 2.80556,-6.29321 4.29572,-9.75339 2.64158,-6.13378 2.48198,-8.29558 7.20398,-8.37409 10.2287,-0.25442 26.46009,-0.30777 30.6885,-0.31445 -0.44114,6.02106 -0.67722,12.05167 -0.9251,18.08283 -13.41897,0.24881 -27.80175,0.32474 -41.2631,0.35913 z"
         style="fill:#483e37;fill-opacity:1;stroke:#eeebea;stroke-width:2.49128518;stroke-linecap:round;stroke-linejoin:round;stroke-miterlimit:4;stroke-dasharray:none;stroke-opacity:1"
         sodipodi:nodetypes="ssccccs" />
      <path
         inkscape:connector-curvature="0"
         id="path4006"
         d=""
         style="fill:#917c6f;stroke:#ffffff;stroke-width:0.69755983;stroke-linecap:round;stroke-linejoin:round;stroke-miterlimit:4;stroke-dasharray:none;stroke-opacity:1" />
      <path
         sodipodi:nodetypes="cccc"
         inkscape:connector-curvature="0"
         id="path4010"
         d="m 163.10062,41.109376 c 1.65568,8.95475 3.79715,17.804586 4.74208,26.85565 -0.98009,2.054135 -3.12196,5.239825 -4.29803,7.184163 0.30817,-11.013023 -0.24573,-23.034093 -0.44405,-34.039813 z"
         style="fill:#483e37;fill-opacity:1;stroke:#eeebea;stroke-width:2.49128518;stroke-linecap:round;stroke-linejoin:round;stroke-miterlimit:4;stroke-dasharray:none;stroke-opacity:1" />
      <path
         style="fill:#917c6f;fill-opacity:1;stroke:#eeebea;stroke-width:2.49128518;stroke-linecap:round;stroke-linejoin:round;stroke-miterlimit:4;stroke-dasharray:none;stroke-opacity:1"
         d="m -457.83794,162.33701 0,-26.45727 12.35701,-0.64834 c 6.79636,-0.35658 28.80237,-0.95909 48.90224,-1.33891 35.03993,-0.66214 36.80247,-1.30125 36.80247,0.56827 0,2.40822 4.12479,45.39595 4.70465,50.69144 -2.77214,1.16159 -33.42338,1.52694 -39.51998,1.71603 -21.1859,0.65711 -44.09302,0.95119 -50.88938,1.2971 l -12.35701,0.62895 z"
         id="path5066"
         inkscape:connector-curvature="0"
         sodipodi:nodetypes="ccsssccscc" />
      <path
         style="fill:#6c5d53;fill-opacity:1;stroke:#eeebea;stroke-width:2.49128518;stroke-linecap:round;stroke-linejoin:round;stroke-miterlimit:4;stroke-dasharray:none;stroke-opacity:1"
         d="m -456.09731,122.02022 c 0.63249,-0.53091 102.57768,-5.39908 103.06591,-4.90741 -0.99959,7.40318 -6.05232,13.37683 -7.43332,15.53091 l -11.40335,0.49685 c -6.50796,0.28356 -28.57792,1.01394 -49.05358,1.28563 l -36.92266,1.33829 c 0.15295,-4.62751 0.50451,-9.30476 1.747,-13.74427 z"
         id="path5068"
         inkscape:connector-curvature="0"
         sodipodi:nodetypes="cccsscc" />
      <path
         sodipodi:nodetypes="cssccc"
         style="fill:#483e37;fill-opacity:1;stroke:#eeebea;stroke-width:2.49128518;stroke-linecap:round;stroke-linejoin:round;stroke-miterlimit:4;stroke-dasharray:none;stroke-opacity:1"
         d="m 163.82311,76.005726 1.86825,-4.02973 c 1.10425,-2.381811 2.07666,-4.08262 4.19717,-4.07517 5.73583,0.0202 49.76492,2.714882 50.04089,2.992805 -3.43729,5.9954 -4.1716,5.463919 -7.35565,5.500049 -17.07001,-0.549 -31.53555,-0.450626 -48.75066,-0.387954 z"
         id="path5070"
         inkscape:connector-curvature="0" />
      <path
         style="fill:#917c6f;fill-opacity:1;stroke:#eeebea;stroke-width:2.49128518;stroke-linecap:round;stroke-linejoin:round;stroke-miterlimit:4;stroke-dasharray:none;stroke-opacity:1"
         d="m 163.86932,76.123862 26.71891,0.08839 c 26.86402,0.08887 26.7342,-0.597848 25.20608,6.707474 l -1.04365,4.799813 -51.05688,-0.03125 z"
         id="path5072"
         inkscape:connector-curvature="0"
         sodipodi:nodetypes="cssccc" />
      <path
         sodipodi:nodetypes="cccccccc"
         style="fill:#917c6f;fill-opacity:1;stroke:#eeebea;stroke-width:2.49128518;stroke-linecap:round;stroke-linejoin:round;stroke-miterlimit:4;stroke-dasharray:none;stroke-opacity:1"
         d="m -235.66838,90.023495 c 9.6e-4,-0.102961 -0.70132,-8.16305 -0.49864,-11.303601 -0.11521,-1.655773 -0.43758,0.311763 0.0973,-2.147512 2.25588,-9.199983 3.73678,-17.684601 6.15598,-26.671974 23.97604,0 41.81936,1.088706 64.58397,2.653901 1.85855,8.908041 2.84627,15.667021 4.77039,25.266906 -0.46076,5.318504 0.2753,8.578598 -0.10501,12.019989 -18.38097,0.7198 -47.57185,0.3897 -75.00399,0.182291 z"
         id="path5884"
         inkscape:connector-curvature="0" />
      <path
         style="fill:#6c5d53;fill-opacity:1;stroke:#eeebea;stroke-width:2.49128518;stroke-linecap:round;stroke-linejoin:round;stroke-miterlimit:4;stroke-dasharray:none;stroke-opacity:1"
         d="m -229.8805,49.957499 1.51463,-6.547595 c 23.98498,0.785099 45.2173,0.903156 66.89787,0.608946 -0.93994,2.470845 -2.58984,5.850606 -3.75968,8.437964 -19.30296,-1.15563 -41.40811,-2.626859 -64.65282,-2.499315 z"
         id="path5886"
         inkscape:connector-curvature="0"
         sodipodi:nodetypes="ccccc" />
      <path
         style="fill:#483e37;fill-opacity:1;stroke:#eeebea;stroke-width:2.49128518;stroke-linecap:round;stroke-linejoin:round;stroke-miterlimit:4;stroke-dasharray:none;stroke-opacity:1"
         d="m -159.24829,77.229814 c 1.01631,-3.449607 2.16801,-6.034889 3.3305,-9.727568 10.86893,-0.03187 22.50587,0.09095 33.3748,0.05908 -0.66372,3.755812 -1.84746,7.625181 -2.34134,10.623939 -11.27199,-0.718325 -25.02921,-1.214496 -34.36396,-0.955451 z"
         id="path5888"
         inkscape:connector-curvature="0"
         sodipodi:nodetypes="ccccc" />
      <path
         style="fill:#917c6f;fill-opacity:1;stroke:#eeebea;stroke-width:2.49128518;stroke-linecap:round;stroke-linejoin:round;stroke-miterlimit:4;stroke-dasharray:none;stroke-opacity:1"
         d="m -160.38668,77.210041 c 12.00126,0.177777 24.85392,0.315053 35.24743,1.129595 0,2.901905 0.39497,8.367098 0.39497,11.269003 -11.65744,0.122835 -25.17589,0.246116 -35.5223,0.248692 -0.12103,-4.148547 -0.37557,-8.632498 -0.1201,-12.64729 z"
         id="path5890"
         inkscape:connector-curvature="0"
         sodipodi:nodetypes="ccccc" />
      <path
         sodipodi:nodetypes="ccscsccccccc"
         style="fill:#917c6f;fill-opacity:1;stroke:#eeebea;stroke-width:2.49128518;stroke-linecap:round;stroke-linejoin:round;stroke-miterlimit:4;stroke-dasharray:none;stroke-opacity:1"
         d="m 109.36332,77.267539 0.0805,-0.893579 0.44562,0 c 0.39429,0 0.43792,-0.0343 0.37877,-0.297863 -0.0368,-0.163821 -1.12276,-4.837255 -1.91914,-10.662042 -0.79638,-5.824788 -0.98835,-12.995244 -1.02557,-13.159065 -0.15483,-0.927594 1.53688,-0.383564 5.14335,-0.469249 13.49425,-0.211722 50.72251,-0.508527 50.72251,-0.508527 0,0 0.24667,16.49558 0.42019,22.59866 0.21425,9.006222 -0.003,9.757418 0.006,13.939883 -18.181,0.0185 -40.20021,0.429113 -55.0789,0.486843 0.31075,-3.101779 0.56555,-7.709975 0.82705,-11.035061 z"
         id="path5892"
         inkscape:connector-curvature="0" />
      <path
         style="fill:#6c5d53;fill-opacity:1;stroke:#eeebea;stroke-width:2.49128518;stroke-linecap:round;stroke-linejoin:round;stroke-miterlimit:4;stroke-dasharray:none;stroke-opacity:1"
         d="m 107.42589,51.684786 c 2.75518,-3.170528 4.84463,-5.750663 7.81582,-9.006869 15.3206,-0.478152 31.41054,-1.224167 47.78377,-1.590261 0.0625,0.122551 -0.0419,10.07675 -0.10857,10.143771 -19.22884,0.545497 -29.28861,0.340716 -53.59796,0.685831 -2.12031,0.0322 -2.12757,0.0313 -1.89306,-0.232472 z"
         id="path5894"
         inkscape:connector-curvature="0"
         sodipodi:nodetypes="cccccc" />
      <path
         style="fill:#483e37;fill-opacity:1;fill-rule:evenodd;stroke:#eeebea;stroke-width:2.49128518;stroke-linecap:round;stroke-linejoin:round;stroke-miterlimit:4;stroke-dasharray:none;stroke-opacity:1"
         d="m 161.81184,168.53151 8.43314,-18.10494 -8.08406,-30.15253"
         id="path5896"
         inkscape:connector-curvature="0"
         sodipodi:nodetypes="ccc" />
      <path
         style="fill:#917c6f;fill-opacity:1;stroke:#eeebea;stroke-width:2.49128518;stroke-linecap:round;stroke-linejoin:round;stroke-miterlimit:4;stroke-dasharray:none;stroke-opacity:1"
         d="m -458.00016,193.106 c 0.26029,-5.12161 0.072,-4.90302 3.80373,-5.25144 2.18264,-0.20379 25.66654,-1.35431 51.83975,-1.73979 41.59516,-0.61261 47.70374,-0.0473 47.70374,-1.45591 0,-1.4397 27.54694,-0.42631 258.625325,0.0401 145.823179,0.29433 252.214915,-0.8718 256.047015,-0.89105 0.93559,-0.005 3.09998,-0.20434 3.61601,-0.72388 0.53054,-0.53414 9.75448,-0.0858 20.55018,-0.42842 l 19.62856,-0.62285 -0.70342,10.48977 c -0.46016,6.86221 -1.34698,10.48728 -1.34698,11.42405 0,0 -482.15401,1.63162 -613.63723,1.66139 l -47.15625,0.0107 c -0.12479,-4.73152 0.99818,-8.5325 1.02957,-12.51267 z"
         id="path5882"
         inkscape:connector-curvature="0"
         sodipodi:nodetypes="cssssssscscscc" />
      <path
         style="fill:#917c6f;fill-opacity:1;stroke:#eeebea;stroke-width:2.49128518;stroke-linecap:round;stroke-linejoin:round;stroke-miterlimit:4;stroke-dasharray:none;stroke-opacity:1"
         d="m -164.15772,177.56375 c 0.006,-3.39795 -0.10103,-7.76735 0.14732,-8.69406 0.70582,-1.6634 2.23604,-0.84339 6.93262,-0.82337 l 34.84576,-0.0305 0,7.86299 0,7.86299 -20.96796,0 -20.96797,0 0.0102,-6.17805 z"
         id="path3523"
         inkscape:connector-curvature="0"
         sodipodi:nodetypes="cccccccccc" />
      <path
         style="fill:#483e37;fill-opacity:1;stroke:#eeebea;stroke-width:2.49128518;stroke-linecap:round;stroke-linejoin:round;stroke-miterlimit:4;stroke-dasharray:none;stroke-opacity:1"
         d="m -2.3946228,148.11345 c -0.4486536,-3.79631 -2.5667548,-14.83406 -1.8239048,-17.98357 0.50197,-2.12828 2.383577,-10.57369 2.609307,-10.79942 2.7619392,9.03097 6.1319371,20.48225 9.0878741,25.63807 L 3.52073,154.81571 c -1.9059317,4.74189 -3.50607,8.68719 -3.73983,8.69421 -0.23376,0.007 -1.1693727,-6.88285 -2.1755228,-15.39647 z"
         id="path3569"
         inkscape:connector-curvature="0"
         sodipodi:nodetypes="ssccscs" />
      <path
         style="fill:#917c6f;fill-opacity:1;stroke:#eeebea;stroke-width:2.49128518;stroke-linecap:round;stroke-linejoin:round;stroke-miterlimit:4;stroke-dasharray:none;stroke-opacity:1"
         d="m -121.592,180.35902 c -1.34941,-9.84498 0.53313,-13.13316 7.01072,-33.16791 l 6.15303,-19.03089 11.379135,0.23625 c 6.196071,0.12863 29.963159,0.72385 52.187631,0.98657 22.514392,0.26614 40.2796411,1.41093 40.3557911,1.50937 0.22517,0.29098 4.28276905,33.06285 4.26841905,35.3117 l 1.33857115,18.15326 c -39.8947073,0.74103 -82.1509163,0.27918 -122.2170473,-0.52396 -0.15874,-1.15811 -0.31746,-2.31634 -0.47625,-3.47439 z"
         id="path3517"
         inkscape:connector-curvature="0"
         sodipodi:nodetypes="cscssccccc" />
      <path
         style="fill:#6c5d53;stroke:#eeebea;stroke-width:2.49128518;stroke-linecap:round;stroke-linejoin:round;stroke-miterlimit:4;stroke-dasharray:none;stroke-opacity:1"
         d="m -108.91267,127.79275 -0.69063,-6.019 c -0.85881,-7.48472 -7.65878,-6.33745 54.90292,-5.8726 28.805779,0.21404 52.50621,2.89759 52.67865,3.07003 0.17243,0.17243 -0.73414,3.9181 -1.23653,6.64459 -0.85428,4.63632 -1.03836,4.95081 -2.84333,4.85766 -35.250378,-1.52492 -68.648517,-1.06723 -102.81108,-2.68068 z"
         id="path3619"
         inkscape:connector-curvature="0"
         sodipodi:nodetypes="csssscc" />
      <path
         style="fill:#6c5d53;fill-opacity:1;stroke:#eeebea;stroke-width:2.49128518;stroke-linecap:round;stroke-linejoin:round;stroke-miterlimit:4;stroke-dasharray:none;stroke-opacity:1"
         d="m -442.26994,52.902635 7.25142,-5.568716 c 17.4701,-0.01024 33.851,-0.280697 51.10557,0.221458 -1.72964,2.086609 -4.52371,6.636066 -7.07405,6.50913 -12.90004,-0.545774 -40.98876,-0.997571 -51.28294,-1.161872 z"
         id="path3583"
         inkscape:connector-curvature="0"
         sodipodi:nodetypes="ccccc" />
      <path
         style="fill:#483e37;fill-opacity:1;stroke:#eeebea;stroke-width:2.49128518;stroke-linecap:round;stroke-linejoin:round;stroke-miterlimit:4;stroke-dasharray:none;stroke-opacity:1"
         d="m -263.19683,79.738721 c 0,-0.786743 -0.86634,-9.982036 -1.34384,-15.631275 l -0.81408,-9.631355 c 1.28241,-2.043877 5.4563,-5.95223 5.94156,-7.800544 0.67581,2.111117 6.53897,21.544684 6.53597,22.664148 -0.002,0.633289 -2.19076,2.793638 -4.25012,4.822026 -2.89768,2.854114 -6.06949,6.684014 -6.06949,5.577 z"
         id="path3591"
         inkscape:connector-curvature="0"
         sodipodi:nodetypes="sscccss" />
    </g>
  </g>
</svg>
