<?xml version="1.0" encoding="UTF-8" standalone="no"?>
<!-- Created with Inkscape (http://www.inkscape.org/) -->

<svg
   xmlns:dc="http://purl.org/dc/elements/1.1/"
   xmlns:cc="http://creativecommons.org/ns#"
   xmlns:rdf="http://www.w3.org/1999/02/22-rdf-syntax-ns#"
   xmlns:svg="http://www.w3.org/2000/svg"
   xmlns="http://www.w3.org/2000/svg"
   xmlns:sodipodi="http://sodipodi.sourceforge.net/DTD/sodipodi-0.dtd"
   xmlns:inkscape="http://www.inkscape.org/namespaces/inkscape"
   width="158.1442mm"
   height="48.394146mm"
   viewBox="0 0 560.35345 171.47532"
   id="svg2"
   version="1.1"
   inkscape:version="0.91 r13725"
   inkscape:export-filename="C:\Users\Achille\Desktop\bitmap.png"
   inkscape:export-xdpi="599"
   inkscape:export-ydpi="599"
   sodipodi:docname="Icone Home.svg">
  <defs
     id="defs4" />
  <sodipodi:namedview
     id="base"
     pagecolor="#ffffff"
     bordercolor="#666666"
     borderopacity="1.0"
     inkscape:pageopacity="0.0"
     inkscape:pageshadow="2"
     inkscape:zoom="1.4"
     inkscape:cx="-1.4841071"
     inkscape:cy="-12.015409"
     inkscape:document-units="px"
     inkscape:current-layer="layer1"
     showgrid="false"
     showguides="false"
     fit-margin-top="0"
     fit-margin-left="0"
     fit-margin-right="0"
     fit-margin-bottom="0"
     inkscape:window-width="1920"
     inkscape:window-height="1017"
     inkscape:window-x="1912"
     inkscape:window-y="-8"
     inkscape:window-maximized="1" />
  <metadata
     id="metadata7">
    <rdf:RDF>
      <cc:Work
         rdf:about="">
        <dc:format>image/svg+xml</dc:format>
        <dc:type
           rdf:resource="http://purl.org/dc/dcmitype/StillImage" />
        <dc:title />
      </cc:Work>
    </rdf:RDF>
  </metadata>
  <g
     inkscape:label="Calque 1"
     inkscape:groupmode="layer"
     id="layer1"
     transform="translate(-123.90107,-484.44856)">
    <g
       id="g4142"
       inkscape:export-filename="D:\Programation\JAVA\TheEndlessCastle\core\assets\textures\buttons\menuOver.png"
       inkscape:export-xdpi="171.93326"
       inkscape:export-ydpi="171.93326">
      <path
         sodipodi:nodetypes="cccccccccc"
         inkscape:connector-curvature="0"
         id="path4136-9-5-1-82"
         d="m 491.61296,625.34504 -2.12701,-99.56339 c -1.0603,-25.73295 -12.4497,-39.94669 -26.94197,-40.82817 l -113.43993,0 c -26.32793,-0.33375 -39.73317,13.02086 -39.70397,41.54444 l 0,98.84712 m 182.21288,0 c -1.25922,13.97812 -3.65482,27.12363 -26.233,28.65133 l -129.7469,-0.71628 c -20.00745,-1.50767 -26.27001,-14.31483 -26.23298,-27.93505"
         style="fill:#ff4300;fill-opacity:1;fill-rule:evenodd;stroke:#000000;stroke-width:0.99768502px;stroke-linecap:butt;stroke-linejoin:miter;stroke-opacity:1" />
      <path
         sodipodi:nodetypes="cccccccccc"
         inkscape:connector-curvature="0"
         id="path4136-8-4-44"
         d="m 488.94525,623.82784 -2.07646,-97.19759 C 485.83368,501.50876 474.71491,487.63277 460.567,486.77223 l -110.74439,0 c -25.70234,-0.32582 -38.78904,12.71146 -38.76054,40.55727 l 0,96.49834 m 177.88318,0 c -1.22929,13.64598 -3.56797,26.47913 -25.60965,27.97053 l -126.66389,-0.69926 c -19.53204,-1.47185 -25.64579,-13.97469 -25.60964,-27.27127"
         style="fill:#351f1f;fill-opacity:0.54696129;fill-rule:evenodd;stroke:#000000;stroke-width:0.97397828px;stroke-linecap:butt;stroke-linejoin:miter;stroke-opacity:1" />
      <path
         inkscape:connector-curvature="0"
         id="rect4169"
         d="m 398.55437,498.17602 -37.64062,34.53906 -37.64063,34.53906 23.66211,0.0352 0,69.32617 104.28516,0 0,-69.16992 21.89258,0.0332 -37.2793,-34.65234 -37.2793,-34.65039 z"
         style="opacity:1;fill:#ffffff;fill-opacity:1;stroke:#000000;stroke-width:1;stroke-linecap:butt;stroke-linejoin:miter;stroke-miterlimit:4;stroke-dasharray:none;stroke-dashoffset:0;stroke-opacity:1" />
    </g>
    <g
       id="g4147">
      <path
         sodipodi:nodetypes="cccccccccc"
         inkscape:connector-curvature="0"
         id="path4136-9-5-1-82-9"
         d="m 306.61296,626.77361 -2.12701,-99.56339 c -1.0603,-25.73295 -12.4497,-39.94669 -26.94197,-40.82817 l -113.43993,0 c -26.32793,-0.33375 -39.73317,13.02086 -39.70397,41.54444 l 0,98.84712 m 182.21288,0 c -1.25922,13.97812 -3.65482,27.12363 -26.233,28.65133 l -129.7469,-0.71628 c -20.00745,-1.50767 -26.27001,-14.31483 -26.23298,-27.93505"
         style="opacity:0.4;fill:#ff0000;fill-opacity:1;fill-rule:evenodd;stroke:#000000;stroke-width:0.99768502px;stroke-linecap:butt;stroke-linejoin:miter;stroke-opacity:1" />
      <path
         inkscape:export-ydpi="176.19829"
         inkscape:export-xdpi="176.19829"
         inkscape:export-filename="D:\Programation\JAVA\TheEndlessCastle\core\assets\textures\buttons\menuNormal.png"
         sodipodi:nodetypes="cccccccccc"
         inkscape:connector-curvature="0"
         id="path4136-8-4-44-7"
         d="m 303.94525,625.25641 -2.07646,-97.19759 C 300.83368,502.93733 289.71491,489.06134 275.567,488.2008 l -110.74439,0 c -25.70234,-0.32582 -38.78904,12.71146 -38.76054,40.55727 l 0,96.49834 m 177.88318,0 c -1.22929,13.64598 -3.56797,26.47913 -25.60965,27.97053 l -126.66389,-0.69926 c -19.53204,-1.47185 -25.64579,-13.97469 -25.60964,-27.27127"
         style="opacity:0.4;fill:#901111;fill-opacity:1;fill-rule:evenodd;stroke:#000000;stroke-width:0.97397828px;stroke-linecap:butt;stroke-linejoin:miter;stroke-opacity:1" />
      <path
         inkscape:connector-curvature="0"
         id="rect4169-4"
         d="m 213.55437,499.60459 -37.64062,34.53906 -37.64063,34.53906 23.66211,0.0352 0,69.32617 104.28516,0 0,-69.16992 21.89258,0.0332 -37.2793,-34.65234 -37.2793,-34.65039 z"
         style="opacity:0.4;fill:#ffffff;fill-opacity:1;stroke:#000000;stroke-width:1;stroke-linecap:butt;stroke-linejoin:miter;stroke-miterlimit:4;stroke-dasharray:none;stroke-dashoffset:0;stroke-opacity:1" />
    </g>
    <g
       id="g4152"
       inkscape:export-filename="D:\Programation\JAVA\TheEndlessCastle\core\assets\textures\buttons\menuPressed.png"
       inkscape:export-xdpi="171.93329"
       inkscape:export-ydpi="171.93329">
      <path
         sodipodi:nodetypes="cccccccccc"
         inkscape:connector-curvature="0"
         id="path4136-9-5-1-82-6"
         d="m 683.75582,625.34504 -2.12701,-99.56339 c -1.0603,-25.73295 -12.4497,-39.94669 -26.94197,-40.82817 l -113.43993,0 c -26.32793,-0.33375 -39.73317,13.02086 -39.70397,41.54444 l 0,98.84712 m 182.21288,0 c -1.25922,13.97812 -3.65482,27.12363 -26.233,28.65133 l -129.7469,-0.71628 c -20.00745,-1.50767 -26.27001,-14.31483 -26.23298,-27.93505"
         style="fill:#c10000;fill-opacity:1;fill-rule:evenodd;stroke:#000000;stroke-width:0.99768502px;stroke-linecap:butt;stroke-linejoin:miter;stroke-opacity:1" />
      <path
         sodipodi:nodetypes="cccccccccc"
         inkscape:connector-curvature="0"
         id="path4136-8-4-44-0"
         d="m 681.08811,623.82784 -2.07646,-97.19759 c -1.03511,-25.12149 -12.15388,-38.99748 -26.30179,-39.85802 l -110.74439,0 c -25.70234,-0.32582 -38.78904,12.71146 -38.76054,40.55727 l 0,96.49834 m 177.88318,0 c -1.22929,13.64598 -3.56797,26.47913 -25.60965,27.97053 l -126.66389,-0.69926 c -19.53204,-1.47185 -25.64579,-13.97469 -25.60964,-27.27127"
         style="fill:#741111;fill-opacity:1;fill-rule:evenodd;stroke:#000000;stroke-width:0.97397828px;stroke-linecap:butt;stroke-linejoin:miter;stroke-opacity:1" />
      <path
         inkscape:connector-curvature="0"
         id="rect4169-6"
         d="m 590.69723,498.17602 -37.64062,34.53906 -37.64063,34.53906 23.66211,0.0352 0,69.32617 104.28516,0 0,-69.16992 21.89258,0.0332 -37.2793,-34.65234 -37.2793,-34.65039 z"
         style="opacity:1;fill:#eadbdb;fill-opacity:1;stroke:#000000;stroke-width:1;stroke-linecap:butt;stroke-linejoin:miter;stroke-miterlimit:4;stroke-dasharray:none;stroke-dashoffset:0;stroke-opacity:1" />
    </g>
  </g>
</svg>
