<?xml version="1.0" encoding="UTF-8" standalone="no"?>
<!-- Created with Inkscape (http://www.inkscape.org/) -->

<svg
   xmlns:dc="http://purl.org/dc/elements/1.1/"
   xmlns:cc="http://creativecommons.org/ns#"
   xmlns:rdf="http://www.w3.org/1999/02/22-rdf-syntax-ns#"
   xmlns:svg="http://www.w3.org/2000/svg"
   xmlns="http://www.w3.org/2000/svg"
   xmlns:sodipodi="http://sodipodi.sourceforge.net/DTD/sodipodi-0.dtd"
   xmlns:inkscape="http://www.inkscape.org/namespaces/inkscape"
   id="svg3344"
   version="1.1"
   inkscape:version="0.91 r13725"
   width="585.44635"
   height="701.68182"
   viewBox="0 0 585.44635 701.68183"
   sodipodi:docname="remparts2 - Copie.svg"
   inkscape:export-filename="C:\Users\Achille\Desktop\escalier- Copie.png"
   inkscape:export-xdpi="53"
   inkscape:export-ydpi="53">
  <metadata
     id="metadata3350">
    <rdf:RDF>
      <cc:Work
         rdf:about="">
        <dc:format>image/svg+xml</dc:format>
        <dc:type
           rdf:resource="http://purl.org/dc/dcmitype/StillImage" />
        <dc:title />
      </cc:Work>
    </rdf:RDF>
  </metadata>
  <defs
     id="defs3348" />
  <sodipodi:namedview
     pagecolor="#ffffff"
     bordercolor="#666666"
     borderopacity="1"
     objecttolerance="10"
     gridtolerance="10"
     guidetolerance="10"
     inkscape:pageopacity="0"
     inkscape:pageshadow="2"
     inkscape:window-width="1536"
     inkscape:window-height="803"
     id="namedview3346"
     showgrid="false"
     inkscape:zoom="0.90509668"
     inkscape:cx="330.17969"
     inkscape:cy="357.93134"
     inkscape:window-x="-8"
     inkscape:window-y="-8"
     inkscape:window-maximized="1"
     inkscape:current-layer="svg3344"
     fit-margin-top="0"
     fit-margin-left="0"
     fit-margin-right="0"
     fit-margin-bottom="0"
     showguides="false" />
  <path
     style="fill:#000000;fill-opacity:1;fill-rule:evenodd;stroke:#000000;stroke-width:0;stroke-linecap:butt;stroke-linejoin:miter;stroke-miterlimit:4;stroke-dasharray:none;stroke-opacity:1"
     d="M 4.9996967e-6,192.3997 5.589115,699.8655 l 570.321605,1.81631 0.9081,-108.97864 -4.0867,-26.79059 0.9082,-13.16825 11.806,-26.33651 -7.621,-3.92767 -2.2704,-16.30913 2.6262,-6.09971 -29.061,-14.98456 -16.8009,-25.42835 -38.1425,-1.81631 -5.4866,6.16039 -14.5911,-11.21593 5.0931,-14.01573 -33.1476,-37.23437 -12.5928,1.97534 -19.6468,-20.55485 -0.454,-17.29263 -39.5048,-37.23437 -13.1491,4.14414 -13.278,-17.05518 -0.6421,-14.12758 -28.89734,-33.39247 -14.1416,1.82274 -16.95143,-12.53201 0.91137,-18.18806 -34.67679,-35.31895 -10.75131,6.42162 -21.999,-24.40218 0,-14.12759 -30.18165,-35.31895 0.29723,-0.29724 -15.06698,3.50805 -22.37195,-18.5947 -2.6724,-21.861563 -30.18165,-28.897326 -12.11136,0.62815 L 90.567945,49.200789 87.446865,34.520778 54.303935,4.2493893 26.006735,11.470282 16.464025,37.235476 3.125005,108.52834"
     id="path4491"
     inkscape:connector-curvature="0"
     sodipodi:nodetypes="ccccccccccccccccccccccccccccccccccccccccccccc" />
  <g
     inkscape:groupmode="layer"
     id="layer1"
     inkscape:label="Layer 1"
     transform="translate(-98.331465,181.48777)" />
  <path
     style="fill:#917c6f;stroke:#000000;stroke-width:0;stroke-miterlimit:4;stroke-dasharray:none;stroke-opacity:1"
     d=""
     id="path3545"
     inkscape:connector-curvature="0" />
  <path
     style="fill:#917c6f;stroke:#000000;stroke-width:0;stroke-miterlimit:4;stroke-dasharray:none;stroke-opacity:1"
     d=""
     id="path3557"
     inkscape:connector-curvature="0" />
  <path
     style="fill:#917c6f;stroke:#000000;stroke-width:0;stroke-miterlimit:4;stroke-dasharray:none;stroke-opacity:1"
     d=""
     id="path3559"
     inkscape:connector-curvature="0" />
  <path
     style="fill:#917c6f;stroke:#000000;stroke-width:0;stroke-miterlimit:4;stroke-dasharray:none;stroke-opacity:1"
     d=""
     id="path3563"
     inkscape:connector-curvature="0" />
  <path
     style="fill:#483e37;stroke:#000000;stroke-width:0;stroke-miterlimit:4;stroke-dasharray:none;stroke-opacity:1"
     d=""
     id="path3627"
     inkscape:connector-curvature="0" />
  <path
     style="fill:#917c6f;fill-opacity:1;fill-rule:evenodd;stroke:#000000;stroke-width:1;stroke-linecap:butt;stroke-linejoin:miter;stroke-miterlimit:4;stroke-dasharray:none;stroke-opacity:1"
     d="m 4.673155,142.01349 0.90625,25.76367 448.791015,421.68555 0,-1.22852 119.9844,2.15625 -3.7422,-27.02344 -116.2422,1.79102 0,-0.01 z"
     id="path4201"
     inkscape:connector-curvature="0"
     sodipodi:nodetypes="ccccccccc" />
  <path
     style="fill:#917c6f;fill-opacity:1;fill-rule:evenodd;stroke:#000000;stroke-width:0;stroke-linecap:butt;stroke-linejoin:miter;stroke-miterlimit:4;stroke-dasharray:none;stroke-opacity:1"
     d="m 3.370425,170.56762 449.999995,419.79029 -20,46 -23,-16 -5,-39 -25,-6 -27,8 -15,-14 2,-28 -19,-29 -25,19 -18,-11 0,-28 -18,-28 -22,6 -14,10 -23,-24 6,-28 -17,-26 -27,-1 -12,-21 7,-20 -24,-22 -28,17 -23.999995,-22 16,-24 -18,-30 -29,18 -10,-28 18,-21 -26,-19 -21,15 -10.20971,-43.79029 z"
     id="path4203"
     inkscape:connector-curvature="0"
     sodipodi:nodetypes="cccccccccccccccccccccccccccccccccc" />
  <path
     style="fill:#4b413b;fill-opacity:1;fill-rule:evenodd;stroke:#000000;stroke-width:1;stroke-linecap:butt;stroke-linejoin:miter;stroke-miterlimit:4;stroke-dasharray:none;stroke-opacity:1"
     d="m 1.623815,208.46312 5.34782,183.47573 -1,308 431.331985,0.96093 -0.023,0.14063 138.0664,-0.32031 -0.418,-107.27931 -11.6445,42.18556 -30.2949,1.70117 -16.7227,-20.41016 -15.6894,-4.24414 -0.7559,26.30274 -27.2207,-4.72071 -14.996,-43.94531 -1.6934,-1.12696 -21.7208,49.41212 -26.0468,-17 -4.2188,-38.65625 -21.9531,-5 -29,7.65625 -16.0469,-14.95313 1.7813,-28.48437 -17.95315,-25.95313 -23.95312,17.78125 -20.65624,-12 0.39062,-28.87499 -17.5625,-26.12501 -20,5.60938 -15,10.82812 -23.875,-25.26562 5.60938,-29.04687 -16.34375,-24.29688 -27.39063,-1.39063 -12.65625,-22.60937 7.39063,-19.26563 -22.90626,-19.5625 -27.21875,15.60938 -26.484365,-23.04688 16.4375,-25.17187 -16.95313,-25.82813 -29.04687,16.60938 -10.82812,-29.875 17.21875,-21.17187 -23.5625,-17.12501 -22,15.78125 -9.60034,-44.4138 z"
     id="path4205"
     inkscape:connector-curvature="0"
     sodipodi:nodetypes="ccccccccccccccccccccccccccccccccccccccccccccccc" />
  <path
     style="fill:#917c6f;fill-opacity:1;fill-rule:evenodd;stroke:#000000;stroke-width:1;stroke-linecap:butt;stroke-linejoin:miter;stroke-miterlimit:4;stroke-dasharray:none;stroke-opacity:1"
     d="m 6.370425,139.35791 0,-11 0,-19 4,-23.000005 57,57.000005 -1,53 z"
     id="path4207"
     inkscape:connector-curvature="0" />
  <path
     style="fill:#917c6f;fill-opacity:1;fill-rule:evenodd;stroke:#000000;stroke-width:0;stroke-linecap:butt;stroke-linejoin:miter;stroke-miterlimit:4;stroke-dasharray:none;stroke-opacity:1"
     d="m 70.370425,199.35791 0,-15 25,24 0,15 z"
     id="path4209"
     inkscape:connector-curvature="0" />
  <path
     style="fill:#917c6f;fill-opacity:1;fill-rule:evenodd;stroke:#000000;stroke-width:0;stroke-linecap:butt;stroke-linejoin:miter;stroke-miterlimit:4;stroke-dasharray:none;stroke-opacity:1"
     d="m 97.265575,224.04335 5.104845,-48.68544 47,46 0,54 z"
     id="path4211"
     inkscape:connector-curvature="0"
     sodipodi:nodetypes="ccccc" />
  <path
     style="fill:#917c6f;fill-opacity:1;fill-rule:evenodd;stroke:#000000;stroke-width:0;stroke-linecap:butt;stroke-linejoin:miter;stroke-miterlimit:4;stroke-dasharray:none;stroke-opacity:1"
     d="m 154.37042,277.35791 -1,-17 25,27 -9,5 z"
     id="path4213"
     inkscape:connector-curvature="0" />
  <path
     style="fill:#917c6f;fill-opacity:1;fill-rule:evenodd;stroke:#000000;stroke-width:0;stroke-linecap:butt;stroke-linejoin:miter;stroke-miterlimit:4;stroke-dasharray:none;stroke-opacity:1"
     d="m 172.37042,295.35791 28,-18 42,42 -10,32 z"
     id="path4215"
     inkscape:connector-curvature="0" />
  <path
     style="fill:#917c6f;fill-opacity:1;fill-rule:evenodd;stroke:#000000;stroke-width:0;stroke-linecap:butt;stroke-linejoin:miter;stroke-miterlimit:4;stroke-dasharray:none;stroke-opacity:1"
     d="m 234.37042,354.35791 8,-11 21,23 -5,13 z"
     id="path4217"
     inkscape:connector-curvature="0"
     sodipodi:nodetypes="ccccc" />
  <path
     style="fill:#917c6f;fill-opacity:1;fill-rule:evenodd;stroke:#000000;stroke-width:0;stroke-linecap:butt;stroke-linejoin:miter;stroke-miterlimit:4;stroke-dasharray:none;stroke-opacity:1"
     d="m 264.37042,382.35791 11,-35 39,43 -9,31 z"
     id="path4219"
     inkscape:connector-curvature="0" />
  <path
     style="fill:#917c6f;fill-opacity:1;fill-rule:evenodd;stroke:#000000;stroke-width:0;stroke-linecap:butt;stroke-linejoin:miter;stroke-miterlimit:4;stroke-dasharray:none;stroke-opacity:1"
     d="m 309.37042,424.35791 4,-16 29,32 -8,8 z"
     id="path4221"
     inkscape:connector-curvature="0" />
  <path
     style="fill:#917c6f;fill-opacity:1;fill-rule:evenodd;stroke:#000000;stroke-width:0;stroke-linecap:butt;stroke-linejoin:miter;stroke-miterlimit:4;stroke-dasharray:none;stroke-opacity:1"
     d="m 336.37042,451.35791 22,-23 30,36 -6,30 z"
     id="path4223"
     inkscape:connector-curvature="0" />
  <path
     style="fill:#917c6f;fill-opacity:1;fill-rule:evenodd;stroke:#000000;stroke-width:0;stroke-linecap:butt;stroke-linejoin:miter;stroke-miterlimit:4;stroke-dasharray:none;stroke-opacity:1"
     d="m 386.37042,497.35791 2,-14 25,27 -1,12 z"
     id="path4225"
     inkscape:connector-curvature="0" />
  <path
     style="fill:#917c6f;fill-opacity:1;fill-rule:evenodd;stroke:#000000;stroke-width:0;stroke-linecap:butt;stroke-linejoin:miter;stroke-miterlimit:4;stroke-dasharray:none;stroke-opacity:1"
     d="m 417.33202,528.0336 0,-28.76804 30.0797,29.19206 -2.6267,25.98403 z"
     id="path4227"
     inkscape:connector-curvature="0"
     sodipodi:nodetypes="ccccc" />
  <path
     style="fill:#483e37;fill-opacity:1;fill-rule:evenodd;stroke:#000000;stroke-width:0;stroke-linecap:butt;stroke-linejoin:miter;stroke-miterlimit:4;stroke-dasharray:none;stroke-opacity:1"
     d="m 70.370425,181.35791 0,-35 9,-5 1,34 z"
     id="path4229"
     inkscape:connector-curvature="0"
     sodipodi:nodetypes="ccccc" />
  <path
     style="fill:#483e37;fill-opacity:1;fill-rule:evenodd;stroke:#000000;stroke-width:0;stroke-linecap:butt;stroke-linejoin:miter;stroke-miterlimit:4;stroke-dasharray:none;stroke-opacity:1"
     d="m 75.370425,184.35791 7,-5 15,14 -2,11 z"
     id="path4231"
     inkscape:connector-curvature="0" />
  <path
     style="fill:#6c5d53;fill-opacity:1;fill-rule:evenodd;stroke:#000000;stroke-width:0;stroke-linecap:butt;stroke-linejoin:miter;stroke-miterlimit:4;stroke-dasharray:none;stroke-opacity:1"
     d="m 102.05586,172.80548 6.31456,-8.44757 51,51 -9,3 z"
     id="path4233"
     inkscape:connector-curvature="0"
     sodipodi:nodetypes="ccccc" />
  <path
     style="fill:#483e37;fill-opacity:1;fill-rule:evenodd;stroke:#000000;stroke-width:0;stroke-linecap:butt;stroke-linejoin:miter;stroke-miterlimit:4;stroke-dasharray:none;stroke-opacity:1"
     d="m 152.37042,221.35791 6,-3 6,32 -11,5 z"
     id="path4235"
     inkscape:connector-curvature="0" />
  <path
     style="fill:#483e37;fill-opacity:1;fill-rule:evenodd;stroke:#000000;stroke-width:0;stroke-linecap:butt;stroke-linejoin:miter;stroke-miterlimit:4;stroke-dasharray:none;stroke-opacity:1"
     d="m 156.37042,258.35791 9,-5 23,26 -7,4 z"
     id="path4237"
     inkscape:connector-curvature="0" />
  <path
     style="fill:#6c5d53;fill-opacity:1;fill-rule:evenodd;stroke:#000000;stroke-width:0;stroke-linecap:butt;stroke-linejoin:miter;stroke-miterlimit:4;stroke-dasharray:none;stroke-opacity:1"
     d="m 204.37042,276.35791 41,40 10,-2 -41,-41 z"
     id="path4239"
     inkscape:connector-curvature="0" />
  <path
     style="fill:#483e37;fill-opacity:1;fill-rule:evenodd;stroke:#000000;stroke-width:0;stroke-linecap:butt;stroke-linejoin:miter;stroke-miterlimit:4;stroke-dasharray:none;stroke-opacity:1"
     d="m 245.37042,320.35791 10,-1 1,17 -15,4 z"
     id="path4241"
     inkscape:connector-curvature="0"
     sodipodi:nodetypes="ccccc" />
  <path
     style="fill:#483e37;fill-opacity:1;fill-rule:evenodd;stroke:#000000;stroke-width:0;stroke-linecap:butt;stroke-linejoin:miter;stroke-miterlimit:4;stroke-dasharray:none;stroke-opacity:1"
     d="m 248.37042,344.35791 9,-4 11,12 -2,10 z"
     id="path4243"
     inkscape:connector-curvature="0" />
  <path
     style="fill:#6c5d53;fill-opacity:1;fill-rule:evenodd;stroke:#000000;stroke-width:0;stroke-linecap:butt;stroke-linejoin:miter;stroke-miterlimit:4;stroke-dasharray:none;stroke-opacity:1"
     d="m 279.37042,344.35791 10,-3 38,46 -9,1 z"
     id="path4245"
     inkscape:connector-curvature="0"
     sodipodi:nodetypes="ccccc" />
  <path
     style="fill:#483e37;fill-opacity:1;fill-rule:evenodd;stroke:#000000;stroke-width:0;stroke-linecap:butt;stroke-linejoin:miter;stroke-miterlimit:4;stroke-dasharray:none;stroke-opacity:1"
     d="m 318.37042,392.35791 -4,12 13,1 0,-14 z"
     id="path4247"
     inkscape:connector-curvature="0"
     sodipodi:nodetypes="ccccc" />
  <path
     style="fill:#483e37;fill-opacity:1;fill-rule:evenodd;stroke:#000000;stroke-width:0;stroke-linecap:butt;stroke-linejoin:miter;stroke-miterlimit:4;stroke-dasharray:none;stroke-opacity:1"
     d="m 317.37042,408.35791 12,1 21,22 -7,5 z"
     id="path4249"
     inkscape:connector-curvature="0" />
  <path
     style="fill:#6c5d53;fill-opacity:1;fill-rule:evenodd;stroke:#000000;stroke-width:0;stroke-linecap:butt;stroke-linejoin:miter;stroke-miterlimit:4;stroke-dasharray:none;stroke-opacity:1"
     d="m 361.37042,427.35791 6,-3 34,40 -10,0 z"
     id="path4251"
     inkscape:connector-curvature="0" />
  <path
     style="fill:#483e37;fill-opacity:1;fill-rule:evenodd;stroke:#000000;stroke-width:0;stroke-linecap:butt;stroke-linejoin:miter;stroke-miterlimit:4;stroke-dasharray:none;stroke-opacity:1"
     d="m 392.37042,468.35791 -2,12 11,-3 0,-9 z"
     id="path4253"
     inkscape:connector-curvature="0" />
  <path
     style="fill:#483e37;fill-opacity:1;fill-rule:evenodd;stroke:#000000;stroke-width:0;stroke-linecap:butt;stroke-linejoin:miter;stroke-miterlimit:4;stroke-dasharray:none;stroke-opacity:1"
     d="m 394.37042,484.35791 8,-4 10,12 0,12 z"
     id="path4255"
     inkscape:connector-curvature="0" />
  <path
     style="fill:#917c6f;fill-opacity:1;fill-rule:evenodd;stroke:#000000;stroke-width:0;stroke-linecap:butt;stroke-linejoin:miter;stroke-miterlimit:4;stroke-dasharray:none;stroke-opacity:1"
     d="M 448.37109 543.70117 L 447.37109 555.35742 L 454.64648 563.82031 L 454.55664 564.3125 L 455.05469 564.29492 L 455.19922 564.46289 L 455.37305 564.2832 L 498.96875 562.75195 L 500.25391 552.47656 L 459.37109 549.58594 L 448.37109 543.70117 z "
     id="path4257" />
  <path
     style="fill:#6c5d53;fill-opacity:1;fill-rule:evenodd;stroke:#000000;stroke-width:0;stroke-linecap:butt;stroke-linejoin:miter;stroke-miterlimit:4;stroke-dasharray:none;stroke-opacity:1"
     d="m 418.37042,496.35791 8,-4 34,33 -9,2 z"
     id="path4259"
     inkscape:connector-curvature="0" />
  <path
     style="fill:#483e37;fill-opacity:1;fill-rule:evenodd;stroke:#000000;stroke-width:0;stroke-linecap:butt;stroke-linejoin:miter;stroke-miterlimit:4;stroke-dasharray:none;stroke-opacity:1"
     d="m 460.51886,539.32666 -0.19531,-11.72656 -9.97657,2.21875 -0.97656,12.53906 z"
     id="path4261"
     inkscape:connector-curvature="0"
     sodipodi:nodetypes="ccccc" />
  <path
     style="fill:#6c5d53;fill-opacity:1;fill-rule:evenodd;stroke:#000000;stroke-width:1;stroke-linecap:butt;stroke-linejoin:miter;stroke-miterlimit:4;stroke-dasharray:none;stroke-opacity:1"
     d="m 11.370425,83.357905 9,-7 58,60.000005 -9,3 z"
     id="path4263"
     inkscape:connector-curvature="0" />
  <path
     style="fill:#a6958b;fill-opacity:1;fill-rule:evenodd;stroke:#000000;stroke-width:1;stroke-linecap:butt;stroke-linejoin:miter;stroke-miterlimit:4;stroke-dasharray:none;stroke-opacity:1"
     d="m 17.021365,50.461368 34.83578,0 -17.09317,38.053879 -13.37009,-15.686238 -8.48528,5.656854 z"
     id="path4288"
     inkscape:connector-curvature="0"
     sodipodi:nodetypes="cccccc" />
  <path
     style="fill:#a6958b;fill-opacity:1;fill-rule:evenodd;stroke:#000000;stroke-width:0;stroke-linecap:butt;stroke-linejoin:miter;stroke-miterlimit:4;stroke-dasharray:none;stroke-opacity:1"
     d="m 53.308495,52.874294 1.92649,28.255166 -12.2011,15.411908 -6.42164,-7.063791 z"
     id="path4290"
     inkscape:connector-curvature="0"
     sodipodi:nodetypes="ccccc" />
  <path
     style="fill:#a6958b;fill-opacity:1;fill-rule:evenodd;stroke:#000000;stroke-width:0;stroke-linecap:butt;stroke-linejoin:miter;stroke-miterlimit:4;stroke-dasharray:none;stroke-opacity:1"
     d="m 44.960375,97.18353 13.48541,-16.054071 23.11787,0 -25.04435,28.255171 z"
     id="path4292"
     inkscape:connector-curvature="0"
     sodipodi:nodetypes="ccccc" />
  <path
     style="fill:#a6958b;fill-opacity:1;fill-rule:evenodd;stroke:#000000;stroke-width:0;stroke-linecap:butt;stroke-linejoin:miter;stroke-miterlimit:4;stroke-dasharray:none;stroke-opacity:1"
     d="m 58.445795,110.66895 25.04435,-27.613002 -1.28433,23.760032 -14.12758,16.05407 z"
     id="path4294"
     inkscape:connector-curvature="0" />
  <path
     style="fill:#a6958b;fill-opacity:1;fill-rule:evenodd;stroke:#000000;stroke-width:0;stroke-linecap:butt;stroke-linejoin:miter;stroke-miterlimit:4;stroke-dasharray:none;stroke-opacity:1"
     d="m 69.914985,123.22899 14.21732,-15.12869 26.745935,-1.31097 -29.956755,31.49263 -0.55243,-2.9276 z"
     id="path4296"
     inkscape:connector-curvature="0"
     sodipodi:nodetypes="cccccc" />
  <path
     style="fill:#a6958b;fill-opacity:1;fill-rule:evenodd;stroke:#000000;stroke-width:0;stroke-linecap:butt;stroke-linejoin:miter;stroke-miterlimit:4;stroke-dasharray:none;stroke-opacity:1"
     d="m 81.563655,140.85061 30.598905,-32.80358 -1.03278,24.95854 -28.923965,28.39425 z"
     id="path4298"
     inkscape:connector-curvature="0"
     sodipodi:nodetypes="ccccc" />
  <path
     style="fill:#a6958b;fill-opacity:1;fill-rule:evenodd;stroke:#000000;stroke-width:0;stroke-linecap:butt;stroke-linejoin:miter;stroke-miterlimit:4;stroke-dasharray:none;stroke-opacity:1"
     d="m 82.205815,165.25279 29.175495,-29.81766 27.33483,2.20466 -25.04435,28.89733 -6.42163,-5.1373 -7.257275,8.79679 -0.44867,3.4043 -0.64217,17.98056 -16.05407,-14.76974 z"
     id="path4300"
     inkscape:connector-curvature="0"
     sodipodi:nodetypes="cccccccccc" />
  <path
     style="fill:#a6958b;fill-opacity:1;fill-rule:evenodd;stroke:#000000;stroke-width:0;stroke-linecap:butt;stroke-linejoin:miter;stroke-miterlimit:4;stroke-dasharray:none;stroke-opacity:1"
     d="m 116.24044,167.17928 23.11786,-26.32867 -0.64216,29.53949 -10.2746,10.2746 z"
     id="path4302"
     inkscape:connector-curvature="0" />
  <path
     style="fill:#a6958b;fill-opacity:1;fill-rule:evenodd;stroke:#000000;stroke-width:0;stroke-linecap:butt;stroke-linejoin:miter;stroke-miterlimit:4;stroke-dasharray:none;stroke-opacity:1"
     d="m 131.65235,182.59119 8.34812,-8.99028 27.613,0.64216 -22.4757,23.11787 z"
     id="path4304"
     inkscape:connector-curvature="0" />
  <path
     style="fill:#a6958b;fill-opacity:1;fill-rule:evenodd;stroke:#000000;stroke-width:0;stroke-linecap:butt;stroke-linejoin:miter;stroke-miterlimit:4;stroke-dasharray:none;stroke-opacity:1"
     d="m 147.70642,199.28743 20.54921,-21.83354 0,30.18165 -7.70595,6.42163 z"
     id="path4306"
     inkscape:connector-curvature="0" />
  <path
     style="fill:#a6958b;fill-opacity:1;fill-rule:evenodd;stroke:#000000;stroke-width:0;stroke-linecap:butt;stroke-linejoin:miter;stroke-miterlimit:4;stroke-dasharray:none;stroke-opacity:1"
     d="m 161.19184,215.98366 8.34812,-6.42163 22.4757,0.64216 -26.97084,27.61301 z"
     id="path4308"
     inkscape:connector-curvature="0" />
  <path
     style="fill:#a6958b;fill-opacity:1;fill-rule:evenodd;stroke:#000000;stroke-width:0;stroke-linecap:butt;stroke-linejoin:miter;stroke-miterlimit:4;stroke-dasharray:none;stroke-opacity:1"
     d="m 165.04482,241.02801 26.97084,-26.97084 0,24.40219 -19.26489,18.62272 -6.42163,-5.77946 z"
     id="path4310"
     inkscape:connector-curvature="0" />
  <path
     style="fill:#a6958b;fill-opacity:1;fill-rule:evenodd;stroke:#000000;stroke-width:0;stroke-linecap:butt;stroke-linejoin:miter;stroke-miterlimit:4;stroke-dasharray:none;stroke-opacity:1"
     d="m 174.67726,259.00857 17.98056,-17.98056 25.68651,0 -33.39246,30.18165 -8.99028,-9.63244 z"
     id="path4312"
     inkscape:connector-curvature="0" />
  <path
     style="fill:#a6958b;fill-opacity:1;fill-rule:evenodd;stroke:#000000;stroke-width:0;stroke-linecap:butt;stroke-linejoin:miter;stroke-miterlimit:4;stroke-dasharray:none;stroke-opacity:1"
     d="m 186.23619,273.13615 31.46598,-29.53949 0,28.25517 -1.92649,0.64216 -0.64216,-1.28433 -12.20109,3.21082 -11.55894,5.1373 z"
     id="path4314"
     inkscape:connector-curvature="0" />
  <path
     style="fill:#a6958b;fill-opacity:1;fill-rule:evenodd;stroke:#000000;stroke-width:0;stroke-linecap:butt;stroke-linejoin:miter;stroke-miterlimit:4;stroke-dasharray:none;stroke-opacity:1"
     d="m 218.34433,273.77832 28.25517,0 -14.12758,14.76974 z"
     id="path4316"
     inkscape:connector-curvature="0" />
  <path
     style="fill:#a6958b;fill-opacity:1;fill-rule:evenodd;stroke:#000000;stroke-width:0;stroke-linecap:butt;stroke-linejoin:miter;stroke-miterlimit:4;stroke-dasharray:none;stroke-opacity:1"
     d="m 234.39841,289.83239 12.84325,-13.48542 0,21.83353 -2.56865,2.56866 z"
     id="path4318"
     inkscape:connector-curvature="0" />
  <path
     style="fill:#a6958b;fill-opacity:1;fill-rule:evenodd;stroke:#000000;stroke-width:0;stroke-linecap:butt;stroke-linejoin:miter;stroke-miterlimit:4;stroke-dasharray:none;stroke-opacity:1"
     d="m 245.95734,302.03348 2.56865,-3.21081 25.68651,0 -17.3384,19.26488 0.64217,-6.42163 z"
     id="path4320"
     inkscape:connector-curvature="0" />
  <path
     style="fill:#a6958b;fill-opacity:1;fill-rule:evenodd;stroke:#000000;stroke-width:0;stroke-linecap:butt;stroke-linejoin:miter;stroke-miterlimit:4;stroke-dasharray:none;stroke-opacity:1"
     d="m 257.51627,321.29837 17.98056,-19.90705 -0.64217,26.97084 -11.55893,14.12758 -3.85297,-3.85298 z"
     id="path4322"
     inkscape:connector-curvature="0" />
  <path
     style="fill:#a6958b;fill-opacity:1;fill-rule:evenodd;stroke:#000000;stroke-width:0;stroke-linecap:butt;stroke-linejoin:miter;stroke-miterlimit:4;stroke-dasharray:none;stroke-opacity:1"
     d="m 265.22222,344.41623 10.91677,-12.84326 27.613,0 -8.99028,12.2011 -3.85297,-5.13731 -16.05408,5.13731 -3.85297,7.06379 z"
     id="path4324"
     inkscape:connector-curvature="0" />
  <path
     style="fill:#a6958b;fill-opacity:1;fill-rule:evenodd;stroke:#000000;stroke-width:0;stroke-linecap:butt;stroke-linejoin:miter;stroke-miterlimit:4;stroke-dasharray:none;stroke-opacity:1"
     d="m 296.04604,345.70055 8.99028,-10.91676 0,19.90704 -0.64216,1.92649 z"
     id="path4326"
     inkscape:connector-curvature="0" />
  <path
     style="fill:#a6958b;fill-opacity:1;fill-rule:evenodd;stroke:#000000;stroke-width:0;stroke-linecap:butt;stroke-linejoin:miter;stroke-miterlimit:4;stroke-dasharray:none;stroke-opacity:1"
     d="m 305.67848,357.90165 1.28433,-2.56865 24.40219,0 -14.12759,16.69623 z"
     id="path4328"
     inkscape:connector-curvature="0" />
  <path
     style="fill:#a6958b;fill-opacity:1;fill-rule:evenodd;stroke:#000000;stroke-width:0;stroke-linecap:butt;stroke-linejoin:miter;stroke-miterlimit:4;stroke-dasharray:none;stroke-opacity:1"
     d="m 319.1639,374.59788 13.48542,-16.69623 0,26.32868 -1.92649,1.28432 z"
     id="path4330"
     inkscape:connector-curvature="0" />
  <path
     style="fill:#a6958b;fill-opacity:1;fill-rule:evenodd;stroke:#000000;stroke-width:0;stroke-linecap:butt;stroke-linejoin:miter;stroke-miterlimit:4;stroke-dasharray:none;stroke-opacity:1"
     d="m 328.79634,390.00979 5.13731,-4.49514 25.68647,-0.64216 -26.32864,25.68651 -4.49514,-5.1373 0.64217,-13.48542 z"
     id="path4332"
     inkscape:connector-curvature="0" />
  <path
     style="fill:#a6958b;fill-opacity:1;fill-rule:evenodd;stroke:#000000;stroke-width:0;stroke-linecap:butt;stroke-linejoin:miter;stroke-miterlimit:4;stroke-dasharray:none;stroke-opacity:1"
     d="m 335.21797,411.84333 25.04435,-24.40219 -0.6422,28.25517 -11.5589,11.55893 z"
     id="path4334"
     inkscape:connector-curvature="0" />
  <path
     style="fill:#a6958b;fill-opacity:1;fill-rule:evenodd;stroke:#000000;stroke-width:0;stroke-linecap:butt;stroke-linejoin:miter;stroke-miterlimit:4;stroke-dasharray:none;stroke-opacity:1"
     d="m 350.62992,428.53956 10.9167,-12.20109 28.2552,0 -13.4854,15.41191 -7.706,-9.63245 z"
     id="path4336"
     inkscape:connector-curvature="0" />
  <path
     style="fill:#a6958b;fill-opacity:1;fill-rule:evenodd;stroke:#000000;stroke-width:0;stroke-linecap:butt;stroke-linejoin:miter;stroke-miterlimit:4;stroke-dasharray:none;stroke-opacity:1"
     d="m 378.24292,432.39254 12.2011,-13.48542 0.6421,25.04435 -2.5686,3.21081 z"
     id="path4338"
     inkscape:connector-curvature="0" />
  <path
     style="fill:#a6958b;fill-opacity:1;fill-rule:evenodd;stroke:#000000;stroke-width:0;stroke-linecap:butt;stroke-linejoin:miter;stroke-miterlimit:4;stroke-dasharray:none;stroke-opacity:1"
     d="m 389.15962,447.80445 2.5687,-1.92649 28.2551,0 -15.4119,18.62272 z"
     id="path4340"
     inkscape:connector-curvature="0"
     sodipodi:nodetypes="ccccc" />
  <path
     style="fill:#a6958b;fill-opacity:1;fill-rule:evenodd;stroke:#000000;stroke-width:0;stroke-linecap:butt;stroke-linejoin:miter;stroke-miterlimit:4;stroke-dasharray:none;stroke-opacity:1"
     d="m 402.45302,470.10219 18.1631,-19.97942 0.9082,33.60175 -4.5408,9.98971 -12.7142,-16.3468 z"
     id="path4342"
     inkscape:connector-curvature="0" />
  <path
     style="fill:#a6958b;fill-opacity:1;fill-rule:evenodd;stroke:#000000;stroke-width:0;stroke-linecap:butt;stroke-linejoin:miter;stroke-miterlimit:4;stroke-dasharray:none;stroke-opacity:1"
     d="m 420.61612,493.71423 3.6326,-8.1734 36.3262,0 -17.2549,19.97942 -15.4386,-15.43865 z"
     id="path4344"
     inkscape:connector-curvature="0" />
  <path
     style="fill:#a6958b;fill-opacity:1;fill-rule:evenodd;stroke:#000000;stroke-width:0;stroke-linecap:butt;stroke-linejoin:miter;stroke-miterlimit:4;stroke-dasharray:none;stroke-opacity:1"
     d="m 446.04452,508.24471 16.3468,-20.88757 1.8163,32.69359 -3.6327,3.63262 z"
     id="path4346"
     inkscape:connector-curvature="0" />
  <path
     style="fill:#9e8a7f;fill-opacity:1;fill-rule:evenodd;stroke:#000000;stroke-width:0;stroke-linecap:butt;stroke-linejoin:miter;stroke-miterlimit:4;stroke-dasharray:none;stroke-opacity:1"
     d="m 18.632145,34.894343 -0.89453,13.511719 36.85547,0.390625 3.85351,28.480469 28.25391,1.283203 0,25.687501 26.699215,0 -62.660155,-64.859376 z m 94.767575,69.353517 0.27148,0.28125 0,-0.28125 z m 0.27148,0.28125 -0.39063,28.47656 28.64649,2.06641 0.61523,35.06641 28.64649,1.67578 1.5625,33.89453 22.05859,1.67579 1.0586,30.43358 25.6875,0 0,32.10743 29.53906,0 0,24.40234 26.9707,1.2832 1.28321,32.10938 27.47461,0.78125 1.17188,23.89844 27.30859,0.61522 0.2773,29.14845 27.4746,0.27929 -0.2246,30.04297 30.2676,1.28321 1.8399,28.25586 28.3671,1.67383 2.4571,38.14062 39.5351,0.78125 1.5625,32.61133 0.6426,0 87.334,1.2832 15.4121,3.85352 c 0,0 -31.195,-17.33122 -30.5684,-18.56641 -4.9671,-0.13979 -41.483,-2.77073 -45.7988,-3.08203 l -0.051,-0.69141 z m 426.00972,397.27344 c 0.5764,0.0162 0.8307,0.007 0.3868,-0.0566 -0.2313,-0.033 -0.3528,-0.0103 -0.3868,0.0566 z"
     id="path4350"
     inkscape:connector-curvature="0"
     sodipodi:nodetypes="ccccccccccccccccccccccccccccccccccccccccccccccccc" />
  <path
     style="fill:#917c6f;fill-opacity:1;fill-rule:evenodd;stroke:#000000;stroke-width:0;stroke-linecap:butt;stroke-linejoin:miter;stroke-miterlimit:4;stroke-dasharray:none;stroke-opacity:1"
     d="m 503.46462,562.10943 1.2843,-23.11786 37.2455,0 7.7059,22.4757 z"
     id="path4354"
     inkscape:connector-curvature="0" />
  <path
     style="fill:#483e37;fill-opacity:1;fill-rule:evenodd;stroke:#000000;stroke-width:0;stroke-linecap:butt;stroke-linejoin:miter;stroke-miterlimit:4;stroke-dasharray:none;stroke-opacity:1"
     d="m 459.98764,548.21822 41.00018,2.7098 0.4542,-4.54078 -39.76359,-5.52229 -10.67516,2.47045"
     id="path4356"
     inkscape:connector-curvature="0"
     sodipodi:nodetypes="ccccc" />
  <path
     style="fill:#6c5d53;fill-opacity:1;fill-rule:evenodd;stroke:#000000;stroke-width:0;stroke-linecap:butt;stroke-linejoin:miter;stroke-miterlimit:4;stroke-dasharray:none;stroke-opacity:1"
     d="m 505.07462,537.75976 2.7244,-4.0867 33.6017,-0.90816 0,4.54079 z"
     id="path4358"
     inkscape:connector-curvature="0"
     sodipodi:nodetypes="ccccc" />
  <path
     style="fill:#483e37;fill-opacity:1;fill-rule:evenodd;stroke:#000000;stroke-width:0;stroke-linecap:butt;stroke-linejoin:miter;stroke-miterlimit:4;stroke-dasharray:none;stroke-opacity:1"
     d="m 543.21712,538.66792 0,-3.17855 7.2652,13.16826 -3.6326,1.36223 z"
     id="path4360"
     inkscape:connector-curvature="0" />
  <path
     style="fill:#917c6f;fill-opacity:1;fill-rule:evenodd;stroke:#000000;stroke-width:0;stroke-linecap:butt;stroke-linejoin:miter;stroke-miterlimit:4;stroke-dasharray:none;stroke-opacity:1"
     d="m 458.83822,589.57281 115.1194,2.34911 -11.9078,42.12115 -27.7553,2.09252 -17.2172,-20.96709 -17.6107,-5.01369 -0.5524,27.24466 -25.6627,-4.46126 z"
     id="path4368"
     inkscape:connector-curvature="0"
     sodipodi:nodetypes="ccccccccc" />
  <path
     style="fill:#917c6f;fill-opacity:1;fill-rule:evenodd;stroke:#000000;stroke-width:1;stroke-linecap:butt;stroke-linejoin:miter;stroke-miterlimit:4;stroke-dasharray:none;stroke-opacity:1"
     d="M 19.211445,32.371276 26.476685,6.0347698 55.537665,9.0130472 84.598635,41.45283 74.608925,62.340405 51.905045,35.095743 Z"
     id="path4372"
     inkscape:connector-curvature="0"
     sodipodi:nodetypes="ccccccc" />
  <path
     style="fill:#917c6f;fill-opacity:1;fill-rule:evenodd;stroke:#000000;stroke-width:0;stroke-linecap:butt;stroke-linejoin:miter;stroke-miterlimit:4;stroke-dasharray:none;stroke-opacity:1"
     d="m 77.333395,64.156716 4.54077,-11.806021 24.520195,23.612041 -7.265235,9.081554 z"
     id="path4374"
     inkscape:connector-curvature="0" />
  <path
     style="fill:#917c6f;fill-opacity:1;fill-rule:evenodd;stroke:#000000;stroke-width:0;stroke-linecap:butt;stroke-linejoin:miter;stroke-miterlimit:4;stroke-dasharray:none;stroke-opacity:1"
     d="m 102.76174,89.585067 13.62233,-18.163108 29.96913,31.785441 -7.26525,23.61204 z"
     id="path4376"
     inkscape:connector-curvature="0" />
  <path
     style="fill:#917c6f;fill-opacity:1;fill-rule:evenodd;stroke:#000000;stroke-width:0;stroke-linecap:butt;stroke-linejoin:miter;stroke-miterlimit:4;stroke-dasharray:none;stroke-opacity:1"
     d="m 142.72058,131.36022 1.81631,-13.62233 27.24466,27.24466 -11.80602,6.35709 z"
     id="path4378"
     inkscape:connector-curvature="0" />
  <path
     style="fill:#917c6f;fill-opacity:1;fill-rule:evenodd;stroke:#000000;stroke-width:0;stroke-linecap:butt;stroke-linejoin:miter;stroke-miterlimit:4;stroke-dasharray:none;stroke-opacity:1"
     d="m 163.60815,152.40361 21.79573,-11.96184 28.15282,29.06098 -8.70538,27.13448 z"
     id="path4380"
     inkscape:connector-curvature="0"
     sodipodi:nodetypes="ccccc" />
  <path
     style="fill:#917c6f;fill-opacity:1;fill-rule:evenodd;stroke:#000000;stroke-width:0;stroke-linecap:butt;stroke-linejoin:miter;stroke-miterlimit:4;stroke-dasharray:none;stroke-opacity:1"
     d="m 208.48394,198.34336 3.25645,-10.67751 28.15282,25.42836 -9.08156,9.9897 z"
     id="path4382"
     inkscape:connector-curvature="0"
     sodipodi:nodetypes="ccccc" />
  <path
     style="fill:#917c6f;fill-opacity:1;fill-rule:evenodd;stroke:#000000;stroke-width:0;stroke-linecap:butt;stroke-linejoin:miter;stroke-miterlimit:4;stroke-dasharray:none;stroke-opacity:1"
     d="m 234.17828,225.05603 14.53048,-17.25495 31.78544,31.78544 -10.89786,22.70388 z"
     id="path4384"
     inkscape:connector-curvature="0" />
  <path
     style="fill:#917c6f;fill-opacity:1;fill-rule:evenodd;stroke:#000000;stroke-width:0;stroke-linecap:butt;stroke-linejoin:miter;stroke-miterlimit:4;stroke-dasharray:none;stroke-opacity:1"
     d="m 273.49496,267.58353 4.54077,-13.62233 20.88758,20.88757 -9.08156,10.89787 z"
     id="path4386"
     inkscape:connector-curvature="0" />
  <path
     style="fill:#917c6f;fill-opacity:1;fill-rule:evenodd;stroke:#000000;stroke-width:0;stroke-linecap:butt;stroke-linejoin:miter;stroke-miterlimit:4;stroke-dasharray:none;stroke-opacity:1"
     d="m 293.85055,286.81061 15.97062,-15.59446 28.15285,29.96913 -3.63265,29.06097 z"
     id="path4388"
     inkscape:connector-curvature="0"
     sodipodi:nodetypes="ccccc" />
  <path
     style="fill:#917c6f;fill-opacity:1;fill-rule:evenodd;stroke:#000000;stroke-width:0;stroke-linecap:butt;stroke-linejoin:miter;stroke-miterlimit:4;stroke-dasharray:none;stroke-opacity:1"
     d="m 337.97402,332.06256 0.9081,-13.62233 21.7958,21.79573 -5.449,11.80602 z"
     id="path4390"
     inkscape:connector-curvature="0" />
  <path
     style="fill:#917c6f;fill-opacity:1;fill-rule:evenodd;stroke:#000000;stroke-width:0;stroke-linecap:butt;stroke-linejoin:miter;stroke-miterlimit:4;stroke-dasharray:none;stroke-opacity:1"
     d="m 357.95342,354.76645 10.8979,-22.70389 35.418,34.50991 -7.2652,27.24466 z"
     id="path4392"
     inkscape:connector-curvature="0" />
  <path
     style="fill:#917c6f;fill-opacity:1;fill-rule:evenodd;stroke:#000000;stroke-width:0;stroke-linecap:butt;stroke-linejoin:miter;stroke-miterlimit:4;stroke-dasharray:none;stroke-opacity:1"
     d="m 399.72852,396.5416 3.6327,-14.53049 29.0609,24.5202 -14.6862,8.43939 z"
     id="path4394"
     inkscape:connector-curvature="0"
     sodipodi:nodetypes="ccccc" />
  <path
     style="fill:#917c6f;fill-opacity:1;fill-rule:evenodd;stroke:#000000;stroke-width:0;stroke-linecap:butt;stroke-linejoin:miter;stroke-miterlimit:4;stroke-dasharray:none;stroke-opacity:1"
     d="m 419.70802,416.52102 19.0712,-10.89787 29.9691,29.06097 -10.8978,23.61205 z"
     id="path4396"
     inkscape:connector-curvature="0" />
  <path
     style="fill:#917c6f;fill-opacity:1;fill-rule:evenodd;stroke:#000000;stroke-width:0;stroke-linecap:butt;stroke-linejoin:miter;stroke-miterlimit:4;stroke-dasharray:none;stroke-opacity:1"
     d="m 460.57492,460.11248 4.5408,-9.98971 22.7039,21.79573 0.9082,18.1631 z"
     id="path4398"
     inkscape:connector-curvature="0" />
  <path
     style="fill:#917c6f;fill-opacity:1;fill-rule:evenodd;stroke:#000000;stroke-width:0;stroke-linecap:butt;stroke-linejoin:miter;stroke-miterlimit:4;stroke-dasharray:none;stroke-opacity:1"
     d="m 492.25022,495.2189 0.1102,-31.4738 40.867,1.81631 9.0815,33.60175 z"
     id="path4400"
     inkscape:connector-curvature="0"
     sodipodi:nodetypes="ccccc" />
  <path
     style="fill:#917c6f;fill-opacity:1;fill-rule:evenodd;stroke:#000000;stroke-width:1;stroke-linecap:butt;stroke-linejoin:miter;stroke-miterlimit:4;stroke-dasharray:none;stroke-opacity:1"
     d="m 547.75792,501.88762 -4.5408,-12.71417 32.3174,16.34679 1.2843,16.3468 z"
     id="path4402"
     inkscape:connector-curvature="0"
     sodipodi:nodetypes="ccccc" />
  <path
     style="fill:#a6958b;fill-opacity:1;fill-rule:evenodd;stroke:#000000;stroke-width:1;stroke-linecap:butt;stroke-linejoin:miter;stroke-miterlimit:4;stroke-dasharray:none;stroke-opacity:1"
     d="m 573.85102,548.51157 10.5261,-21.72109 -30.1254,-9.26846 -85.1294,-0.78125 -7.3983,7.37156 -0.056,16.10734 39.0329,4.96863 5.3326,-13.26052 37.8876,-0.64216 8.0137,16.19316 z"
     id="path4404"
     inkscape:connector-curvature="0"
     sodipodi:nodetypes="ccccccccccc" />
  <path
     style="fill:#6c5d53;fill-opacity:1;fill-rule:evenodd;stroke:#000000;stroke-width:1;stroke-linecap:butt;stroke-linejoin:miter;stroke-miterlimit:4;stroke-dasharray:none;stroke-opacity:1"
     d="m 26.979815,5.8839553 3.21081,-5.34593351 32.10814,4.17405851 24.40219,28.8973277 -1.60541,6.421629 -29.21841,-31.4659796 z"
     id="path4408"
     inkscape:connector-curvature="0"
     sodipodi:nodetypes="ccccccc" />
  <path
     style="fill:#483e37;fill-opacity:1;fill-rule:evenodd;stroke:#000000;stroke-width:1;stroke-linecap:butt;stroke-linejoin:miter;stroke-miterlimit:4;stroke-dasharray:none;stroke-opacity:1"
     d="m 85.095545,42.599688 -2.24757,8.348117 6.10055,-3.210814 -2.13512,-11.194943 c 0.35725,-1.802848 -0.0299,2.747452 -1.71786,6.05764 z"
     id="path4410"
     inkscape:connector-curvature="0"
     sodipodi:nodetypes="ccccc" />
  <path
     style="fill:#483e37;fill-opacity:1;fill-rule:evenodd;stroke:#000000;stroke-width:1;stroke-linecap:butt;stroke-linejoin:miter;stroke-miterlimit:4;stroke-dasharray:none;stroke-opacity:1"
     d="m 84.132305,52.553212 6.10055,-2.889733 22.250785,21.721086 -5.55456,2.681103 z"
     id="path4412"
     inkscape:connector-curvature="0"
     sodipodi:nodetypes="ccccc" />
  <path
     style="fill:#6c5d53;fill-opacity:1;fill-rule:evenodd;stroke:#000000;stroke-width:1;stroke-linecap:butt;stroke-linejoin:miter;stroke-miterlimit:4;stroke-dasharray:none;stroke-opacity:1"
     d="m 107.43216,74.820281 2.38665,3.098364 8.65294,-8.374754 z"
     id="path4416"
     inkscape:connector-curvature="0"
     sodipodi:nodetypes="cccc" />
  <path
     style="fill:#6c5d53;fill-opacity:1;fill-rule:evenodd;stroke:#000000;stroke-width:1;stroke-linecap:butt;stroke-linejoin:miter;stroke-miterlimit:4;stroke-dasharray:none;stroke-opacity:1"
     d="m 117.20369,71.175935 2.10849,-2.24757 30.32073,29.539491 -2.88973,2.889734 z"
     id="path4418"
     inkscape:connector-curvature="0"
     sodipodi:nodetypes="ccccc" />
  <path
     style="fill:#483e37;fill-opacity:1;fill-rule:evenodd;stroke:#000000;stroke-width:1;stroke-linecap:butt;stroke-linejoin:miter;stroke-miterlimit:4;stroke-dasharray:none;stroke-opacity:1"
     d="m 147.06426,103.60516 2.42956,-3.670983 0.13909,13.945593 -4.17406,2.88973 z"
     id="path4420"
     inkscape:connector-curvature="0"
     sodipodi:nodetypes="ccccc" />
  <path
     style="fill:#483e37;fill-opacity:1;fill-rule:evenodd;stroke:#000000;stroke-width:1;stroke-linecap:butt;stroke-linejoin:miter;stroke-miterlimit:4;stroke-dasharray:none;stroke-opacity:1"
     d="m 146.74318,118.69599 5.1373,-3.21082 24.40219,24.08111 -3.85298,3.85298 z"
     id="path4422"
     inkscape:connector-curvature="0" />
  <path
     style="fill:#6c5d53;fill-opacity:1;fill-rule:evenodd;stroke:#000000;stroke-width:1;stroke-linecap:butt;stroke-linejoin:miter;stroke-miterlimit:4;stroke-dasharray:none;stroke-opacity:1"
     d="m 173.71402,143.41926 4.17406,-2.88973 14.97247,-3.90625 -16.57788,7.75922 -3.85298,-2.24757 z"
     id="path4424"
     inkscape:connector-curvature="0"
     sodipodi:nodetypes="cccccc" />
  <path
     style="fill:#6c5d53;fill-opacity:1;fill-rule:evenodd;stroke:#000000;stroke-width:1;stroke-linecap:butt;stroke-linejoin:miter;stroke-miterlimit:4;stroke-dasharray:none;stroke-opacity:1"
     d="m 186.23619,140.20844 6.10055,-3.21081 28.57625,33.39247 -6.74271,-1.28433 z"
     id="path4426"
     inkscape:connector-curvature="0"
     sodipodi:nodetypes="ccccc" />
  <path
     style="fill:#483e37;fill-opacity:1;fill-rule:evenodd;stroke:#000000;stroke-width:1;stroke-linecap:butt;stroke-linejoin:miter;stroke-miterlimit:4;stroke-dasharray:none;stroke-opacity:1"
     d="m 214.17028,169.72129 7.0638,1.28434 -1.28434,13.51205 -7.70595,1.92649 z"
     id="path4428"
     inkscape:connector-curvature="0"
     sodipodi:nodetypes="ccccc" />
  <path
     style="fill:#483e37;fill-opacity:1;fill-rule:evenodd;stroke:#000000;stroke-width:1;stroke-linecap:butt;stroke-linejoin:miter;stroke-miterlimit:4;stroke-dasharray:none;stroke-opacity:1"
     d="m 214.81244,187.72849 5.50129,-2.24757 25.00144,23.43895 -4.17405,3.53189 z"
     id="path4430"
     inkscape:connector-curvature="0"
     sodipodi:nodetypes="ccccc" />
  <path
     style="fill:#6c5d53;fill-opacity:1;fill-rule:evenodd;stroke:#000000;stroke-width:1;stroke-linecap:butt;stroke-linejoin:miter;stroke-miterlimit:4;stroke-dasharray:none;stroke-opacity:1"
     d="m 249.35015,206.46366 3.5748,-3.02882 34.13081,35.02452 -5.77947,0.96324 z"
     id="path4432"
     inkscape:connector-curvature="0"
     sodipodi:nodetypes="ccccc" />
  <path
     style="fill:#483e37;fill-opacity:1;fill-rule:evenodd;stroke:#000000;stroke-width:1;stroke-linecap:butt;stroke-linejoin:miter;stroke-miterlimit:4;stroke-dasharray:none;stroke-opacity:1"
     d="m 278.70764,251.94478 2.56865,-10.91677 5.57083,-2.13512 -1.07569,10.80432 z"
     id="path4434"
     inkscape:connector-curvature="0"
     sodipodi:nodetypes="ccccc" />
  <path
     style="fill:#483e37;fill-opacity:1;fill-rule:evenodd;stroke:#000000;stroke-width:1;stroke-linecap:butt;stroke-linejoin:miter;stroke-miterlimit:4;stroke-dasharray:none;stroke-opacity:1"
     d="m 279.99197,253.87127 7.06379,-2.56865 19.90705,19.58596 -6.42163,4.49514 z"
     id="path4436"
     inkscape:connector-curvature="0" />
  <path
     style="fill:#6c5d53;fill-opacity:1;fill-rule:evenodd;stroke:#000000;stroke-width:1;stroke-linecap:butt;stroke-linejoin:miter;stroke-miterlimit:4;stroke-dasharray:none;stroke-opacity:1"
     d="m 310.81578,270.5675 6.42163,-2.56865 29.93011,33.34956 -7.4544,0.182 z"
     id="path4438"
     inkscape:connector-curvature="0"
     sodipodi:nodetypes="ccccc" />
  <path
     style="fill:#483e37;fill-opacity:1;fill-rule:evenodd;stroke:#000000;stroke-width:1;stroke-linecap:butt;stroke-linejoin:miter;stroke-miterlimit:4;stroke-dasharray:none;stroke-opacity:1"
     d="m 339.07092,302.67564 8.2786,-0.8937 0.069,13.73696 -8.9902,1.60541 z"
     id="path4440"
     inkscape:connector-curvature="0"
     sodipodi:nodetypes="ccccc" />
  <path
     style="fill:#483e37;fill-opacity:1;fill-rule:evenodd;stroke:#000000;stroke-width:1;stroke-linecap:butt;stroke-linejoin:miter;stroke-miterlimit:4;stroke-dasharray:none;stroke-opacity:1"
     d="m 341.31852,318.08755 6.8551,-1.28432 17.5471,16.37515 -3.5319,5.77946 z"
     id="path4442"
     inkscape:connector-curvature="0"
     sodipodi:nodetypes="ccccc" />
  <path
     style="fill:#6c5d53;fill-opacity:1;fill-rule:evenodd;stroke:#000000;stroke-width:1;stroke-linecap:butt;stroke-linejoin:miter;stroke-miterlimit:4;stroke-dasharray:none;stroke-opacity:1"
     d="m 369.25262,331.25189 5.1373,-2.56865 38.2087,35.31896 -7.3849,2.24757 z"
     id="path4444"
     inkscape:connector-curvature="0" />
  <path
     style="fill:#483e37;fill-opacity:1;fill-rule:evenodd;stroke:#000000;stroke-width:1;stroke-linecap:butt;stroke-linejoin:miter;stroke-miterlimit:4;stroke-dasharray:none;stroke-opacity:1"
     d="m 405.21372,365.8325 7.1762,-1.7874 0.5298,14.72684 -8.9903,2.24757 z"
     id="path4446"
     inkscape:connector-curvature="0"
     sodipodi:nodetypes="ccccc" />
  <path
     style="fill:#483e37;fill-opacity:1;fill-rule:evenodd;stroke:#000000;stroke-width:1;stroke-linecap:butt;stroke-linejoin:miter;stroke-miterlimit:4;stroke-dasharray:none;stroke-opacity:1"
     d="m 406.17692,382.30384 8.0271,-1.60541 22.7968,22.4757 -3.5319,2.24757 z"
     id="path4448"
     inkscape:connector-curvature="0" />
  <path
     style="fill:#6c5d53;fill-opacity:1;fill-rule:evenodd;stroke:#000000;stroke-width:1;stroke-linecap:butt;stroke-linejoin:miter;stroke-miterlimit:4;stroke-dasharray:none;stroke-opacity:1"
     d="m 439.89052,404.13737 31.7871,31.46598 6.6998,2.27421 -32.3864,-36.30884 z"
     id="path4450"
     inkscape:connector-curvature="0"
     sodipodi:nodetypes="ccccc" />
  <path
     style="fill:#483e37;fill-opacity:1;fill-rule:evenodd;stroke:#000000;stroke-width:1;stroke-linecap:butt;stroke-linejoin:miter;stroke-miterlimit:4;stroke-dasharray:none;stroke-opacity:1"
     d="m 466.21922,448.76769 4.4951,-11.55893 7.3153,1.28433 -3.4623,9.63244 z"
     id="path4452"
     inkscape:connector-curvature="0"
     sodipodi:nodetypes="ccccc" />
  <path
     style="fill:#483e37;fill-opacity:1;fill-rule:evenodd;stroke:#000000;stroke-width:1;stroke-linecap:butt;stroke-linejoin:miter;stroke-miterlimit:4;stroke-dasharray:none;stroke-opacity:1"
     d="m 467.50352,451.33634 8.027,-1.6054 15.4119,14.44866 -2.2475,5.45838 z"
     id="path4454"
     inkscape:connector-curvature="0" />
  <path
     style="fill:#6c5d53;fill-opacity:1;fill-rule:evenodd;stroke:#000000;stroke-width:1;stroke-linecap:butt;stroke-linejoin:miter;stroke-miterlimit:4;stroke-dasharray:none;stroke-opacity:1"
     d="m 492.86892,462.89527 0.6422,-4.81622 37.8876,1.28433 0.9632,5.1373 -38.2086,-1.60541 z"
     id="path4456"
     inkscape:connector-curvature="0" />
  <path
     style="fill:#483e37;fill-opacity:1;fill-rule:evenodd;stroke:#000000;stroke-width:1;stroke-linecap:butt;stroke-linejoin:miter;stroke-miterlimit:4;stroke-dasharray:none;stroke-opacity:1"
     d="m 533.96742,465.14284 11.88,19.90705 -4.4952,3.21082 z"
     id="path4458"
     inkscape:connector-curvature="0" />
  <path
     style="fill:#483e37;fill-opacity:1;fill-rule:evenodd;stroke:#000000;stroke-width:1;stroke-linecap:butt;stroke-linejoin:miter;stroke-miterlimit:4;stroke-dasharray:none;stroke-opacity:1"
     d="m 545.20522,487.93963 3.5319,-2.24757 28.2552,14.12758 -1.9265,4.49514 z"
     id="path4460"
     inkscape:connector-curvature="0" />
  <path
     style="fill:#917c6f;fill-opacity:1;fill-rule:evenodd;stroke:#000000;stroke-width:1;stroke-linecap:butt;stroke-linejoin:miter;stroke-miterlimit:4;stroke-dasharray:none;stroke-opacity:1"
     d="m 548.09492,552.47699 25.3655,0.96325 -0.9633,8.66919 -21.5124,-0.64216 z"
     id="path4462"
     inkscape:connector-curvature="0" />
  <path
     style="fill:#483e37;fill-opacity:1;fill-rule:evenodd;stroke:#000000;stroke-width:1;stroke-linecap:butt;stroke-linejoin:miter;stroke-miterlimit:4;stroke-dasharray:none;stroke-opacity:1"
     d="m 548.41602,551.19267 3.853,-2.56866 22.1546,0.64217 -1.6054,2.88973 z"
     id="path4464"
     inkscape:connector-curvature="0" />
</svg>
