<?xml version="1.0" encoding="UTF-8" standalone="no"?>
<!-- Created with Inkscape (http://www.inkscape.org/) -->

<svg
   xmlns:dc="http://purl.org/dc/elements/1.1/"
   xmlns:cc="http://creativecommons.org/ns#"
   xmlns:rdf="http://www.w3.org/1999/02/22-rdf-syntax-ns#"
   xmlns:svg="http://www.w3.org/2000/svg"
   xmlns="http://www.w3.org/2000/svg"
   xmlns:sodipodi="http://sodipodi.sourceforge.net/DTD/sodipodi-0.dtd"
   xmlns:inkscape="http://www.inkscape.org/namespaces/inkscape"
   width="159.82141mm"
   height="48.639133mm"
   viewBox="0 0 566.29634 172.34339"
   id="svg2"
   version="1.1"
   inkscape:version="0.91 r13725"
   inkscape:export-filename="C:\Users\Achille\Desktop\bitmap.png"
   inkscape:export-xdpi="599"
   inkscape:export-ydpi="599"
   sodipodi:docname="Icone Son None.svg">
  <defs
     id="defs4" />
  <sodipodi:namedview
     id="base"
     pagecolor="#ffffff"
     bordercolor="#666666"
     borderopacity="1.0"
     inkscape:pageopacity="0.0"
     inkscape:pageshadow="2"
     inkscape:zoom="1.4"
     inkscape:cx="185.02643"
     inkscape:cy="47.058419"
     inkscape:document-units="px"
     inkscape:current-layer="layer1"
     showgrid="false"
     showguides="false"
     fit-margin-top="0"
     fit-margin-left="0"
     fit-margin-right="0"
     fit-margin-bottom="0"
     inkscape:window-width="1920"
     inkscape:window-height="1017"
     inkscape:window-x="1912"
     inkscape:window-y="-8"
     inkscape:window-maximized="1" />
  <metadata
     id="metadata7">
    <rdf:RDF>
      <cc:Work
         rdf:about="">
        <dc:format>image/svg+xml</dc:format>
        <dc:type
           rdf:resource="http://purl.org/dc/dcmitype/StillImage" />
        <dc:title />
      </cc:Work>
    </rdf:RDF>
  </metadata>
  <g
     inkscape:label="Calque 1"
     inkscape:groupmode="layer"
     id="layer1"
     transform="translate(-119.07781,-309.42519)">
    <g
       id="g4167"
       inkscape:export-filename="D:\Programation\JAVA\TheEndlessCastle\core\assets\textures\buttons\Sound0Over.png"
       inkscape:export-xdpi="172.01152"
       inkscape:export-ydpi="172.01152">
      <path
         sodipodi:nodetypes="cccccccccc"
         inkscape:connector-curvature="0"
         id="path4136-9-5-1"
         d="m 488.21827,450.32167 -2.12701,-99.56339 c -1.0603,-25.73295 -12.4497,-39.94669 -26.94197,-40.82817 l -113.43993,0 c -26.32793,-0.33375 -39.73317,13.02086 -39.70397,41.54444 l 0,98.84712 m 182.21288,0 c -1.25922,13.97812 -3.65482,27.12363 -26.233,28.65133 l -129.7469,-0.71628 c -20.00745,-1.50767 -26.27001,-14.31483 -26.23298,-27.93505"
         style="fill:#ff4300;fill-opacity:1;fill-rule:evenodd;stroke:#000000;stroke-width:0.99768502px;stroke-linecap:butt;stroke-linejoin:miter;stroke-opacity:1" />
      <path
         sodipodi:nodetypes="cccccccccc"
         inkscape:connector-curvature="0"
         id="path4136-8-7"
         d="m 485.55056,448.80447 -2.07646,-97.19759 c -1.03511,-25.12149 -12.15388,-38.99748 -26.30179,-39.85802 l -110.74439,0 c -25.70234,-0.32582 -38.78904,12.71146 -38.76054,40.55727 l 0,96.49834 m 177.88318,0 c -1.22929,13.64598 -3.56797,26.47913 -25.60965,27.97053 l -126.66389,-0.69926 c -19.53204,-1.47185 -25.64579,-13.97469 -25.60964,-27.27127"
         style="fill:#351f1f;fill-opacity:0.54696129;fill-rule:evenodd;stroke:#000000;stroke-width:0.97397828px;stroke-linecap:butt;stroke-linejoin:miter;stroke-opacity:1" />
      <path
         inkscape:connector-curvature="0"
         id="path4163-8-8"
         d="m 394.86423,325.58125 69.28571,131.42857"
         style="fill:none;fill-rule:evenodd;stroke:#ffffff;stroke-width:2;stroke-linecap:butt;stroke-linejoin:miter;stroke-miterlimit:4;stroke-dasharray:none;stroke-opacity:1" />
      <path
         inkscape:connector-curvature="0"
         id="path4167-1-0"
         d="M 415.72644,458.96514 451.44072,316.82229"
         style="fill:none;fill-rule:evenodd;stroke:#ffffff;stroke-width:2;stroke-linecap:butt;stroke-linejoin:miter;stroke-miterlimit:4;stroke-dasharray:none;stroke-opacity:1" />
      <path
         sodipodi:nodetypes="cccccc"
         inkscape:connector-curvature="0"
         id="path4140-5-6"
         d="m 332.6804,363.69566 6.77077,55.1334 3.22923,26.29516 10,-1.42857 -12.14285,-82.14285 z"
         style="fill:#ffffff;fill-opacity:1;fill-rule:evenodd;stroke:#000000;stroke-width:1px;stroke-linecap:butt;stroke-linejoin:miter;stroke-opacity:1" />
      <path
         inkscape:connector-curvature="0"
         id="path4142-0-3"
         d="m 340.53904,361.57528 39.64849,-35.60788 21.2132,139.40105 -48.23478,-21.71828 z"
         style="opacity:1;fill:#ffffff;fill-opacity:1;fill-rule:evenodd;stroke:#000000;stroke-width:1px;stroke-linecap:butt;stroke-linejoin:miter;stroke-opacity:1" />
      <path
         inkscape:connector-curvature="0"
         id="path4163-8"
         d="m 396.70988,325.90051 69.28571,131.42857"
         style="fill:none;fill-rule:evenodd;stroke:#000000;stroke-width:1px;stroke-linecap:butt;stroke-linejoin:miter;stroke-opacity:1" />
      <path
         inkscape:connector-curvature="0"
         id="path4167-1"
         d="M 416.70988,460.9005 452.42416,318.75765"
         style="fill:none;fill-rule:evenodd;stroke:#000000;stroke-width:1px;stroke-linecap:butt;stroke-linejoin:miter;stroke-opacity:1" />
    </g>
    <g
       id="g4177"
       inkscape:export-filename="D:\Programation\JAVA\TheEndlessCastle\core\assets\textures\buttons\Sound0Pressed.png"
       inkscape:export-xdpi="172.01152"
       inkscape:export-ydpi="172.01152">
      <path
         sodipodi:nodetypes="cccccccccc"
         inkscape:connector-curvature="0"
         id="path4136-9-5-1-1"
         d="m 684.87541,452.6183 -2.12701,-99.56339 c -1.0603,-25.73295 -12.4497,-39.94669 -26.94197,-40.82817 l -113.43993,0 c -26.32793,-0.33375 -39.73317,13.02086 -39.70397,41.54444 l 0,98.84712 m 182.21288,0 c -1.25922,13.97812 -3.65482,27.12363 -26.233,28.65133 l -129.7469,-0.71628 C 508.88806,479.04568 502.6255,466.23852 502.66253,452.6183"
         style="fill:#c00000;fill-opacity:1;fill-rule:evenodd;stroke:#000000;stroke-width:0.99768502px;stroke-linecap:butt;stroke-linejoin:miter;stroke-opacity:1" />
      <path
         sodipodi:nodetypes="cccccccccc"
         inkscape:connector-curvature="0"
         id="path4136-8-7-0"
         d="m 682.2077,451.1011 -2.07646,-97.19759 c -1.03511,-25.12149 -12.15388,-38.99748 -26.30179,-39.85802 l -110.74439,0 c -25.70234,-0.32582 -38.78904,12.71146 -38.76054,40.55727 l 0,96.49834 m 177.88318,0 c -1.22929,13.64598 -3.56797,26.47913 -25.60965,27.97053 l -126.66389,-0.69926 c -19.53204,-1.47185 -25.64579,-13.97469 -25.60964,-27.27127"
         style="fill:#741111;fill-opacity:1;fill-rule:evenodd;stroke:#000000;stroke-width:0.97397828px;stroke-linecap:butt;stroke-linejoin:miter;stroke-opacity:1" />
      <path
         inkscape:connector-curvature="0"
         id="path4163-8-8-2"
         d="m 591.52137,327.87788 69.28571,131.42857"
         style="fill:none;fill-rule:evenodd;stroke:#eadbdb;stroke-width:2;stroke-linecap:butt;stroke-linejoin:miter;stroke-miterlimit:4;stroke-dasharray:none;stroke-opacity:1" />
      <path
         inkscape:connector-curvature="0"
         id="path4167-1-0-7"
         d="M 612.38358,461.26177 648.09786,319.11892"
         style="fill:none;fill-rule:evenodd;stroke:#eadbdb;stroke-width:2;stroke-linecap:butt;stroke-linejoin:miter;stroke-miterlimit:4;stroke-dasharray:none;stroke-opacity:1" />
      <path
         sodipodi:nodetypes="cccccc"
         inkscape:connector-curvature="0"
         id="path4140-5-6-6"
         d="m 529.33754,365.99229 6.77077,55.1334 3.22923,26.29516 10,-1.42857 -12.14285,-82.14285 z"
         style="fill:#eadbdb;fill-opacity:1;fill-rule:evenodd;stroke:#000000;stroke-width:1px;stroke-linecap:butt;stroke-linejoin:miter;stroke-opacity:1" />
      <path
         inkscape:connector-curvature="0"
         id="path4142-0-3-1"
         d="m 537.19618,363.87191 39.64849,-35.60788 21.2132,139.40105 -48.23478,-21.71828 z"
         style="opacity:1;fill:#eadbdb;fill-opacity:1;fill-rule:evenodd;stroke:#000000;stroke-width:1px;stroke-linecap:butt;stroke-linejoin:miter;stroke-opacity:1" />
      <path
         inkscape:connector-curvature="0"
         id="path4163-8-4"
         d="m 593.36702,328.19714 69.28571,131.42857"
         style="fill:none;fill-rule:evenodd;stroke:#000000;stroke-width:1px;stroke-linecap:butt;stroke-linejoin:miter;stroke-opacity:1" />
      <path
         inkscape:connector-curvature="0"
         id="path4167-1-07"
         d="M 613.36702,463.19713 649.0813,321.05428"
         style="fill:none;fill-rule:evenodd;stroke:#000000;stroke-width:1px;stroke-linecap:butt;stroke-linejoin:miter;stroke-opacity:1" />
    </g>
    <g
       id="g4157"
       inkscape:export-filename="D:\Programation\JAVA\TheEndlessCastle\core\assets\textures\buttons\Sound0Normal.png"
       inkscape:export-xdpi="172.01152"
       inkscape:export-ydpi="172.01152">
      <path
         sodipodi:nodetypes="cccccccccc"
         inkscape:connector-curvature="0"
         id="path4136-9-5-1-9"
         d="m 301.78969,452.46452 -2.12701,-99.56339 c -1.0603,-25.73295 -12.4497,-39.94669 -26.94197,-40.82817 l -113.43992,0 c -26.32793,-0.33375 -39.73317,13.02086 -39.70397,41.54444 l 0,98.84712 m 182.21287,0 c -1.25922,13.97812 -3.65482,27.12363 -26.233,28.65133 L 145.8098,480.39957 c -20.00745,-1.50767 -26.27001,-14.31483 -26.23298,-27.93505"
         style="opacity:0.4;fill:#ff0000;fill-opacity:1;fill-rule:evenodd;stroke:#000000;stroke-width:0.99768502px;stroke-linecap:butt;stroke-linejoin:miter;stroke-opacity:1" />
      <path
         sodipodi:nodetypes="cccccccccc"
         inkscape:connector-curvature="0"
         id="path4136-8-7-2"
         d="m 299.12198,450.94732 -2.07646,-97.19759 c -1.03511,-25.12149 -12.15388,-38.99748 -26.30179,-39.85802 l -110.74438,0 c -25.70234,-0.32582 -38.78904,12.71146 -38.76054,40.55727 l 0,96.49834 m 177.88317,0 c -1.22929,13.64598 -3.56797,26.47913 -25.60965,27.97053 l -126.66388,-0.69926 c -19.53204,-1.47185 -25.64579,-13.97469 -25.60964,-27.27127"
         style="opacity:0.4;fill:#901111;fill-opacity:1;fill-rule:evenodd;stroke:#000000;stroke-width:0.97397828px;stroke-linecap:butt;stroke-linejoin:miter;stroke-opacity:1" />
      <path
         inkscape:connector-curvature="0"
         id="path4163-8-8-4"
         d="m 208.43565,327.7241 69.28571,131.42857"
         style="opacity:0.4;fill:none;fill-rule:evenodd;stroke:#ffffff;stroke-width:2;stroke-linecap:butt;stroke-linejoin:miter;stroke-miterlimit:4;stroke-dasharray:none;stroke-opacity:1" />
      <path
         inkscape:connector-curvature="0"
         id="path4167-1-0-4"
         d="M 229.29786,461.10799 265.01214,318.96514"
         style="opacity:0.4;fill:none;fill-rule:evenodd;stroke:#ffffff;stroke-width:2;stroke-linecap:butt;stroke-linejoin:miter;stroke-miterlimit:4;stroke-dasharray:none;stroke-opacity:1" />
      <path
         sodipodi:nodetypes="cccccc"
         inkscape:connector-curvature="0"
         id="path4140-5-6-7"
         d="m 146.25183,365.83851 6.77077,55.1334 3.22923,26.29516 10,-1.42857 -12.14285,-82.14285 z"
         style="opacity:0.4;fill:#ffffff;fill-opacity:1;fill-rule:evenodd;stroke:#000000;stroke-width:1px;stroke-linecap:butt;stroke-linejoin:miter;stroke-opacity:1" />
      <path
         inkscape:connector-curvature="0"
         id="path4142-0-3-2"
         d="m 154.11047,363.71813 39.64848,-35.60788 21.2132,139.40105 -48.23477,-21.71828 z"
         style="opacity:0.4;fill:#ffffff;fill-opacity:1;fill-rule:evenodd;stroke:#000000;stroke-width:1px;stroke-linecap:butt;stroke-linejoin:miter;stroke-opacity:1" />
      <path
         inkscape:connector-curvature="0"
         id="path4163-8-7"
         d="m 210.2813,328.04336 69.28571,131.42857"
         style="opacity:0.4;fill:none;fill-rule:evenodd;stroke:#000000;stroke-width:1px;stroke-linecap:butt;stroke-linejoin:miter;stroke-opacity:1" />
      <path
         inkscape:connector-curvature="0"
         id="path4167-1-2"
         d="M 230.2813,463.04335 265.99558,320.9005"
         style="opacity:0.4;fill:none;fill-rule:evenodd;stroke:#000000;stroke-width:1px;stroke-linecap:butt;stroke-linejoin:miter;stroke-opacity:1" />
    </g>
  </g>
</svg>
