<?xml version="1.0" encoding="UTF-8" standalone="no"?>
<!-- Created with Inkscape (http://www.inkscape.org/) -->

<svg
   xmlns:dc="http://purl.org/dc/elements/1.1/"
   xmlns:cc="http://creativecommons.org/ns#"
   xmlns:rdf="http://www.w3.org/1999/02/22-rdf-syntax-ns#"
   xmlns:svg="http://www.w3.org/2000/svg"
   xmlns="http://www.w3.org/2000/svg"
   xmlns:sodipodi="http://sodipodi.sourceforge.net/DTD/sodipodi-0.dtd"
   xmlns:inkscape="http://www.inkscape.org/namespaces/inkscape"
   width="158.54738mm"
   height="48.394146mm"
   viewBox="0 0 561.78205 171.47532"
   id="svg2"
   version="1.1"
   inkscape:version="0.91 r13725"
   inkscape:export-filename="C:\Users\Achille\Desktop\bitmap.png"
   inkscape:export-xdpi="599"
   inkscape:export-ydpi="599"
   sodipodi:docname="Icone Replay.svg">
  <defs
     id="defs4" />
  <sodipodi:namedview
     id="base"
     pagecolor="#ffffff"
     bordercolor="#666666"
     borderopacity="1.0"
     inkscape:pageopacity="0.0"
     inkscape:pageshadow="2"
     inkscape:zoom="1.4"
     inkscape:cx="289.83767"
     inkscape:cy="20.494355"
     inkscape:document-units="px"
     inkscape:current-layer="layer1"
     showgrid="false"
     showguides="false"
     fit-margin-top="0"
     fit-margin-left="0"
     fit-margin-right="0"
     fit-margin-bottom="0"
     inkscape:window-width="1536"
     inkscape:window-height="803"
     inkscape:window-x="-8"
     inkscape:window-y="-8"
     inkscape:window-maximized="1" />
  <metadata
     id="metadata7">
    <rdf:RDF>
      <cc:Work
         rdf:about="">
        <dc:format>image/svg+xml</dc:format>
        <dc:type
           rdf:resource="http://purl.org/dc/dcmitype/StillImage" />
        <dc:title></dc:title>
      </cc:Work>
    </rdf:RDF>
  </metadata>
  <g
     inkscape:label="Calque 1"
     inkscape:groupmode="layer"
     id="layer1"
     transform="translate(-126.04392,-483.01999)">
    <path
       style="fill:#ff4300;fill-opacity:1;fill-rule:evenodd;stroke:#000000;stroke-width:0.99768502px;stroke-linecap:butt;stroke-linejoin:miter;stroke-opacity:1"
       d="m 496.7897,625.32166 -2.12701,-99.56339 c -1.0603,-25.73295 -12.4497,-39.94669 -26.94197,-40.82817 l -113.43993,0 c -26.32793,-0.33375 -39.73317,13.02086 -39.70397,41.54444 l 0,98.84712 m 182.21288,0 c -1.25922,13.97812 -3.65482,27.12363 -26.233,28.65133 l -129.7469,-0.71628 c -20.00745,-1.50767 -26.27001,-14.31483 -26.23298,-27.93505"
       id="path4136-9-5-1"
       inkscape:connector-curvature="0"
       sodipodi:nodetypes="cccccccccc" />
    <path
       style="fill:#351f1f;fill-opacity:0.54696129;fill-rule:evenodd;stroke:#000000;stroke-width:0.97397828px;stroke-linecap:butt;stroke-linejoin:miter;stroke-opacity:1"
       d="m 494.12199,623.80446 -2.07646,-97.19759 c -1.03511,-25.12149 -12.15388,-38.99748 -26.30179,-39.85802 l -110.74439,0 c -25.70234,-0.32582 -38.78904,12.71146 -38.76054,40.55727 l 0,96.49834 m 177.88318,0 c -1.22929,13.64598 -3.56797,26.47913 -25.60965,27.97053 l -126.66389,-0.69926 c -19.53204,-1.47185 -25.64579,-13.97469 -25.60964,-27.27127"
       id="path4136-8-4"
       inkscape:connector-curvature="0"
       sodipodi:nodetypes="cccccccccc" />
    <path
       style="opacity:1;fill:#ffffff;fill-opacity:1;stroke:#000000;stroke-width:1;stroke-linecap:butt;stroke-linejoin:miter;stroke-miterlimit:4;stroke-dasharray:none;stroke-dashoffset:0;stroke-opacity:1"
       d="m 403.68813,510.03061 a 58.337028,55.916186 0 0 0 -58.33748,55.91607 58.337028,55.916186 0 0 0 58.33748,55.91606 58.337028,55.916186 0 0 0 11.89652,-1.24181 l 3.87107,14.42385 21.21941,-36.04439 -36.09205,-19.3792 5.34192,19.90743 a 37.492768,34.345679 0 0 1 -6.23687,0.52162 37.492768,34.345679 0 0 1 -37.49274,-34.34451 37.492768,34.345679 0 0 1 37.49274,-34.34584 37.492768,34.345679 0 0 1 37.20676,30.47079 l 20.91491,0 a 58.337028,55.916186 0 0 0 -58.12167,-51.80007 z"
       id="path4145"
       inkscape:connector-curvature="0" />
    <path
       style="opacity:0.4;fill:#ff0000;fill-opacity:1;fill-rule:evenodd;stroke:#000000;stroke-width:0.99768502px;stroke-linecap:butt;stroke-linejoin:miter;stroke-opacity:1"
       d="m 308.75581,623.91647 -2.12701,-99.56339 c -1.0603,-25.73295 -12.4497,-39.94669 -26.94197,-40.82817 l -113.43993,0 c -26.32793,-0.33375 -39.73317,13.02086 -39.70397,41.54444 l 0,98.84712 m 182.21288,0 c -1.25922,13.97812 -3.65482,27.12363 -26.233,28.65133 l -129.7469,-0.71628 c -20.00745,-1.50767 -26.27001,-14.31483 -26.23298,-27.93505"
       id="path4136-9-5-1-7"
       inkscape:connector-curvature="0"
       sodipodi:nodetypes="cccccccccc" />
    <path
       style="opacity:0.4;fill:#901111;fill-opacity:1;fill-rule:evenodd;stroke:#000000;stroke-width:0.97397828px;stroke-linecap:butt;stroke-linejoin:miter;stroke-opacity:1"
       d="m 306.0881,622.39927 -2.07646,-97.19759 c -1.03511,-25.12149 -12.15388,-38.99748 -26.30179,-39.85802 l -110.74439,0 c -25.70234,-0.32582 -38.78904,12.71146 -38.76054,40.55727 l 0,96.49834 m 177.88318,0 c -1.22929,13.64598 -3.56797,26.47913 -25.60965,27.97053 l -126.66389,-0.69926 c -19.53204,-1.47185 -25.64579,-13.97469 -25.60964,-27.27127"
       id="path4136-8-4-0"
       inkscape:connector-curvature="0"
       sodipodi:nodetypes="cccccccccc" />
    <path
       style="opacity:0.4;fill:#ffffff;fill-opacity:1;stroke:#000000;stroke-width:1;stroke-linecap:butt;stroke-linejoin:miter;stroke-miterlimit:4;stroke-dasharray:none;stroke-dashoffset:0;stroke-opacity:1"
       d="m 215.65424,508.62542 a 58.337028,55.916186 0 0 0 -58.33748,55.91607 58.337028,55.916186 0 0 0 58.33748,55.91606 58.337028,55.916186 0 0 0 11.89652,-1.24181 l 3.87107,14.42385 21.21941,-36.04439 -36.09205,-19.3792 5.34192,19.90743 a 37.492768,34.345679 0 0 1 -6.23687,0.52162 37.492768,34.345679 0 0 1 -37.49274,-34.34451 37.492768,34.345679 0 0 1 37.49274,-34.34584 37.492768,34.345679 0 0 1 37.20676,30.47079 l 20.91491,0 a 58.337028,55.916186 0 0 0 -58.12167,-51.80007 z"
       id="path4145-5"
       inkscape:connector-curvature="0" />
    <path
       style="fill:#c10000;fill-opacity:1;fill-rule:evenodd;stroke:#000000;stroke-width:0.99768502px;stroke-linecap:butt;stroke-linejoin:miter;stroke-opacity:1"
       d="m 687.32724,625.34504 -2.12701,-99.56339 c -1.0603,-25.73295 -12.4497,-39.94669 -26.94197,-40.82817 l -113.43993,0 c -26.32793,-0.33375 -39.73317,13.02086 -39.70397,41.54444 l 0,98.84712 m 182.21288,0 c -1.25922,13.97812 -3.65482,27.12363 -26.233,28.65133 l -129.7469,-0.71628 c -20.00745,-1.50767 -26.27001,-14.31483 -26.23298,-27.93505"
       id="path4136-9-5-1-4"
       inkscape:connector-curvature="0"
       sodipodi:nodetypes="cccccccccc" />
    <path
       style="fill:#741111;fill-opacity:1;fill-rule:evenodd;stroke:#000000;stroke-width:0.97397828px;stroke-linecap:butt;stroke-linejoin:miter;stroke-opacity:1"
       d="m 684.65953,623.82784 -2.07646,-97.19759 c -1.03511,-25.12149 -12.15388,-38.99748 -26.30179,-39.85802 l -110.74439,0 c -25.70234,-0.32582 -38.78904,12.71146 -38.76054,40.55727 l 0,96.49834 m 177.88318,0 c -1.22929,13.64598 -3.56797,26.47913 -25.60965,27.97053 l -126.66389,-0.69926 c -19.53204,-1.47185 -25.64579,-13.97469 -25.60964,-27.27127"
       id="path4136-8-4-01"
       inkscape:connector-curvature="0"
       sodipodi:nodetypes="cccccccccc" />
    <path
       style="opacity:1;fill:#eadbdb;fill-opacity:1;stroke:#000000;stroke-width:1;stroke-linecap:butt;stroke-linejoin:miter;stroke-miterlimit:4;stroke-dasharray:none;stroke-dashoffset:0;stroke-opacity:1"
       d="m 594.22567,510.05399 a 58.337028,55.916186 0 0 0 -58.33748,55.91607 58.337028,55.916186 0 0 0 58.33748,55.91606 58.337028,55.916186 0 0 0 11.89652,-1.24181 l 3.87107,14.42385 21.21941,-36.04439 -36.09205,-19.3792 5.34192,19.90743 a 37.492768,34.345679 0 0 1 -6.23687,0.52162 37.492768,34.345679 0 0 1 -37.49274,-34.34451 37.492768,34.345679 0 0 1 37.49274,-34.34584 37.492768,34.345679 0 0 1 37.20676,30.47079 l 20.91491,0 a 58.337028,55.916186 0 0 0 -58.12167,-51.80007 z"
       id="path4145-2"
       inkscape:connector-curvature="0" />
  </g>
</svg>
