<?xml version="1.0" encoding="UTF-8" standalone="no"?>
<!-- Created with Inkscape (http://www.inkscape.org/) -->

<svg
   xmlns:dc="http://purl.org/dc/elements/1.1/"
   xmlns:cc="http://creativecommons.org/ns#"
   xmlns:rdf="http://www.w3.org/1999/02/22-rdf-syntax-ns#"
   xmlns:svg="http://www.w3.org/2000/svg"
   xmlns="http://www.w3.org/2000/svg"
   xmlns:sodipodi="http://sodipodi.sourceforge.net/DTD/sodipodi-0.dtd"
   xmlns:inkscape="http://www.inkscape.org/namespaces/inkscape"
   id="svg4136"
   version="1.1"
   inkscape:version="0.91 r13725"
   width="528.16345"
   height="805.78131"
   viewBox="0 0 528.16345 805.78131"
   sodipodi:docname="tourdepart.svg">
  <metadata
     id="metadata4142">
    <rdf:RDF>
      <cc:Work
         rdf:about="">
        <dc:format>image/svg+xml</dc:format>
        <dc:type
           rdf:resource="http://purl.org/dc/dcmitype/StillImage" />
        <dc:title></dc:title>
      </cc:Work>
    </rdf:RDF>
  </metadata>
  <defs
     id="defs4140" />
  <sodipodi:namedview
     pagecolor="#ffffff"
     bordercolor="#666666"
     borderopacity="1"
     objecttolerance="10"
     gridtolerance="10"
     guidetolerance="10"
     inkscape:pageopacity="0"
     inkscape:pageshadow="2"
     inkscape:window-width="1366"
     inkscape:window-height="705"
     id="namedview4138"
     showgrid="false"
     showguides="false"
     fit-margin-top="0"
     fit-margin-left="0"
     fit-margin-right="0"
     fit-margin-bottom="0"
     inkscape:zoom="0.39042357"
     inkscape:cx="70.761592"
     inkscape:cy="631.00242"
     inkscape:window-x="-8"
     inkscape:window-y="-8"
     inkscape:window-maximized="1"
     inkscape:current-layer="svg4136" />
  <path
     style="fill:#917c6f;fill-opacity:1;fill-rule:evenodd;stroke:#ffffff;stroke-width:1.5;stroke-linecap:butt;stroke-linejoin:miter;stroke-miterlimit:4;stroke-dasharray:none;stroke-opacity:1"
     d="m 148.05612,213.36618 2.56132,-53.78774 85.80425,7.68396 6.4033,55.0684 z"
     id="path4157"
     inkscape:connector-curvature="0" />
  <path
     style="fill:#917c6f;fill-opacity:1;fill-rule:evenodd;stroke:#ffffff;stroke-width:1.5;stroke-linecap:butt;stroke-linejoin:miter;stroke-miterlimit:4;stroke-dasharray:none;stroke-opacity:1"
     d="m 310.69999,171.10439 -1.28066,51.22641 92.20755,-11.52594 -6.4033,-47.38444 z"
     id="path4159"
     inkscape:connector-curvature="0" />
  <path
     style="fill:none;fill-rule:evenodd;stroke:#000000;stroke-width:1px;stroke-linecap:butt;stroke-linejoin:miter;stroke-opacity:1"
     d="m 238.98301,200.55957 3.84198,21.77123 66.59434,0 0,-25.61321 z"
     id="path4161"
     inkscape:connector-curvature="0" />
  <path
     style="fill:#483e37;fill-opacity:1;fill-rule:evenodd;stroke:#ffffff;stroke-width:1.5;stroke-linecap:butt;stroke-linejoin:miter;stroke-miterlimit:4;stroke-dasharray:none;stroke-opacity:1"
     d="m 157.02075,135.2459 -6.40331,21.77122 84.52359,10.24528 16.64858,-26.89386 z"
     id="path4163"
     inkscape:connector-curvature="0" />
  <path
     style="fill:#483e37;fill-opacity:1;fill-rule:evenodd;stroke:#ffffff;stroke-width:1.5;stroke-linecap:butt;stroke-linejoin:miter;stroke-miterlimit:4;stroke-dasharray:none;stroke-opacity:1"
     d="m 251.78961,140.36854 8.96463,34.57783 -19.20991,28.17453 -6.4033,-35.8585 z"
     id="path4165"
     inkscape:connector-curvature="0" />
  <path
     style="fill:#483e37;fill-opacity:1;fill-rule:evenodd;stroke:#ffffff;stroke-width:1.5;stroke-linecap:butt;stroke-linejoin:miter;stroke-miterlimit:4;stroke-dasharray:none;stroke-opacity:1"
     d="m 260.75424,174.94637 26.89386,-1.28066 14.08727,21.77122 -58.91038,5.12264 z"
     id="path4167"
     inkscape:connector-curvature="0" />
  <path
     style="fill:#483e37;fill-opacity:1;fill-rule:evenodd;stroke:#ffffff;stroke-width:1.5;stroke-linecap:butt;stroke-linejoin:miter;stroke-miterlimit:4;stroke-dasharray:none;stroke-opacity:1"
     d="m 291.49009,148.0525 -3.84199,25.61321 15.36793,25.6132 6.4033,-2.56132 1.28066,-26.89386 z"
     id="path4169"
     inkscape:connector-curvature="0" />
  <path
     style="fill:#483e37;fill-opacity:1;fill-rule:evenodd;stroke:#ffffff;stroke-width:1.5;stroke-linecap:butt;stroke-linejoin:miter;stroke-miterlimit:4;stroke-dasharray:none;stroke-opacity:1"
     d="m 291.49009,148.0525 17.92924,21.77123 85.80425,-6.40331 -24.33255,-23.05188 z"
     id="path4171"
     inkscape:connector-curvature="0" />
  <path
     style="fill:#917c6f;fill-opacity:1;fill-rule:evenodd;stroke:#ffffff;stroke-width:1.5;stroke-linecap:butt;stroke-linejoin:miter;stroke-miterlimit:4;stroke-dasharray:none;stroke-opacity:1"
     d="m 240.26367,200.55957 1.28066,20.49057 69.15566,1.28066 -2.56132,-28.17453 -3.84198,6.4033 -5.12264,-5.12264 z"
     id="path4173"
     inkscape:connector-curvature="0" />
  <path
     style="fill:#917c6f;fill-opacity:1;fill-rule:evenodd;stroke:#ffffff;stroke-width:1.5;stroke-linecap:butt;stroke-linejoin:miter;stroke-miterlimit:4;stroke-dasharray:none;stroke-opacity:1"
     d="m 401.62688,210.80486 61.4717,-20.49057 -7.68397,-23.05189 -57.62971,17.92925 z"
     id="path4175"
     inkscape:connector-curvature="0" />
  <path
     style="fill:#917c6f;fill-opacity:1;fill-rule:evenodd;stroke:#ffffff;stroke-width:1.5;stroke-linecap:butt;stroke-linejoin:miter;stroke-miterlimit:4;stroke-dasharray:none;stroke-opacity:1"
     d="m 463.09858,190.31429 62.14421,-50.78696 -17.3211,-43.981915 -62.75236,38.419815 z"
     id="path4177"
     inkscape:connector-curvature="0"
     sodipodi:nodetypes="ccccc" />
  <path
     style="fill:#483e37;fill-opacity:1;fill-rule:evenodd;stroke:#ffffff;stroke-width:1.5;stroke-linecap:butt;stroke-linejoin:miter;stroke-miterlimit:4;stroke-dasharray:none;stroke-opacity:1"
     d="m 443.88867,132.68457 -14.08726,-14.08726 43.54245,-26.893875 34.57783,5.12264 z"
     id="path4179"
     inkscape:connector-curvature="0" />
  <path
     style="fill:#483e37;fill-opacity:1;fill-rule:evenodd;stroke:#ffffff;stroke-width:1.5;stroke-linecap:butt;stroke-linejoin:miter;stroke-miterlimit:4;stroke-dasharray:none;stroke-opacity:1"
     d="m 429.80141,119.87797 1.28066,38.41981 25.6132,8.96462 -12.8066,-35.85849 z"
     id="path4181"
     inkscape:connector-curvature="0" />
  <path
     style="fill:#483e37;fill-opacity:1;fill-rule:evenodd;stroke:#ffffff;stroke-width:1.5;stroke-linecap:butt;stroke-linejoin:miter;stroke-miterlimit:4;stroke-dasharray:none;stroke-opacity:1"
     d="m 428.52075,159.57844 -33.29717,10.24529 2.56132,15.36792 57.62971,-20.49057 z"
     id="path4183"
     inkscape:connector-curvature="0" />
  <path
     style="fill:#917c6f;fill-opacity:1;fill-rule:evenodd;stroke:#ffffff;stroke-width:1.5;stroke-linecap:butt;stroke-linejoin:miter;stroke-miterlimit:4;stroke-dasharray:none;stroke-opacity:1"
     d="m 526.97623,141.79124 -6.01488,-58.302235 -8.90027,-15.74301 8.66721,59.815935 z"
     id="path4185"
     inkscape:connector-curvature="0"
     sodipodi:nodetypes="ccccc" />
  <path
     style="fill:#483e37;fill-opacity:1;fill-rule:evenodd;stroke:#ffffff;stroke-width:1.5;stroke-linecap:butt;stroke-linejoin:miter;stroke-miterlimit:4;stroke-dasharray:none;stroke-opacity:1"
     d="m 513.04433,73.774195 -14.08726,11.52594 0,10.24528 7.68396,1.28066 10.24528,23.051895 z"
     id="path4187"
     inkscape:connector-curvature="0" />
  <path
     style="fill:#483e37;fill-opacity:1;fill-rule:evenodd;stroke:#ffffff;stroke-width:1.5;stroke-linecap:butt;stroke-linejoin:miter;stroke-miterlimit:4;stroke-dasharray:none;stroke-opacity:1"
     d="m 514.32499,71.212875 -15.36792,14.08726 -1.28066,-43.54245 12.8066,-8.96463 z"
     id="path4189"
     inkscape:connector-curvature="0" />
  <path
     style="fill:#917c6f;fill-opacity:1;fill-rule:evenodd;stroke:#ffffff;stroke-width:1.5;stroke-linecap:butt;stroke-linejoin:miter;stroke-miterlimit:4;stroke-dasharray:none;stroke-opacity:1"
     d="m 497.67641,80.177495 -8.96463,5.12264 -58.91037,-16.64858 -1.28066,-43.54246 69.15566,14.08727 z"
     id="path4191"
     inkscape:connector-curvature="0" />
  <path
     style="fill:#483e37;fill-opacity:1;fill-rule:evenodd;stroke:#ffffff;stroke-width:1.5;stroke-linecap:butt;stroke-linejoin:miter;stroke-miterlimit:4;stroke-dasharray:none;stroke-opacity:1"
     d="m 437.48537,11.021835 -10.24528,12.8066 72.99764,16.64859 10.24528,-7.68397 -23.05189,-11.52594 z"
     id="path4193"
     inkscape:connector-curvature="0" />
  <path
     style="fill:#917c6f;fill-opacity:1;fill-rule:evenodd;stroke:#ffffff;stroke-width:1.5;stroke-linecap:butt;stroke-linejoin:miter;stroke-miterlimit:4;stroke-dasharray:none;stroke-opacity:1"
     d="m 429.80141,66.090225 -40.98114,-3.84198 3.84199,-21.77122 37.13915,2.56132 z"
     id="path4195"
     inkscape:connector-curvature="0" />
  <path
     style="fill:#917c6f;fill-opacity:1;fill-rule:evenodd;stroke:#ffffff;stroke-width:1.5;stroke-linecap:butt;stroke-linejoin:miter;stroke-miterlimit:4;stroke-dasharray:none;stroke-opacity:1"
     d="m 390.10093,64.809565 -93.4882,-6.4033 -1.28066,-42.26179 94.76886,-1.28066 1.28066,28.17453 z"
     id="path4197"
     inkscape:connector-curvature="0" />
  <path
     style="fill:#917c6f;fill-opacity:1;fill-rule:evenodd;stroke:#ffffff;stroke-width:1.5;stroke-linecap:butt;stroke-linejoin:miter;stroke-miterlimit:4;stroke-dasharray:none;stroke-opacity:1"
     d="m 270.99952,37.915705 1.28066,20.49056 25.61321,1.28066 -2.56132,-23.05188 z"
     id="path4199"
     inkscape:connector-curvature="0" />
  <path
     style="fill:#483e37;fill-opacity:1;fill-rule:evenodd;stroke:#ffffff;stroke-width:1.5;stroke-linecap:butt;stroke-linejoin:miter;stroke-miterlimit:4;stroke-dasharray:none;stroke-opacity:1"
     d="m 391.38159,39.196365 7.68397,-11.52595 28.17453,2.56132 1.28066,14.08727 z"
     id="path4201"
     inkscape:connector-curvature="0" />
  <path
     style="fill:#483e37;fill-opacity:1;fill-rule:evenodd;stroke:#ffffff;stroke-width:1.5;stroke-linecap:butt;stroke-linejoin:miter;stroke-miterlimit:4;stroke-dasharray:none;stroke-opacity:1"
     d="m 396.50424,30.231735 -2.56132,-24.3325396 -5.12265,7.6839596 2.56132,25.61321 z"
     id="path4203"
     inkscape:connector-curvature="0" />
  <path
     style="fill:#483e37;fill-opacity:1;fill-rule:evenodd;stroke:#ffffff;stroke-width:1.5;stroke-linecap:butt;stroke-linejoin:miter;stroke-miterlimit:4;stroke-dasharray:none;stroke-opacity:1"
     d="m 392.66226,5.8991954 -90.92689,-5.12264004 -6.4033,12.80659964 93.4882,2.56132 z"
     id="path4205"
     inkscape:connector-curvature="0" />
  <path
     style="fill:#483e37;fill-opacity:1;fill-rule:evenodd;stroke:#ffffff;stroke-width:1.5;stroke-linecap:butt;stroke-linejoin:miter;stroke-miterlimit:4;stroke-dasharray:none;stroke-opacity:1"
     d="m 272.28018,39.196365 -2.56132,-12.80661 26.89387,2.56132 0,7.68397 z"
     id="path4207"
     inkscape:connector-curvature="0" />
  <path
     style="fill:#917c6f;fill-opacity:1;fill-rule:evenodd;stroke:#ffffff;stroke-width:1.5;stroke-linecap:butt;stroke-linejoin:miter;stroke-miterlimit:4;stroke-dasharray:none;stroke-opacity:1"
     d="m 270.99952,58.406265 -74.2783,11.52595 -19.20991,-10.24529 2.56132,-40.98113 76.83963,-5.12264 16.64858,25.61321 z"
     id="path4209"
     inkscape:connector-curvature="0" />
  <path
     style="fill:#483e37;fill-opacity:1;fill-rule:evenodd;stroke:#ffffff;stroke-width:1.5;stroke-linecap:butt;stroke-linejoin:miter;stroke-miterlimit:4;stroke-dasharray:none;stroke-opacity:1"
     d="m 256.91226,17.425135 3.84198,-12.8065996 10.24528,21.7712196 0,8.96463 z"
     id="path4211"
     inkscape:connector-curvature="0" />
  <path
     style="fill:#483e37;fill-opacity:1;fill-rule:evenodd;stroke:#ffffff;stroke-width:1.5;stroke-linecap:butt;stroke-linejoin:miter;stroke-miterlimit:4;stroke-dasharray:none;stroke-opacity:1"
     d="m 258.19292,4.6185354 -78.12029,2.56132 -1.28066,11.5259396 79.40095,-3.84198 z"
     id="path4213"
     inkscape:connector-curvature="0" />
  <path
     style="fill:#917c6f;fill-opacity:1;fill-rule:evenodd;stroke:#ffffff;stroke-width:1.5;stroke-linecap:butt;stroke-linejoin:miter;stroke-miterlimit:4;stroke-dasharray:none;stroke-opacity:1"
     d="m 176.23065,59.686925 -33.29717,7.68397 1.28066,-26.89387 34.57783,-1.28066 z"
     id="path4215"
     inkscape:connector-curvature="0" />
  <path
     style="fill:#483e37;fill-opacity:1;fill-rule:evenodd;stroke:#ffffff;stroke-width:1.5;stroke-linecap:butt;stroke-linejoin:miter;stroke-miterlimit:4;stroke-dasharray:none;stroke-opacity:1"
     d="m 144.21414,41.757685 -6.4033,-7.68396 33.29717,-3.84199 7.68396,10.24529 z"
     id="path4217"
     inkscape:connector-curvature="0" />
  <path
     style="fill:#483e37;fill-opacity:1;fill-rule:evenodd;stroke:#ffffff;stroke-width:1.5;stroke-linecap:butt;stroke-linejoin:miter;stroke-miterlimit:4;stroke-dasharray:none;stroke-opacity:1"
     d="m 171.10801,31.512395 5.12264,-21.7712196 3.84198,7.6839596 -2.56132,21.77123 z"
     id="path4219"
     inkscape:connector-curvature="0" />
  <path
     style="fill:#917c6f;fill-opacity:1;fill-rule:evenodd;stroke:#ffffff;stroke-width:1.5;stroke-linecap:butt;stroke-linejoin:miter;stroke-miterlimit:4;stroke-dasharray:none;stroke-opacity:1"
     d="m 140.37216,64.809565 -80.681601,23.05189 -12.80661,-47.38443 87.084911,-17.92925 11.52594,21.77123 z"
     id="path4221"
     inkscape:connector-curvature="0" />
  <path
     style="fill:#483e37;fill-opacity:1;fill-rule:evenodd;stroke:#ffffff;stroke-width:1.5;stroke-linecap:butt;stroke-linejoin:miter;stroke-miterlimit:4;stroke-dasharray:none;stroke-opacity:1"
     d="m 132.6882,23.828435 -14.08727,-11.52594 -72.997641,8.96462 1.28066,20.49057 z"
     id="path4223"
     inkscape:connector-curvature="0" />
  <path
     style="fill:#483e37;fill-opacity:1;fill-rule:evenodd;stroke:#ffffff;stroke-width:1.5;stroke-linecap:butt;stroke-linejoin:miter;stroke-miterlimit:4;stroke-dasharray:none;stroke-opacity:1"
     d="m 149.33678,160.8591 -1.28066,24.33255 -48.665091,-8.96462 30.735851,-19.20991 z"
     id="path4225"
     inkscape:connector-curvature="0" />
  <path
     style="fill:#917c6f;fill-opacity:1;fill-rule:evenodd;stroke:#ffffff;stroke-width:1.5;stroke-linecap:butt;stroke-linejoin:miter;stroke-miterlimit:4;stroke-dasharray:none;stroke-opacity:1"
     d="m 148.05612,215.9275 -1.28066,-30.73585 -46.10377,-7.68396 -8.964621,12.8066 7.68396,25.61321 z"
     id="path4227"
     inkscape:connector-curvature="0" />
  <path
     style="fill:#483e37;fill-opacity:1;fill-rule:evenodd;stroke:#ffffff;stroke-width:1.5;stroke-linecap:butt;stroke-linejoin:miter;stroke-miterlimit:4;stroke-dasharray:none;stroke-opacity:1"
     d="m 96.829709,214.64684 -21.77123,-28.17453 2.56132,-42.26179 43.542461,-7.68396 10.24528,19.2099 -26.89387,19.20991 -11.525941,16.64858 z"
     id="path4229"
     inkscape:connector-curvature="0"
     sodipodi:nodetypes="cccccccc" />
  <path
     style="fill:#483e37;fill-opacity:1;fill-rule:evenodd;stroke:#ffffff;stroke-width:1.5;stroke-linecap:butt;stroke-linejoin:miter;stroke-miterlimit:4;stroke-dasharray:none;stroke-opacity:1"
     d="m 119.88159,133.96523 -60.191031,-29.45518 -24.33255,10.24528 42.26179,29.45519 z"
     id="path4231"
     inkscape:connector-curvature="0"
     sodipodi:nodetypes="ccccc" />
  <path
     style="fill:#917c6f;fill-opacity:1;fill-rule:evenodd;stroke:#ffffff;stroke-width:1.5;stroke-linecap:butt;stroke-linejoin:miter;stroke-miterlimit:4;stroke-dasharray:none;stroke-opacity:1"
     d="m 37.919329,117.31665 -2.56132,53.78774 12.8066,19.2099 47.38444,24.33255 -19.20991,-26.89387 -1.28066,-44.82311 z"
     id="path4233"
     inkscape:connector-curvature="0" />
  <path
     style="fill:#917c6f;fill-opacity:1;fill-rule:evenodd;stroke:#ffffff;stroke-width:1.5;stroke-linecap:butt;stroke-linejoin:miter;stroke-miterlimit:4;stroke-dasharray:none;stroke-opacity:1"
     d="m 58.409899,85.300135 -23.05189,37.139155 -2.56132,-37.139155 23.05189,-20.49057 z"
     id="path4235"
     inkscape:connector-curvature="0"
     sodipodi:nodetypes="ccccc" />
  <path
     style="fill:#483e37;fill-opacity:1;fill-rule:evenodd;stroke:#ffffff;stroke-width:1.5;stroke-linecap:butt;stroke-linejoin:miter;stroke-miterlimit:4;stroke-dasharray:none;stroke-opacity:1"
     d="m 31.516029,87.861455 -1.28066,-15.36792 20.49056,-15.36793 2.56133,10.24529 z"
     id="path4237"
     inkscape:connector-curvature="0" />
  <path
     style="fill:#917c6f;fill-opacity:1;fill-rule:evenodd;stroke:#ffffff;stroke-width:1.5;stroke-linecap:butt;stroke-linejoin:miter;stroke-miterlimit:4;stroke-dasharray:none;stroke-opacity:1"
     d="m 34.077349,107.07137 -10.24528,-60.191045 2.56132,72.997645 8.96462,10.24528 z"
     id="path4241"
     inkscape:connector-curvature="0" />
  <path
     style="fill:#917c6f;fill-opacity:1;fill-rule:evenodd;stroke:#ffffff;stroke-width:1.5;stroke-linecap:butt;stroke-linejoin:miter;stroke-miterlimit:4;stroke-dasharray:none;stroke-opacity:1"
     d="m 28.954709,123.71995 5.12264,29.45519 3.84198,-21.77123 z"
     id="path4243"
     inkscape:connector-curvature="0" />
  <path
     style="fill:#483e37;fill-opacity:1;fill-rule:evenodd;stroke:#ffffff;stroke-width:1.5;stroke-linecap:butt;stroke-linejoin:miter;stroke-miterlimit:4;stroke-dasharray:none;stroke-opacity:1"
     d="M 23.832069,118.59731 3.3414994,119.87797 0.78017936,46.880325 22.551409,49.441645 Z"
     id="path4245"
     inkscape:connector-curvature="0" />
  <path
     style="fill:#483e37;fill-opacity:1;fill-rule:evenodd;stroke:#ffffff;stroke-width:1.5;stroke-linecap:butt;stroke-linejoin:miter;stroke-miterlimit:4;stroke-dasharray:none;stroke-opacity:1"
     d="m 3.3414994,121.15863 1.28066,44.82311 32.0165096,1.28066 -12.8066,-49.94575 z"
     id="path4247"
     inkscape:connector-curvature="0"
     sodipodi:nodetypes="cc" />
  <path
     style="fill:#a6958b;fill-opacity:1;fill-rule:evenodd;stroke:#ffffff;stroke-width:1.5;stroke-linecap:butt;stroke-linejoin:miter;stroke-miterlimit:4;stroke-dasharray:none;stroke-opacity:1"
     d="m 41.761309,113.47467 16.64859,-28.174535 84.523581,-19.20991 33.29717,-7.68396 20.49057,11.52595 75.55896,-11.52595 25.61321,1.28066 94.76887,3.84198 35.85849,5.12265 61.47169,16.64858 6.40331,-6.4033 2.56132,16.64858 -25.61321,-3.84198 -44.82311,26.893875 3.84198,38.41981 -35.85849,12.80661 -2.56132,-7.68397 -21.77123,-21.77122 -79.40094,7.68396 -5.12265,26.89387 -25.6132,0 -11.52595,-33.29717 -93.4882,-6.4033 -7.68397,26.89386 -17.92924,-6.4033 -12.80661,-19.2099 -60.191031,-30.73585 z"
     id="path4249"
     inkscape:connector-curvature="0" />
  <path
     style="fill:#4b413b;fill-opacity:1;fill-rule:evenodd;stroke:#ffffff;stroke-width:1.5;stroke-linecap:butt;stroke-linejoin:miter;stroke-miterlimit:4;stroke-dasharray:none;stroke-opacity:1"
     d="m 518.16697,154.4558 0,26.89387 -21.77122,38.41981 3.84198,90.92689 -19.20991,-12.80661 -32.01651,-1.28066 -29.45519,15.36793 -12.8066,16.64858 -10.24528,37.13915 -1.28066,35.85849 0,47.38444 2.56132,61.4717 -8.96462,15.36792 -8.96463,-1.28066 5.12265,-19.2099 -10.24529,-26.89387 -10.24529,11.52594 -15.36792,34.57783 -11.52594,-10.24528 2.56132,42.26179 46.74411,17.28892 118.14092,4.80247 2.88148,225.07606 -435.424531,1.28066 -43.54245,-1.28066 -1.28066,-582.70047 -21.7712296,-37.13915 -1.28066,-21.77123 30.7358496,3.84198 12.8066,25.61321 49.94576,24.33255 49.945751,0 94.76887,7.68396 69.15566,0 88.36557,-11.52594 62.75236,-21.77123 z"
     id="path4251"
     inkscape:connector-curvature="0"
     sodipodi:nodetypes="ccccccccccccccccccccccccccccccccccccc" />
  <path
     style="fill:#917c6f;fill-opacity:1;fill-rule:evenodd;stroke:#ffffff;stroke-width:1.5;stroke-linecap:butt;stroke-linejoin:miter;stroke-miterlimit:4;stroke-dasharray:none;stroke-opacity:1"
     d="m 484.8698,177.50769 12.80661,40.98113 20.49056,-35.85849 8.80454,-42.90212 z"
     id="path4253"
     inkscape:connector-curvature="0"
     sodipodi:nodetypes="ccccc" />
  <path
     style="fill:#917c6f;fill-opacity:1;fill-rule:evenodd;stroke:#ffffff;stroke-width:1.5;stroke-linecap:butt;stroke-linejoin:miter;stroke-miterlimit:4;stroke-dasharray:none;stroke-opacity:1"
     d="m 472.0632,185.19165 -3.84198,23.05189 -32.01651,6.4033 0,-16.64859 z"
     id="path4255"
     inkscape:connector-curvature="0" />
  <path
     style="fill:#6c5d53;fill-opacity:1;fill-rule:evenodd;stroke:#ffffff;stroke-width:1.5;stroke-linecap:butt;stroke-linejoin:miter;stroke-miterlimit:4;stroke-dasharray:none;stroke-opacity:1"
     d="m 438.76603,213.36618 -14.08727,25.61321 35.8585,-10.24529 6.4033,-20.49056 z"
     id="path4257"
     inkscape:connector-curvature="0" />
  <path
     style="fill:#6c5d53;fill-opacity:1;fill-rule:evenodd;stroke:#ffffff;stroke-width:1.5;stroke-linecap:butt;stroke-linejoin:miter;stroke-miterlimit:4;stroke-dasharray:none;stroke-opacity:1"
     d="m 416.9948,205.68222 6.4033,33.29717 12.80661,-23.05189 -1.28066,-12.8066 z"
     id="path4259"
     inkscape:connector-curvature="0" />
  <path
     style="fill:#917c6f;fill-opacity:1;fill-rule:evenodd;stroke:#ffffff;stroke-width:1.5;stroke-linecap:butt;stroke-linejoin:miter;stroke-miterlimit:4;stroke-dasharray:none;stroke-opacity:1"
     d="m 401.62688,213.36618 5.12264,17.92924 -30.73585,19.20991 -6.4033,17.92924 -39.70047,5.12265 -28.17453,-37.13916 5.12264,-14.08726 z"
     id="path4261"
     inkscape:connector-curvature="0" />
  <path
     style="fill:#6c5d53;fill-opacity:1;fill-rule:evenodd;stroke:#ffffff;stroke-width:1.5;stroke-linecap:butt;stroke-linejoin:miter;stroke-miterlimit:4;stroke-dasharray:none;stroke-opacity:1"
     d="m 329.9099,276.11854 -14.08727,29.45519 37.13915,-2.56133 15.36793,-33.29717 z"
     id="path4263"
     inkscape:connector-curvature="0" />
  <path
     style="fill:#6c5d53;fill-opacity:1;fill-rule:evenodd;stroke:#ffffff;stroke-width:1.5;stroke-linecap:butt;stroke-linejoin:miter;stroke-miterlimit:4;stroke-dasharray:none;stroke-opacity:1"
     d="m 301.73537,238.97939 16.64858,64.03301 10.24529,-29.45518 z"
     id="path4265"
     inkscape:connector-curvature="0" />
  <path
     style="fill:#917c6f;fill-opacity:1;fill-rule:evenodd;stroke:#ffffff;stroke-width:1.5;stroke-linecap:butt;stroke-linejoin:miter;stroke-miterlimit:4;stroke-dasharray:none;stroke-opacity:1"
     d="m 244.10565,224.89212 14.08727,17.92925 44.82311,-5.12264 5.12264,-14.08727 z"
     id="path4267"
     inkscape:connector-curvature="0" />
  <path
     style="fill:#917c6f;fill-opacity:1;fill-rule:evenodd;stroke:#ffffff;stroke-width:1.5;stroke-linecap:butt;stroke-linejoin:miter;stroke-miterlimit:4;stroke-dasharray:none;stroke-opacity:1"
     d="m 259.47358,242.82137 -17.92925,15.36792 -17.92924,26.89387 -40.98114,2.56132 -16.64858,-44.82311 5.12264,-23.05189 71.71698,2.56132 z"
     id="path4269"
     inkscape:connector-curvature="0" />
  <path
     style="fill:#6c5d53;fill-opacity:1;fill-rule:evenodd;stroke:#ffffff;stroke-width:1.5;stroke-linecap:butt;stroke-linejoin:miter;stroke-miterlimit:4;stroke-dasharray:none;stroke-opacity:1"
     d="m 183.91461,286.36382 3.84198,19.20991 39.70048,-1.28067 10.24528,-7.68396 -12.8066,-12.8066 z"
     id="path4271"
     inkscape:connector-curvature="0" />
  <path
     style="fill:#6c5d53;fill-opacity:1;fill-rule:evenodd;stroke:#ffffff;stroke-width:1.5;stroke-linecap:butt;stroke-linejoin:miter;stroke-miterlimit:4;stroke-dasharray:none;stroke-opacity:1"
     d="m 238.98301,297.88976 6.4033,-42.26179 -20.49056,28.17453 z"
     id="path4273"
     inkscape:connector-curvature="0" />
  <path
     style="fill:#917c6f;fill-opacity:1;fill-rule:evenodd;stroke:#ffffff;stroke-width:1.5;stroke-linecap:butt;stroke-linejoin:miter;stroke-miterlimit:4;stroke-dasharray:none;stroke-opacity:1"
     d="m 99.391029,218.48882 17.929241,20.49057 48.6651,1.28066 3.84198,-23.05189 z"
     id="path4275"
     inkscape:connector-curvature="0" />
  <path
     style="fill:#6c5d53;fill-opacity:1;fill-rule:evenodd;stroke:#ffffff;stroke-width:1.5;stroke-linecap:butt;stroke-linejoin:miter;stroke-miterlimit:4;stroke-dasharray:none;stroke-opacity:1"
     d="m 121.16226,237.69873 8.96462,12.8066 35.85849,-1.28066 0,-10.24528 z"
     id="path4277"
     inkscape:connector-curvature="0" />
  <path
     style="fill:#6c5d53;fill-opacity:1;fill-rule:evenodd;stroke:#ffffff;stroke-width:1.5;stroke-linecap:butt;stroke-linejoin:miter;stroke-miterlimit:4;stroke-dasharray:none;stroke-opacity:1"
     d="M 131.40754,250.50533 113.47829,296.6091 99.391029,268.43457 109.63631,231.29542 Z"
     id="path4279"
     inkscape:connector-curvature="0" />
  <path
     style="fill:#6c5d53;fill-opacity:1;fill-rule:evenodd;stroke:#ffffff;stroke-width:1.5;stroke-linecap:butt;stroke-linejoin:miter;stroke-miterlimit:4;stroke-dasharray:none;stroke-opacity:1"
     d="m 113.47829,295.32844 -30.735851,-6.4033 -24.33254,-40.98113 42.261791,20.49056 -43.542451,-23.05188 44.823111,21.77122 z"
     id="path4281"
     inkscape:connector-curvature="0" />
  <path
     style="fill:#917c6f;fill-opacity:1;fill-rule:evenodd;stroke:#ffffff;stroke-width:1.5;stroke-linecap:butt;stroke-linejoin:miter;stroke-miterlimit:4;stroke-dasharray:none;stroke-opacity:1"
     d="m 55.848579,246.66335 -5.12265,-53.78774 43.54246,21.77123 16.648581,15.36792 -10.24528,35.85849 z"
     id="path4283"
     inkscape:connector-curvature="0" />
  <path
     style="fill:#917c6f;fill-opacity:1;fill-rule:evenodd;stroke:#ffffff;stroke-width:1.5;stroke-linecap:butt;stroke-linejoin:miter;stroke-miterlimit:4;stroke-dasharray:none;stroke-opacity:1"
     d="m 28.954709,222.3308 21.77122,-28.17453 -17.92924,-28.17453 -28.1745296,-3.84198 -2.56132,17.92925 z"
     id="path4285"
     inkscape:connector-curvature="0" />
  <path
     style="fill:#86916f;fill-opacity:1;fill-rule:evenodd;stroke:#ffffff;stroke-width:1.5;stroke-linecap:butt;stroke-linejoin:miter;stroke-miterlimit:4;stroke-dasharray:none;stroke-opacity:1"
     d="m 474.62452,483.58552 -14.08727,7.68396 -21.77122,6.4033 1.28066,-33.29717 -1.28066,-106.29481 8.96462,-20.49057 16.64859,-12.8066 11.52594,10.24528 3.84198,16.64859 0,28.17453 -1.28066,25.6132 -2.56132,47.38444 z"
     id="path4289"
     inkscape:connector-curvature="0"
     sodipodi:nodetypes="ccccccccccccc" />
  <path
     style="fill:#917c6f;fill-opacity:1;fill-rule:evenodd;stroke:#ffffff;stroke-width:1.5;stroke-linecap:butt;stroke-linejoin:miter;stroke-miterlimit:4;stroke-dasharray:none;stroke-opacity:1"
     d="m 475.90518,481.0242 25.61321,0 -1.28066,-28.17453 -23.05189,-1.28066 z"
     id="path4293"
     inkscape:connector-curvature="0" />
  <path
     style="fill:#6c5d53;fill-opacity:1;fill-rule:evenodd;stroke:#ffffff;stroke-width:1.39999998;stroke-linecap:butt;stroke-linejoin:miter;stroke-miterlimit:4;stroke-dasharray:none;stroke-opacity:1"
     d="m 501.51839,483.58552 15.36792,-14.08727 -2.56132,-24.33254 -12.8066,10.24528 z"
     id="path4297"
     inkscape:connector-curvature="0" />
  <path
     style="fill:#917c6f;fill-opacity:1;fill-rule:evenodd;stroke:#ffffff;stroke-width:1.5;stroke-linecap:butt;stroke-linejoin:miter;stroke-miterlimit:4;stroke-dasharray:none;stroke-opacity:1"
     d="m 500.23773,451.56901 1.28066,-55.0684 -20.49057,1.28066 -5.12264,56.34906 z"
     id="path4299"
     inkscape:connector-curvature="0" />
  <path
     style="fill:#917c6f;fill-opacity:1;fill-rule:evenodd;stroke:#ffffff;stroke-width:1.5;stroke-linecap:butt;stroke-linejoin:miter;stroke-miterlimit:4;stroke-dasharray:none;stroke-opacity:1"
     d="m 498.95707,395.21995 -1.28066,-44.82311 -16.64859,0 -1.28066,49.94575 z"
     id="path4301"
     inkscape:connector-curvature="0" />
  <path
     style="fill:#917c6f;fill-opacity:1;fill-rule:evenodd;stroke:#ffffff;stroke-width:1.5;stroke-linecap:butt;stroke-linejoin:miter;stroke-miterlimit:4;stroke-dasharray:none;stroke-opacity:1"
     d="m 498.95707,350.39684 -10.24529,-19.20991 -14.08726,2.56132 6.4033,17.92925 z"
     id="path4303"
     inkscape:connector-curvature="0" />
  <path
     style="fill:#917c6f;fill-opacity:1;fill-rule:evenodd;stroke:#ffffff;stroke-width:1.5;stroke-linecap:butt;stroke-linejoin:miter;stroke-miterlimit:4;stroke-dasharray:none;stroke-opacity:1"
     d="m 492.55376,331.18693 -17.92924,-15.36792 -10.24528,11.52594 10.24528,7.68396 z"
     id="path4307"
     inkscape:connector-curvature="0" />
  <path
     style="fill:#6c5d53;fill-opacity:1;fill-rule:evenodd;stroke:#ffffff;stroke-width:1.39999998;stroke-linecap:butt;stroke-linejoin:miter;stroke-miterlimit:4;stroke-dasharray:none;stroke-opacity:1"
     d="m 515.60565,443.88505 1.28066,-51.22642 -19.2099,3.84198 1.28066,58.91038 z"
     id="path4309"
     inkscape:connector-curvature="0" />
  <path
     style="fill:#6c5d53;fill-opacity:1;fill-rule:evenodd;stroke:#ffffff;stroke-width:1.39999998;stroke-linecap:butt;stroke-linejoin:miter;stroke-miterlimit:4;stroke-dasharray:none;stroke-opacity:1"
     d="m 518.16697,393.93929 -5.12264,-53.78773 -12.8066,11.52594 -1.28066,46.10377 z"
     id="path4311"
     inkscape:connector-curvature="0" />
  <path
     style="fill:#6c5d53;fill-opacity:1;fill-rule:evenodd;stroke:#ffffff;stroke-width:1.39999998;stroke-linecap:butt;stroke-linejoin:miter;stroke-miterlimit:4;stroke-dasharray:none;stroke-opacity:1"
     d="m 514.32499,340.15156 -14.08726,-28.17453 -12.80661,14.08726 12.80661,25.61321 z"
     id="path4313"
     inkscape:connector-curvature="0" />
  <path
     style="fill:#6c5d53;fill-opacity:1;fill-rule:evenodd;stroke:#ffffff;stroke-width:1.39999998;stroke-linecap:butt;stroke-linejoin:miter;stroke-miterlimit:4;stroke-dasharray:none;stroke-opacity:1"
     d="m 500.23773,310.69637 -20.49057,-11.52595 -8.96462,14.08727 17.92924,12.8066 z"
     id="path4315"
     inkscape:connector-curvature="0" />
  <path
     style="fill:#6c5d53;fill-opacity:1;fill-rule:evenodd;stroke:#ffffff;stroke-width:1.39999998;stroke-linecap:butt;stroke-linejoin:miter;stroke-miterlimit:4;stroke-dasharray:none;stroke-opacity:1"
     d="m 466.94056,324.78363 -16.64859,-28.17453 29.45519,1.28066 z"
     id="path4317"
     inkscape:connector-curvature="0" />
  <path
     style="fill:#6c5d53;fill-opacity:1;fill-rule:evenodd;stroke:#ffffff;stroke-width:1.39999998;stroke-linecap:butt;stroke-linejoin:miter;stroke-miterlimit:4;stroke-dasharray:none;stroke-opacity:1"
     d="m 465.6599,322.22231 -16.64859,14.08726 -11.52594,-23.05188 17.92924,-11.52595 z"
     id="path4319"
     inkscape:connector-curvature="0" />
  <path
     style="fill:#6c5d53;fill-opacity:1;fill-rule:evenodd;stroke:#ffffff;stroke-width:1.39999998;stroke-linecap:butt;stroke-linejoin:miter;stroke-miterlimit:4;stroke-dasharray:none;stroke-opacity:1"
     d="m 449.01131,335.02891 -11.52594,21.77123 -15.36793,-8.96462 14.08727,-33.29717 z"
     id="path4321"
     inkscape:connector-curvature="0" />
  <path
     style="fill:#6c5d53;fill-opacity:1;fill-rule:evenodd;stroke:#ffffff;stroke-width:1.39999998;stroke-linecap:butt;stroke-linejoin:miter;stroke-miterlimit:4;stroke-dasharray:none;stroke-opacity:1"
     d="m 420.83678,350.39684 -1.28066,32.01651 19.20991,-5.12264 0,-23.05189 z"
     id="path4323"
     inkscape:connector-curvature="0" />
  <path
     style="fill:#6c5d53;fill-opacity:1;fill-rule:evenodd;stroke:#ffffff;stroke-width:1.39999998;stroke-linecap:butt;stroke-linejoin:miter;stroke-miterlimit:4;stroke-dasharray:none;stroke-opacity:1"
     d="m 420.83678,382.41335 -1.28066,25.61321 20.49057,-3.84199 -1.28066,-24.33254 z"
     id="path4325"
     inkscape:connector-curvature="0" />
  <path
     style="fill:#6c5d53;fill-opacity:1;fill-rule:evenodd;stroke:#ffffff;stroke-width:1.39999998;stroke-linecap:butt;stroke-linejoin:miter;stroke-miterlimit:4;stroke-dasharray:none;stroke-opacity:1"
     d="m 420.83678,406.7459 -1.28066,56.34905 19.20991,-3.84198 -1.28066,-55.0684 -11.52595,3.84199 z"
     id="path4327"
     inkscape:connector-curvature="0" />
  <path
     style="fill:#6c5d53;fill-opacity:1;fill-rule:evenodd;stroke:#ffffff;stroke-width:1.39999998;stroke-linecap:butt;stroke-linejoin:miter;stroke-miterlimit:4;stroke-dasharray:none;stroke-opacity:1"
     d="m 422.11744,463.09495 c -1.28066,5.12264 -1.28066,11.52595 -1.28066,11.52595 l 19.20991,-6.40331 0,-7.68396 z"
     id="path4329"
     inkscape:connector-curvature="0" />
  <path
     style="fill:#917c6f;fill-opacity:1;fill-rule:evenodd;stroke:#ffffff;stroke-width:1.5;stroke-linecap:butt;stroke-linejoin:miter;stroke-miterlimit:4;stroke-dasharray:none;stroke-opacity:1"
     d="m 419.55612,475.90156 0,-15.36793 -25.6132,-5.12264 2.56132,12.8066 z"
     id="path4335"
     inkscape:connector-curvature="0" />
  <path
     style="fill:#917c6f;fill-opacity:1;fill-rule:evenodd;stroke:#ffffff;stroke-width:1.5;stroke-linecap:butt;stroke-linejoin:miter;stroke-miterlimit:4;stroke-dasharray:none;stroke-opacity:1"
     d="m 418.27546,459.25297 2.56132,-49.94575 -25.6132,-2.56132 -2.56132,49.94575 z"
     id="path4337"
     inkscape:connector-curvature="0" />
  <path
     style="fill:#917c6f;fill-opacity:1;fill-rule:evenodd;stroke:#ffffff;stroke-width:1.5;stroke-linecap:butt;stroke-linejoin:miter;stroke-miterlimit:4;stroke-dasharray:none;stroke-opacity:1"
     d="m 419.55612,408.02656 0,-24.33255 -23.05188,-3.84198 0,28.17453 z"
     id="path4339"
     inkscape:connector-curvature="0" />
  <path
     style="fill:#917c6f;fill-opacity:1;fill-rule:evenodd;stroke:#ffffff;stroke-width:1.5;stroke-linecap:butt;stroke-linejoin:miter;stroke-miterlimit:4;stroke-dasharray:none;stroke-opacity:1"
     d="m 419.55612,382.41335 2.56132,-33.29717 -19.2099,-1.28066 -5.12264,32.01651 z"
     id="path4341"
     inkscape:connector-curvature="0" />
  <path
     style="fill:#917c6f;fill-opacity:1;fill-rule:evenodd;stroke:#ffffff;stroke-width:1.5;stroke-linecap:butt;stroke-linejoin:miter;stroke-miterlimit:4;stroke-dasharray:none;stroke-opacity:1"
     d="m 420.83678,350.39684 16.64859,-37.13915 -19.20991,1.28066 -11.52594,15.36792 -3.84198,21.77123 z"
     id="path4343"
     inkscape:connector-curvature="0" />
  <path
     style="fill:#917c6f;fill-opacity:1;fill-rule:evenodd;stroke:#ffffff;stroke-width:1.5;stroke-linecap:butt;stroke-linejoin:miter;stroke-miterlimit:4;stroke-dasharray:none;stroke-opacity:1"
     d="m 440.04669,314.53835 14.08726,-11.52595 -5.12264,-5.12264 -29.45519,16.64859 z"
     id="path4345"
     inkscape:connector-curvature="0" />
  <path
     style="fill:#917c6f;fill-opacity:1;fill-rule:evenodd;stroke:#ffffff;stroke-width:1.51778972;stroke-linecap:butt;stroke-linejoin:miter;stroke-miterlimit:4;stroke-dasharray:none;stroke-opacity:1"
     d="m 505.33667,580.53181 -117.77411,-3.89244 -47.88617,-19.46218 -3.88267,-44.11427 10.35377,9.08235 9.05954,25.94958 45.29774,14.27226 53.06306,6.48739 53.06306,-1.29748 z"
     id="path4349"
     inkscape:connector-curvature="0"
     sodipodi:nodetypes="cccccccccc" />
  <path
     style="fill:#917c6f;fill-opacity:1;fill-rule:evenodd;stroke:#ffffff;stroke-width:1.5;stroke-linecap:butt;stroke-linejoin:miter;stroke-miterlimit:4;stroke-dasharray:none;stroke-opacity:1"
     d="m 505.36037,551.46052 -46.10378,0 2.56133,15.36792 44.82311,0 z"
     id="path4351"
     inkscape:connector-curvature="0" />
  <path
     style="fill:#6c5d53;fill-opacity:1;fill-rule:evenodd;stroke:#ffffff;stroke-width:1.5;stroke-linecap:butt;stroke-linejoin:miter;stroke-miterlimit:4;stroke-dasharray:none;stroke-opacity:1"
     d="m 459.25659,551.46052 10.24529,-21.77123 37.13915,3.84198 -2.56132,16.64859 z"
     id="path4353"
     inkscape:connector-curvature="0" />
  <path
     style="fill:#917c6f;fill-opacity:1;fill-rule:evenodd;stroke:#ffffff;stroke-width:1.5;stroke-linecap:butt;stroke-linejoin:miter;stroke-miterlimit:4;stroke-dasharray:none;stroke-opacity:1"
     d="m 460.53726,564.26712 0,-48.66509 -66.59434,-3.84198 -16.64859,40.98113 21.77123,8.96462 51.22641,7.68396 17.92925,-1.28066 z"
     id="path4355"
     inkscape:connector-curvature="0" />
  <path
     style="fill:#6c5d53;fill-opacity:1;fill-rule:evenodd;stroke:#ffffff;stroke-width:1.5;stroke-linecap:butt;stroke-linejoin:miter;stroke-miterlimit:4;stroke-dasharray:none;stroke-opacity:1"
     d="m 396.28451,511.44931 13.02633,-15.05719 63.20514,4.74754 -12.27614,14.83747 z"
     id="path4357"
     inkscape:connector-curvature="0"
     sodipodi:nodetypes="ccccc" />
  <path
     style="fill:#6c5d53;fill-opacity:1;fill-rule:evenodd;stroke:#ffffff;stroke-width:1.5;stroke-linecap:butt;stroke-linejoin:miter;stroke-miterlimit:4;stroke-dasharray:none;stroke-opacity:1"
     d="m 472.0632,500.2341 -2.56132,28.17453 -8.96462,17.92925 0,-29.45519 z"
     id="path4359"
     inkscape:connector-curvature="0" />
  <path
     style="fill:#917c6f;fill-opacity:1;fill-rule:evenodd;stroke:#ffffff;stroke-width:1.5;stroke-linecap:butt;stroke-linejoin:miter;stroke-miterlimit:4;stroke-dasharray:none;stroke-opacity:1"
     d="m 374.73301,551.46052 7.68396,-12.80661 -19.2099,-7.68396 -3.84198,15.36793 z"
     id="path4363"
     inkscape:connector-curvature="0" />
  <path
     style="fill:#6c5d53;fill-opacity:1;fill-rule:evenodd;stroke:#ffffff;stroke-width:1.5;stroke-linecap:butt;stroke-linejoin:miter;stroke-miterlimit:4;stroke-dasharray:none;stroke-opacity:1"
     d="m 361.92641,529.68929 14.08726,-7.68396 11.52594,6.4033 -5.12264,10.24528 z"
     id="path4365"
     inkscape:connector-curvature="0" />
  <path
     style="fill:#917c6f;fill-opacity:1;fill-rule:evenodd;stroke:#ffffff;stroke-width:1.5;stroke-linecap:butt;stroke-linejoin:miter;stroke-miterlimit:4;stroke-dasharray:none;stroke-opacity:1"
     d="m 360.64575,547.61854 11.52594,-42.2618 -6.4033,-16.64858 -17.92925,33.29717 6.4033,21.77123 z"
     id="path4367"
     inkscape:connector-curvature="0" />
  <path
     style="fill:#6c5d53;fill-opacity:1;fill-rule:evenodd;stroke:#ffffff;stroke-width:1.5;stroke-linecap:butt;stroke-linejoin:miter;stroke-miterlimit:4;stroke-dasharray:none;stroke-opacity:1"
     d="m 374.73301,505.35674 10.24528,1.28066 -6.4033,16.64859 -12.8066,3.84198 z"
     id="path4369"
     inkscape:connector-curvature="0" />
  <path
     style="fill:#6c5d53;fill-opacity:1;fill-rule:evenodd;stroke:#ffffff;stroke-width:1.5;stroke-linecap:butt;stroke-linejoin:miter;stroke-miterlimit:4;stroke-dasharray:none;stroke-opacity:1"
     d="m 386.25895,507.91806 -8.96462,-33.29716 -12.8066,15.36792 8.96462,17.92924 z"
     id="path4371"
     inkscape:connector-curvature="0"
     sodipodi:nodetypes="ccccc" />
  <path
     style="fill:#917c6f;fill-opacity:1;fill-rule:evenodd;stroke:#ffffff;stroke-width:1.5;stroke-linecap:butt;stroke-linejoin:miter;stroke-miterlimit:4;stroke-dasharray:none;stroke-opacity:1"
     d="m 505.36037,618.05486 -19.20991,-15.36793 -20.49057,33.29717 -29.45519,-35.85849 -35.85849,49.94576 -19.2099,-28.17453 -16.64858,-26.89387 -14.08727,-6.4033 -19.2099,16.64858 -6.4033,-30.73585 0,-17.92924 -15.36793,1.28066 8.96462,-23.05189 17.92925,-19.2099 2.56132,42.26179 48.66509,19.20991 117.82076,1.28066 z"
     id="path4373"
     inkscape:connector-curvature="0"
     sodipodi:nodetypes="cccccccccccccccccc" />
  <path
     style="fill:#917c6f;fill-opacity:1;fill-rule:evenodd;stroke:#ffffff;stroke-width:1.5;stroke-linecap:butt;stroke-linejoin:miter;stroke-miterlimit:4;stroke-dasharray:none;stroke-opacity:1"
     d="m 396.50424,468.21759 0,44.82312 11.52594,-16.64859 11.26623,0.82788 0.45278,-11.34392 -0.19307,-8.69386 z"
     id="path4375"
     inkscape:connector-curvature="0"
     sodipodi:nodetypes="ccccccc" />
  <path
     style="fill:#a6958b;fill-opacity:1;fill-rule:evenodd;stroke:#ffffff;stroke-width:1.5;stroke-linecap:butt;stroke-linejoin:miter;stroke-miterlimit:4;stroke-dasharray:none;stroke-opacity:1"
     d="m 477.18584,481.0242 25.61321,0 14.08726,-8.96463 -5.12264,25.61321 -7.68396,1.28066 0,35.85849 -33.29717,-5.12264 1.28066,-28.17453 -30.73585,-3.84198 z"
     id="path4377"
     inkscape:connector-curvature="0" />
  <path
     style="fill:#483e37;fill-opacity:1;fill-rule:evenodd;stroke:#ffffff;stroke-width:1.39999998;stroke-linecap:butt;stroke-linejoin:miter;stroke-miterlimit:4;stroke-dasharray:none;stroke-opacity:1"
     d="m 518.31666,450.06633 -4.07504,-0.45278 2.26391,12.67789 z"
     id="path4389"
     inkscape:connector-curvature="0" />
  <path
     style="fill:#6c5d53;fill-opacity:1;fill-rule:evenodd;stroke:#ffffff;stroke-width:1.39999998;stroke-linecap:butt;stroke-linejoin:miter;stroke-miterlimit:4;stroke-dasharray:none;stroke-opacity:1"
     d="m 420.063,476.78046 19.9224,-8.15007 -1.35834,29.8836 -19.01684,-1.35835 z"
     id="path4391"
     inkscape:connector-curvature="0" />
</svg>
