<?xml version="1.0" encoding="UTF-8" standalone="no"?>
<!-- Created with Inkscape (http://www.inkscape.org/) -->

<svg
   xmlns:dc="http://purl.org/dc/elements/1.1/"
   xmlns:cc="http://creativecommons.org/ns#"
   xmlns:rdf="http://www.w3.org/1999/02/22-rdf-syntax-ns#"
   xmlns:svg="http://www.w3.org/2000/svg"
   xmlns="http://www.w3.org/2000/svg"
   xmlns:sodipodi="http://sodipodi.sourceforge.net/DTD/sodipodi-0.dtd"
   xmlns:inkscape="http://www.inkscape.org/namespaces/inkscape"
   width="158.14157mm"
   height="48.630322mm"
   viewBox="0 0 560.34415 172.31216"
   id="svg2"
   version="1.1"
   inkscape:version="0.91 r13725"
   inkscape:export-filename="C:\Users\Achille\Desktop\Icone Option.png"
   inkscape:export-xdpi="599"
   inkscape:export-ydpi="599"
   sodipodi:docname="Icone Option.svg">
  <defs
     id="defs4" />
  <sodipodi:namedview
     id="base"
     pagecolor="#ffffff"
     bordercolor="#666666"
     borderopacity="1.0"
     inkscape:pageopacity="0.0"
     inkscape:pageshadow="2"
     inkscape:zoom="0.9556627"
     inkscape:cx="154.97081"
     inkscape:cy="164.47074"
     inkscape:document-units="px"
     inkscape:current-layer="layer1"
     showgrid="false"
     showguides="false"
     fit-margin-top="0"
     fit-margin-left="0"
     fit-margin-right="0"
     fit-margin-bottom="0"
     inkscape:window-width="1536"
     inkscape:window-height="803"
     inkscape:window-x="-8"
     inkscape:window-y="-8"
     inkscape:window-maximized="1" />
  <metadata
     id="metadata7">
    <rdf:RDF>
      <cc:Work
         rdf:about="">
        <dc:format>image/svg+xml</dc:format>
        <dc:type
           rdf:resource="http://purl.org/dc/dcmitype/StillImage" />
        <dc:title></dc:title>
      </cc:Work>
    </rdf:RDF>
  </metadata>
  <g
     inkscape:label="Calque 1"
     inkscape:groupmode="layer"
     id="layer1"
     transform="translate(-122.0802,-685.07513)">
    <path
       style="fill:#ff4300;fill-opacity:1;fill-rule:evenodd;stroke:#000000;stroke-width:0.99768502px;stroke-linecap:butt;stroke-linejoin:miter;stroke-opacity:1"
       d="m 494.28235,828.23702 -2.12701,-99.56339 c -1.0603,-25.73295 -12.4497,-39.94669 -26.94197,-40.82817 l -113.43993,0 c -26.32793,-0.33375 -39.73317,13.02086 -39.70397,41.54444 l 0,98.84712 m 182.21288,0 c -1.25922,13.97812 -3.65482,27.12363 -26.233,28.65133 l -129.7469,-0.71628 C 318.295,854.6644 312.03244,841.85724 312.06947,828.23702"
       id="path4136-9-5-1-4"
       inkscape:connector-curvature="0"
       sodipodi:nodetypes="cccccccccc" />
    <path
       style="fill:#351f1f;fill-opacity:0.54696129;fill-rule:evenodd;stroke:#000000;stroke-width:0.97397828px;stroke-linecap:butt;stroke-linejoin:miter;stroke-opacity:1"
       d="m 491.61464,826.71982 -2.07646,-97.19759 c -1.03511,-25.12149 -12.15388,-38.99748 -26.30179,-39.85802 l -110.74439,0 c -25.70234,-0.32582 -38.78904,12.71146 -38.76054,40.55727 l 0,96.49834 m 177.88318,0 c -1.22929,13.64598 -3.56797,26.47913 -25.60965,27.97053 L 339.3411,853.99109 c -19.53204,-1.47185 -25.64579,-13.97469 -25.60964,-27.27127"
       id="path4136-8-4-2"
       inkscape:connector-curvature="0"
       sodipodi:nodetypes="cccccccccc" />
    <ellipse
       style="opacity:1;fill:#ffffff;fill-opacity:1;stroke:#000000;stroke-width:1;stroke-linecap:butt;stroke-linejoin:miter;stroke-miterlimit:4;stroke-dasharray:none;stroke-dashoffset:0;stroke-opacity:1"
       id="path4334-0"
       cx="403.39691"
       cy="773.31244"
       rx="30.03586"
       ry="26.20475" />
    <path
       style="opacity:1;fill:none;fill-opacity:1;stroke:#000000;stroke-width:1.01015258;stroke-linecap:butt;stroke-linejoin:miter;stroke-miterlimit:4;stroke-dasharray:none;stroke-dashoffset:0;stroke-opacity:1"
       d=""
       id="path4232"
       inkscape:connector-curvature="0"
       transform="translate(123.36352,480.85375)" />
    <path
       style="opacity:1;fill:none;fill-opacity:1;stroke:#000000;stroke-width:1.01015258;stroke-linecap:butt;stroke-linejoin:miter;stroke-miterlimit:4;stroke-dasharray:none;stroke-dashoffset:0;stroke-opacity:1"
       d=""
       id="path4234"
       inkscape:connector-curvature="0"
       transform="translate(123.36352,480.85375)" />
    <path
       style="opacity:1;fill:none;fill-opacity:1;stroke:#000000;stroke-width:1.01015258;stroke-linecap:butt;stroke-linejoin:miter;stroke-miterlimit:4;stroke-dasharray:none;stroke-dashoffset:0;stroke-opacity:1"
       d=""
       id="path4236"
       inkscape:connector-curvature="0"
       transform="translate(123.36352,480.85375)" />
    <path
       style="opacity:1;fill:none;fill-opacity:1;stroke:#000000;stroke-width:1.01015258;stroke-linecap:butt;stroke-linejoin:miter;stroke-miterlimit:4;stroke-dasharray:none;stroke-dashoffset:0;stroke-opacity:1"
       d=""
       id="path4238"
       inkscape:connector-curvature="0"
       transform="translate(123.36352,480.85375)" />
    <path
       style="opacity:1;fill:none;fill-opacity:1;stroke:#000000;stroke-width:1.01015258;stroke-linecap:butt;stroke-linejoin:miter;stroke-miterlimit:4;stroke-dasharray:none;stroke-dashoffset:0;stroke-opacity:1"
       d=""
       id="path4264"
       inkscape:connector-curvature="0"
       transform="translate(123.36352,480.85375)" />
    <path
       style="opacity:1;fill:none;fill-opacity:1;stroke:#000000;stroke-width:1.01015258;stroke-linecap:butt;stroke-linejoin:miter;stroke-miterlimit:4;stroke-dasharray:none;stroke-dashoffset:0;stroke-opacity:1"
       d=""
       id="path4266"
       inkscape:connector-curvature="0"
       transform="translate(123.36352,480.85375)" />
    <path
       style="opacity:1;fill:none;fill-opacity:1;stroke:#000000;stroke-width:1.01015258;stroke-linecap:butt;stroke-linejoin:miter;stroke-miterlimit:4;stroke-dasharray:none;stroke-dashoffset:0;stroke-opacity:1"
       d=""
       id="path4268"
       inkscape:connector-curvature="0"
       transform="translate(123.36352,480.85375)" />
    <path
       style="opacity:1;fill:none;fill-opacity:1;stroke:#000000;stroke-width:1.01015258;stroke-linecap:butt;stroke-linejoin:miter;stroke-miterlimit:4;stroke-dasharray:none;stroke-dashoffset:0;stroke-opacity:1"
       d=""
       id="path4280"
       inkscape:connector-curvature="0"
       transform="translate(123.36352,480.85375)" />
    <path
       style="opacity:1;fill:none;fill-opacity:1;stroke:#000000;stroke-width:1.01015258;stroke-linecap:butt;stroke-linejoin:miter;stroke-miterlimit:4;stroke-dasharray:none;stroke-dashoffset:0;stroke-opacity:1"
       d=""
       id="path4282"
       inkscape:connector-curvature="0"
       transform="translate(123.36352,480.85375)" />
    <path
       style="opacity:1;fill:none;fill-opacity:1;stroke:#000000;stroke-width:0.25253814;stroke-linecap:butt;stroke-linejoin:miter;stroke-miterlimit:4;stroke-dasharray:none;stroke-dashoffset:0;stroke-opacity:1"
       d=""
       id="path4292"
       inkscape:connector-curvature="0"
       transform="translate(123.36352,480.85375)" />
    <path
       style="opacity:1;fill:none;fill-opacity:1;stroke:#000000;stroke-width:0.25253814;stroke-linecap:butt;stroke-linejoin:miter;stroke-miterlimit:4;stroke-dasharray:none;stroke-dashoffset:0;stroke-opacity:1"
       d=""
       id="path4294"
       inkscape:connector-curvature="0"
       transform="translate(123.36352,480.85375)" />
    <ellipse
       style="opacity:1;fill:#902f11;fill-opacity:1;stroke:#000000;stroke-width:1;stroke-linecap:butt;stroke-linejoin:miter;stroke-miterlimit:4;stroke-dasharray:none;stroke-dashoffset:0;stroke-opacity:1"
       id="path4334"
       cx="402.68262"
       cy="772.21509"
       rx="14.676922"
       ry="12.740881" />
    <path
       inkscape:connector-curvature="0"
       style="opacity:1;fill:#ffffff;fill-opacity:1;stroke:#000000;stroke-width:1;stroke-linecap:butt;stroke-linejoin:miter;stroke-miterlimit:4;stroke-dasharray:none;stroke-dashoffset:0;stroke-opacity:1"
       d="m 411.48063,715.71049 0.1647,10.93955 a 54.175214,46.561303 0 0 0 -8.59373,-0.61349 54.175214,46.561303 0 0 0 -12.42168,1.29219 l -2.94995,-10.19623 -24.33042,8.60454 8.40886,8.89196 a 54.175214,46.561303 0 0 0 -13.54372,11.9099 l -9.28214,-5.36199 -11.38838,21.14121 12.38335,1.35982 a 54.175214,46.561303 0 0 0 -1.05144,8.91974 54.175214,46.561303 0 0 0 2.09415,12.66468 l -11.70907,5.85954 15.3871,18.98856 6.39135,-8.16797 a 54.175214,46.561303 0 0 0 18.06882,12.39417 l -4.30527,9.77596 25.29647,5.94348 -0.89816,-11.01503 a 54.175214,46.561303 0 0 0 3.85013,0.11836 54.175214,46.561303 0 0 0 18.37874,-2.8229 l 5.83134,10.65393 21.90349,-12.8265 -9.93022,-6.98085 a 54.175214,46.561303 0 0 0 12.20521,-13.67126 l 11.80184,3.79324 5.77755,-22.90499 -11.91411,1.14064 a 54.175214,46.561303 0 0 0 0.12101,-2.94306 54.175214,46.561303 0 0 0 -2.54121,-14.04624 l 11.01931,-4.1024 -12.85194,-20.45285 -8.45725,8.52182 a 54.175214,46.561303 0 0 0 -13.18338,-9.64735 l 5.1268,-9.87318 -24.85815,-7.287 z m -8.42903,21.80905 a 40.486652,35.667214 0 0 1 40.4866,35.66688 40.486652,35.667214 0 0 1 -40.4866,35.66749 40.486652,35.667214 0 0 1 -40.48727,-35.66749 40.486652,35.667214 0 0 1 40.48727,-35.66688 z"
       id="path4334-7" />
    <path
       style="opacity:0.4;fill:#ff0000;fill-opacity:1;fill-rule:evenodd;stroke:#000000;stroke-width:0.99768502px;stroke-linecap:butt;stroke-linejoin:miter;stroke-opacity:1"
       d="m 304.79209,826.63514 -2.12701,-99.56339 c -1.0603,-25.73295 -12.4497,-39.94669 -26.94197,-40.82817 l -113.43993,0 c -26.32793,-0.33375 -39.73317,13.02086 -39.70397,41.54444 l 0,98.84712 m 182.21288,0 c -1.25922,13.97812 -3.65482,27.12363 -26.233,28.65133 l -129.7469,-0.71628 c -20.00745,-1.50767 -26.27001,-14.31483 -26.23298,-27.93505"
       id="path4136-9-5-1-4-5"
       inkscape:connector-curvature="0"
       sodipodi:nodetypes="cccccccccc" />
    <path
       style="opacity:0.4;fill:#901111;fill-opacity:1;fill-rule:evenodd;stroke:#000000;stroke-width:0.97397828px;stroke-linecap:butt;stroke-linejoin:miter;stroke-opacity:1"
       d="m 302.12438,825.11794 -2.07646,-97.19759 c -1.03511,-25.12149 -12.15388,-38.99748 -26.30179,-39.85802 l -110.74439,0 C 137.2994,687.73651 124.2127,700.77379 124.2412,728.6196 l 0,96.49834 m 177.88318,0 c -1.22929,13.64598 -3.56797,26.47913 -25.60965,27.97053 L 149.85084,852.38921 C 130.3188,850.91736 124.20505,838.41452 124.2412,825.11794"
       id="path4136-8-4-2-3"
       inkscape:connector-curvature="0"
       sodipodi:nodetypes="cccccccccc" />
    <path
       style="opacity:0.4;fill:#ffffff;fill-opacity:1;stroke:#000000;stroke-width:1;stroke-linecap:butt;stroke-linejoin:miter;stroke-miterlimit:4;stroke-dasharray:none;stroke-dashoffset:0;stroke-opacity:1"
       d="m 212.85998,745.50677 a 30.03586,26.20475 0 0 0 -30.03516,26.20313 30.03586,26.20475 0 0 0 30.03516,26.20507 30.03586,26.20475 0 0 0 30.03711,-26.20507 30.03586,26.20475 0 0 0 -30.03711,-26.20313 z m 0,13.08008 a 14.676922,12.740881 0 0 1 14.67774,12.74023 14.676922,12.740881 0 0 1 -14.67774,12.74219 14.676922,12.740881 0 0 1 -14.67578,-12.74219 14.676922,12.740881 0 0 1 14.67578,-12.74023 z"
       id="path4334-0-1"
       inkscape:connector-curvature="0" />
    <path
       inkscape:connector-curvature="0"
       style="opacity:0.4;fill:#ffffff;fill-opacity:1;stroke:#000000;stroke-width:1;stroke-linecap:butt;stroke-linejoin:miter;stroke-miterlimit:4;stroke-dasharray:none;stroke-dashoffset:0;stroke-opacity:1"
       d="m 221.99037,714.10861 0.1647,10.93955 a 54.175214,46.561303 0 0 0 -8.59373,-0.61349 54.175214,46.561303 0 0 0 -12.42168,1.29219 l -2.94995,-10.19623 -24.33042,8.60454 8.40886,8.89196 a 54.175214,46.561303 0 0 0 -13.54372,11.9099 l -9.28214,-5.36199 -11.38838,21.14121 12.38335,1.35982 a 54.175214,46.561303 0 0 0 -1.05144,8.91974 54.175214,46.561303 0 0 0 2.09415,12.66468 l -11.70907,5.85954 15.3871,18.98856 6.39135,-8.16797 a 54.175214,46.561303 0 0 0 18.06882,12.39417 l -4.30527,9.77596 25.29647,5.94348 -0.89816,-11.01503 a 54.175214,46.561303 0 0 0 3.85013,0.11836 54.175214,46.561303 0 0 0 18.37874,-2.8229 l 5.83134,10.65393 21.90349,-12.8265 -9.93022,-6.98085 a 54.175214,46.561303 0 0 0 12.20521,-13.67126 l 11.80184,3.79324 5.77755,-22.90499 -11.91411,1.14064 a 54.175214,46.561303 0 0 0 0.12101,-2.94306 54.175214,46.561303 0 0 0 -2.54121,-14.04624 l 11.01931,-4.1024 -12.85194,-20.45285 -8.45725,8.52182 a 54.175214,46.561303 0 0 0 -13.18338,-9.64735 l 5.1268,-9.87318 -24.85815,-7.287 z m -8.42903,21.80905 a 40.486652,35.667214 0 0 1 40.4866,35.66688 40.486652,35.667214 0 0 1 -40.4866,35.66749 40.486652,35.667214 0 0 1 -40.48727,-35.66749 40.486652,35.667214 0 0 1 40.48727,-35.66688 z"
       id="path4334-7-4" />
    <path
       style="fill:#c10000;fill-opacity:1;fill-rule:evenodd;stroke:#000000;stroke-width:0.99768502px;stroke-linecap:butt;stroke-linejoin:miter;stroke-opacity:1"
       d="m 681.92563,825.97161 -2.12701,-99.56339 c -1.0603,-25.73295 -12.4497,-39.94669 -26.94197,-40.82817 l -113.43993,0 c -26.32793,-0.33375 -39.73317,13.02086 -39.70397,41.54444 l 0,98.84712 m 182.21288,0 c -1.25922,13.97812 -3.65482,27.12363 -26.233,28.65133 l -129.7469,-0.71628 c -20.00745,-1.50767 -26.27001,-14.31483 -26.23298,-27.93505"
       id="path4136-9-5-1-4-1"
       inkscape:connector-curvature="0"
       sodipodi:nodetypes="cccccccccc" />
    <path
       style="fill:#741111;fill-opacity:1;fill-rule:evenodd;stroke:#000000;stroke-width:0.97397828px;stroke-linecap:butt;stroke-linejoin:miter;stroke-opacity:1"
       d="m 679.25792,824.45441 -2.07646,-97.19759 c -1.03511,-25.12149 -12.15388,-38.99748 -26.30179,-39.85802 l -110.74439,0 c -25.70234,-0.32582 -38.78904,12.71146 -38.76054,40.55727 l 0,96.49834 m 177.88318,0 c -1.22929,13.64598 -3.56797,26.47913 -25.60965,27.97053 l -126.66389,-0.69926 c -19.53204,-1.47185 -25.64579,-13.97469 -25.60964,-27.27127"
       id="path4136-8-4-2-39"
       inkscape:connector-curvature="0"
       sodipodi:nodetypes="cccccccccc" />
    <ellipse
       style="opacity:1;fill:#eadbdb;fill-opacity:1;stroke:#000000;stroke-width:1;stroke-linecap:butt;stroke-linejoin:miter;stroke-miterlimit:4;stroke-dasharray:none;stroke-dashoffset:0;stroke-opacity:1"
       id="path4334-0-3"
       cx="591.04016"
       cy="771.047"
       rx="30.03586"
       ry="26.20475" />
    <ellipse
       style="opacity:1;fill:#741111;fill-opacity:1;stroke:#000000;stroke-width:1;stroke-linecap:butt;stroke-linejoin:miter;stroke-miterlimit:4;stroke-dasharray:none;stroke-dashoffset:0;stroke-opacity:1"
       id="path4334-6"
       cx="590.32587"
       cy="769.94965"
       rx="14.676922"
       ry="12.740881" />
    <path
       inkscape:connector-curvature="0"
       style="opacity:1;fill:#eadbdb;fill-opacity:1;stroke:#000000;stroke-width:1;stroke-linecap:butt;stroke-linejoin:miter;stroke-miterlimit:4;stroke-dasharray:none;stroke-dashoffset:0;stroke-opacity:1"
       d="m 599.12391,713.44508 0.1647,10.93955 a 54.175214,46.561303 0 0 0 -8.59373,-0.61349 54.175214,46.561303 0 0 0 -12.42168,1.29219 l -2.94995,-10.19623 -24.33042,8.60454 8.40886,8.89196 a 54.175214,46.561303 0 0 0 -13.54372,11.9099 l -9.28214,-5.36199 -11.38838,21.14121 12.38335,1.35982 a 54.175214,46.561303 0 0 0 -1.05144,8.91974 54.175214,46.561303 0 0 0 2.09415,12.66468 l -11.70907,5.85954 15.3871,18.98856 6.39135,-8.16797 a 54.175214,46.561303 0 0 0 18.06882,12.39417 l -4.30527,9.77596 25.29647,5.94348 -0.89816,-11.01503 a 54.175214,46.561303 0 0 0 3.85013,0.11836 54.175214,46.561303 0 0 0 18.37874,-2.8229 l 5.83134,10.65393 21.90349,-12.8265 -9.93022,-6.98085 a 54.175214,46.561303 0 0 0 12.20521,-13.67126 l 11.80184,3.79324 5.77755,-22.90499 -11.91411,1.14064 a 54.175214,46.561303 0 0 0 0.12101,-2.94306 54.175214,46.561303 0 0 0 -2.54121,-14.04624 l 11.01931,-4.1024 -12.85194,-20.45285 -8.45725,8.52182 a 54.175214,46.561303 0 0 0 -13.18338,-9.64735 l 5.1268,-9.87318 -24.85815,-7.287 z m -8.42903,21.80905 a 40.486652,35.667214 0 0 1 40.4866,35.66688 40.486652,35.667214 0 0 1 -40.4866,35.66749 40.486652,35.667214 0 0 1 -40.48727,-35.66749 40.486652,35.667214 0 0 1 40.48727,-35.66688 z"
       id="path4334-7-6" />
  </g>
</svg>
