<?xml version="1.0" encoding="UTF-8" standalone="no"?>
<!-- Created with Inkscape (http://www.inkscape.org/) -->

<svg
   xmlns:dc="http://purl.org/dc/elements/1.1/"
   xmlns:cc="http://creativecommons.org/ns#"
   xmlns:rdf="http://www.w3.org/1999/02/22-rdf-syntax-ns#"
   xmlns:svg="http://www.w3.org/2000/svg"
   xmlns="http://www.w3.org/2000/svg"
   xmlns:sodipodi="http://sodipodi.sourceforge.net/DTD/sodipodi-0.dtd"
   xmlns:inkscape="http://www.inkscape.org/namespaces/inkscape"
   width="159.95848mm"
   height="49.200497mm"
   viewBox="0 0 566.78202 174.33247"
   id="svg2"
   version="1.1"
   inkscape:version="0.91 r13725"
   inkscape:export-filename="C:\Users\Achille\Desktop\bitmap.png"
   inkscape:export-xdpi="599"
   inkscape:export-ydpi="599"
   sodipodi:docname="Icone Pause.svg">
  <defs
     id="defs4" />
  <sodipodi:namedview
     id="base"
     pagecolor="#ffffff"
     bordercolor="#666666"
     borderopacity="1.0"
     inkscape:pageopacity="0.0"
     inkscape:pageshadow="2"
     inkscape:zoom="1.979899"
     inkscape:cx="247.31616"
     inkscape:cy="104.16387"
     inkscape:document-units="px"
     inkscape:current-layer="layer1"
     showgrid="false"
     showguides="false"
     fit-margin-top="0"
     fit-margin-left="0"
     fit-margin-right="0"
     fit-margin-bottom="0"
     inkscape:window-width="1920"
     inkscape:window-height="1017"
     inkscape:window-x="1912"
     inkscape:window-y="-8"
     inkscape:window-maximized="1" />
  <metadata
     id="metadata7">
    <rdf:RDF>
      <cc:Work
         rdf:about="">
        <dc:format>image/svg+xml</dc:format>
        <dc:type
           rdf:resource="http://purl.org/dc/dcmitype/StillImage" />
        <dc:title />
      </cc:Work>
    </rdf:RDF>
  </metadata>
  <g
     inkscape:label="Calque 1"
     inkscape:groupmode="layer"
     id="layer1"
     transform="translate(-123.36352,-480.85375)">
    <path
       style="fill:#ff4300;fill-opacity:1;fill-rule:evenodd;stroke:#000000;stroke-width:0.99768502px;stroke-linecap:butt;stroke-linejoin:miter;stroke-opacity:1"
       d="m 496.7897,625.32166 -2.12701,-99.56339 c -1.0603,-25.73295 -12.4497,-39.94669 -26.94197,-40.82817 l -113.43993,0 c -26.32793,-0.33375 -39.73317,13.02086 -39.70397,41.54444 l 0,98.84712 m 182.21288,0 c -1.25922,13.97812 -3.65482,27.12363 -26.233,28.65133 l -129.7469,-0.71628 c -20.00745,-1.50767 -26.27001,-14.31483 -26.23298,-27.93505"
       id="path4136-9-5-1"
       inkscape:connector-curvature="0"
       sodipodi:nodetypes="cccccccccc"
       inkscape:export-filename="D:\Programation\JAVA\TheEndlessCastle\core\assets\textures\pauseOver.png"
       inkscape:export-xdpi="171.93329"
       inkscape:export-ydpi="171.93329" />
    <path
       style="fill:#351f1f;fill-opacity:0.54696129;fill-rule:evenodd;stroke:#000000;stroke-width:0.97397828px;stroke-linecap:butt;stroke-linejoin:miter;stroke-opacity:1"
       d="m 494.12199,623.80446 -2.07646,-97.19759 c -1.03511,-25.12149 -12.15388,-38.99748 -26.30179,-39.85802 l -110.74439,0 c -25.70234,-0.32582 -38.78904,12.71146 -38.76054,40.55727 l 0,96.49834 m 177.88318,0 c -1.22929,13.64598 -3.56797,26.47913 -25.60965,27.97053 l -126.66389,-0.69926 c -19.53204,-1.47185 -25.64579,-13.97469 -25.60964,-27.27127"
       id="path4136-8-4"
       inkscape:connector-curvature="0"
       sodipodi:nodetypes="cccccccccc"
       inkscape:export-filename="D:\Programation\JAVA\TheEndlessCastle\core\assets\textures\pauseOver.png"
       inkscape:export-xdpi="171.93329"
       inkscape:export-ydpi="171.93329" />
    <path
       style="fill:#ffffff;fill-opacity:1;fill-rule:evenodd;stroke:#000000;stroke-width:1px;stroke-linecap:butt;stroke-linejoin:miter;stroke-opacity:1"
       d="m 361.38986,534.46034 -1.42857,77.14286 37.85714,-0.71429 -7.14285,-80 z"
       id="path4163"
       inkscape:connector-curvature="0"
       inkscape:export-filename="D:\Programation\JAVA\TheEndlessCastle\core\assets\textures\pauseOver.png"
       inkscape:export-xdpi="171.93329"
       inkscape:export-ydpi="171.93329" />
    <path
       style="fill:#ffffff;fill-opacity:1;fill-rule:evenodd;stroke:#000000;stroke-width:1px;stroke-linecap:butt;stroke-linejoin:miter;stroke-opacity:1"
       d="m 413.53272,530.88891 6.42857,80.71429 32.85715,2.14285 -3.57143,-79.28571 z"
       id="path4165"
       inkscape:connector-curvature="0"
       inkscape:export-filename="D:\Programation\JAVA\TheEndlessCastle\core\assets\textures\pauseOver.png"
       inkscape:export-xdpi="171.93329"
       inkscape:export-ydpi="171.93329" />
    <path
       style="fill:#c10000;fill-opacity:1;fill-rule:evenodd;stroke:#000000;stroke-width:0.99768502px;stroke-linecap:butt;stroke-linejoin:miter;stroke-opacity:1"
       d="m 689.64684,626.03595 -2.12701,-99.56339 c -1.0603,-25.73295 -12.4497,-39.94669 -26.94197,-40.82817 l -113.43993,0 c -26.32793,-0.33375 -39.73317,13.02086 -39.70397,41.54444 l 0,98.84712 m 182.21288,0 c -1.25922,13.97812 -3.65482,27.12363 -26.233,28.65133 L 533.66694,653.971 c -20.00745,-1.50767 -26.27001,-14.31483 -26.23298,-27.93505"
       id="path4136-9-5-1-8"
       inkscape:connector-curvature="0"
       sodipodi:nodetypes="cccccccccc"
       inkscape:export-filename="D:\Programation\JAVA\TheEndlessCastle\core\assets\textures\pausePressed.png"
       inkscape:export-xdpi="171.93329"
       inkscape:export-ydpi="171.93329" />
    <path
       style="fill:#741111;fill-opacity:1;fill-rule:evenodd;stroke:#000000;stroke-width:0.97397828px;stroke-linecap:butt;stroke-linejoin:miter;stroke-opacity:1"
       d="m 686.97913,624.51875 -2.07646,-97.19759 c -1.03511,-25.12149 -12.15388,-38.99748 -26.30179,-39.85802 l -110.74439,0 c -25.70234,-0.32582 -38.78904,12.71146 -38.76054,40.55727 l 0,96.49834 m 177.88318,0 c -1.22929,13.64598 -3.56797,26.47913 -25.60965,27.97053 l -126.66389,-0.69926 c -19.53204,-1.47185 -25.64579,-13.97469 -25.60964,-27.27127"
       id="path4136-8-4-6"
       inkscape:connector-curvature="0"
       sodipodi:nodetypes="cccccccccc"
       inkscape:export-filename="D:\Programation\JAVA\TheEndlessCastle\core\assets\textures\pausePressed.png"
       inkscape:export-xdpi="171.93329"
       inkscape:export-ydpi="171.93329" />
    <path
       style="fill:#eadbdb;fill-opacity:1;fill-rule:evenodd;stroke:#000000;stroke-width:1px;stroke-linecap:butt;stroke-linejoin:miter;stroke-opacity:1"
       d="m 554.247,535.17463 -1.42857,77.14286 37.85714,-0.71429 -7.14285,-80 z"
       id="path4163-6"
       inkscape:connector-curvature="0"
       inkscape:export-filename="D:\Programation\JAVA\TheEndlessCastle\core\assets\textures\pausePressed.png"
       inkscape:export-xdpi="171.93329"
       inkscape:export-ydpi="171.93329" />
    <path
       style="fill:#eadbdb;fill-opacity:1;fill-rule:evenodd;stroke:#000000;stroke-width:1px;stroke-linecap:butt;stroke-linejoin:miter;stroke-opacity:1"
       d="m 606.38986,531.6032 6.42857,80.71429 32.85715,2.14285 -3.57143,-79.28571 z"
       id="path4165-9"
       inkscape:connector-curvature="0"
       inkscape:export-filename="D:\Programation\JAVA\TheEndlessCastle\core\assets\textures\pausePressed.png"
       inkscape:export-xdpi="171.93329"
       inkscape:export-ydpi="171.93329" />
    <path
       style="opacity:0.4;fill:#ff0000;fill-opacity:1;fill-rule:evenodd;stroke:#000000;stroke-width:0.99768502px;stroke-linecap:butt;stroke-linejoin:miter;stroke-opacity:1"
       d="m 306.07541,621.75023 -2.12701,-99.56339 c -1.0603,-25.73295 -12.4497,-39.94669 -26.94197,-40.82817 l -113.43993,0 c -26.32793,-0.33375 -39.73317,13.02086 -39.70397,41.54444 l 0,98.84712 m 182.21288,0 c -1.25922,13.97812 -3.65482,27.12363 -26.233,28.65133 l -129.7469,-0.71628 c -20.00745,-1.50767 -26.27001,-14.31483 -26.23298,-27.93505"
       id="path4136-9-5-1-0"
       inkscape:connector-curvature="0"
       sodipodi:nodetypes="cccccccccc"
       inkscape:export-filename="D:\Programation\JAVA\TheEndlessCastle\core\assets\textures\pauseNormal.png"
       inkscape:export-xdpi="171.93329"
       inkscape:export-ydpi="171.93329" />
    <path
       style="opacity:0.4;fill:#901111;fill-opacity:1;fill-rule:evenodd;stroke:#000000;stroke-width:0.97397828px;stroke-linecap:butt;stroke-linejoin:miter;stroke-opacity:1"
       d="m 303.4077,620.23303 -2.07646,-97.19759 c -1.03511,-25.12149 -12.15388,-38.99748 -26.30179,-39.85802 l -110.74439,0 c -25.70234,-0.32582 -38.78904,12.71146 -38.76054,40.55727 l 0,96.49834 m 177.88318,0 c -1.22929,13.64598 -3.56797,26.47913 -25.60965,27.97053 L 151.13416,647.5043 c -19.53204,-1.47185 -25.64579,-13.97469 -25.60964,-27.27127"
       id="path4136-8-4-4"
       inkscape:connector-curvature="0"
       sodipodi:nodetypes="cccccccccc"
       inkscape:export-filename="D:\Programation\JAVA\TheEndlessCastle\core\assets\textures\pauseNormal.png"
       inkscape:export-xdpi="171.93329"
       inkscape:export-ydpi="171.93329" />
    <path
       style="opacity:0.4;fill:#ffffff;fill-opacity:1;fill-rule:evenodd;stroke:#000000;stroke-width:1px;stroke-linecap:butt;stroke-linejoin:miter;stroke-opacity:1"
       d="m 170.67557,530.88891 -1.42857,77.14286 37.85714,-0.71429 -7.14285,-80 z"
       id="path4163-7"
       inkscape:connector-curvature="0"
       inkscape:export-filename="D:\Programation\JAVA\TheEndlessCastle\core\assets\textures\pauseNormal.png"
       inkscape:export-xdpi="171.93329"
       inkscape:export-ydpi="171.93329" />
    <path
       style="opacity:0.4;fill:#ffffff;fill-opacity:1;fill-rule:evenodd;stroke:#000000;stroke-width:1px;stroke-linecap:butt;stroke-linejoin:miter;stroke-opacity:1"
       d="m 222.81843,527.31748 6.42857,80.71429 32.85715,2.14285 -3.57143,-79.28571 z"
       id="path4165-3"
       inkscape:connector-curvature="0"
       inkscape:export-filename="D:\Programation\JAVA\TheEndlessCastle\core\assets\textures\pauseNormal.png"
       inkscape:export-xdpi="171.93329"
       inkscape:export-ydpi="171.93329" />
  </g>
</svg>
