<?xml version="1.0" encoding="UTF-8" standalone="no"?>
<!-- Created with Inkscape (http://www.inkscape.org/) -->

<svg
   xmlns:dc="http://purl.org/dc/elements/1.1/"
   xmlns:cc="http://creativecommons.org/ns#"
   xmlns:rdf="http://www.w3.org/1999/02/22-rdf-syntax-ns#"
   xmlns:svg="http://www.w3.org/2000/svg"
   xmlns="http://www.w3.org/2000/svg"
   xmlns:sodipodi="http://sodipodi.sourceforge.net/DTD/sodipodi-0.dtd"
   xmlns:inkscape="http://www.inkscape.org/namespaces/inkscape"
   id="svg3344"
   version="1.1"
   inkscape:version="0.91 r13725"
   width="687.75641"
   height="399.40497"
   viewBox="0 0 687.75641 399.40497"
   sodipodi:docname="remparts2.svg">
  <metadata
     id="metadata3350">
    <rdf:RDF>
      <cc:Work
         rdf:about="">
        <dc:format>image/svg+xml</dc:format>
        <dc:type
           rdf:resource="http://purl.org/dc/dcmitype/StillImage" />
        <dc:title />
      </cc:Work>
    </rdf:RDF>
  </metadata>
  <defs
     id="defs3348" />
  <sodipodi:namedview
     pagecolor="#ffffff"
     bordercolor="#666666"
     borderopacity="1"
     objecttolerance="10"
     gridtolerance="10"
     guidetolerance="10"
     inkscape:pageopacity="0"
     inkscape:pageshadow="2"
     inkscape:window-width="1920"
     inkscape:window-height="1017"
     id="namedview3346"
     showgrid="false"
     inkscape:zoom="0.70710678"
     inkscape:cx="884.72799"
     inkscape:cy="281.19702"
     inkscape:window-x="1912"
     inkscape:window-y="-8"
     inkscape:window-maximized="1"
     inkscape:current-layer="svg3344"
     fit-margin-top="0"
     fit-margin-left="0"
     fit-margin-right="0"
     fit-margin-bottom="0"
     showguides="false" />
  <g
     inkscape:groupmode="layer"
     id="layer1"
     inkscape:label="Layer 1"
     transform="translate(566.29811,182.53483)" />
  <path
     style="fill:#917c6f"
     d=""
     id="path3545"
     inkscape:connector-curvature="0" />
  <path
     style="fill:#917c6f"
     d=""
     id="path3557"
     inkscape:connector-curvature="0" />
  <path
     style="fill:#917c6f"
     d=""
     id="path3559"
     inkscape:connector-curvature="0" />
  <path
     style="fill:#917c6f"
     d=""
     id="path3563"
     inkscape:connector-curvature="0" />
  <path
     style="fill:#483e37"
     d=""
     id="path3627"
     inkscape:connector-curvature="0" />
  <g
     id="g4366">
    <path
       inkscape:connector-curvature="0"
       id="path3587"
       d="m 75.305629,44.585666 c 0,-0.08644 3.763701,-5.083238 5.77812,-8.307256 l 3.662577,-5.86185 17.396564,-0.200878 19.33942,-0.546273 c -0.4105,3.275524 -0.35209,6.9312 -0.49372,10.046016 -0.30291,0.300785 -45.682971,5.145162 -45.682971,4.870241 z"
       style="fill:#483e37;fill-opacity:1;stroke:#eeebea;stroke-width:2.5;stroke-linecap:round;stroke-linejoin:round;stroke-miterlimit:4;stroke-dasharray:none;stroke-opacity:1"
       sodipodi:nodetypes="csccccsc" />
    <path
       sodipodi:nodetypes="csccscsssccccsssccscsscccccccsssccccc"
       inkscape:connector-curvature="0"
       id="path5074"
       d="m 112.44269,100.98314 c -0.91887,-5.096637 -2.21943,-12.481544 -2.89016,-16.410915 -0.67071,-3.929372 -0.85668,-6.718754 -1.23415,-6.497156 C 107.31783,78.662493 9.0002444,83.748123 8.5403895,83.215918 8.3269117,82.96887 9.2128965,74.8584 10.403696,67.197876 l 2.165079,-13.928234 17.013133,-0.60467 c 9.357215,-0.33256 72.771692,-0.854101 140.921052,-1.158971 68.14935,-0.30487 210.53976,-1.096749 316.4231,-1.759739 105.88333,-0.662981 192.71686,-1.00374 192.96337,-0.757231 -2.79039,21.499782 -5.769,37.758542 -9.59705,60.731219 -11.98678,0.19246 -23.97356,0.38492 -35.96034,0.57739 -1.95453,-9.80557 -4.55789,-19.430777 -7.34053,-29.022113 -0.42371,-1.518475 1.93601,-0.605344 -45.86268,-1.377216 -47.96537,-0.774573 -50.79208,-2.166209 -51.61658,-1.341707 -0.74941,0.749412 -1.96534,5.956891 -3.42764,13.263629 l -3.69176,18.446777 c -9.26028,-1.21876 -37.49184,-3.13213 -50.93005,-3.91756 -0.14238,-0.16726 -3.01274,-6.0894 -5.27044,-13.002002 -3.05814,-9.363498 -3.04754,-12.979942 -4.62551,-13.551566 -1.16495,-0.421986 -23.86757,-1.786773 -50.66134,-2.769013 -26.79376,-0.98223 -50.12285,-0.613504 -52.61241,-0.450436 -4.56155,0.298777 -5.77702,1.06594 -6.02125,1.783073 -0.56467,1.180888 -4.2826,9.802073 -6.34754,14.749994 l -6.76594,15.30638 -17.09548,0 -17.09544,0 -8.12885,-16.175581 -6.91997,-15.350399 -5.16716,0.243668 c -2.84196,0.134009 -24.94478,0.97044 -49.11742,1.858722 -24.17264,0.888281 -47.77029,1.884391 -52.43923,2.213588 l -8.48896,0.598514 c -3.904,11.18326 -5.50074,19.921438 -8.69283,30.755178 -16.73445,-0.29771 -34.62825,-0.75889 -51.38162,-1.27365 l -2.18872,-10.30281 z"
       style="fill:#a6958b;fill-opacity:1;stroke:#eeebea;stroke-width:2.5;stroke-linecap:round;stroke-linejoin:round;stroke-miterlimit:4;stroke-dasharray:none;stroke-opacity:1" />
    <path
       inkscape:connector-curvature="0"
       id="path3443"
       d="m 573.3603,36.661593 -0.75411,10.483878"
       style="fill:none;fill-rule:evenodd;stroke:#eeebea;stroke-width:2.5;stroke-linecap:round;stroke-linejoin:round;stroke-miterlimit:4;stroke-dasharray:none;stroke-opacity:1" />
    <path
       sodipodi:nodetypes="ccscccccc"
       inkscape:connector-curvature="0"
       id="path3515"
       d="m 178.57926,94.688215 c 0.33629,-0.336877 108.06182,1.151889 108.39193,1.479675 0.1949,0.193548 1.71128,7.34376 4.66732,14.86631 l 6.68755,17.01854 c 0.003,6.36521 0.093,10.13995 0.0965,16.50516 -45.18722,0.68284 -90.56982,0.11759 -136.17041,-0.0191 0.62754,-18.76728 5.54468,-25.03763 8.42498,-32.39857 1.29108,-2.8732 5.34939,-12.769501 7.90221,-17.452005 z"
       style="fill:#917c6f;fill-opacity:1;stroke:#eeebea;stroke-width:2.5;stroke-linecap:round;stroke-linejoin:round;stroke-miterlimit:4;stroke-dasharray:none;stroke-opacity:1" />
    <path
       sodipodi:nodetypes="csssscccccc"
       inkscape:connector-curvature="0"
       id="path3519"
       d="m 522.60254,125.68474 8.29779,-19.31552 c 4.12881,-9.610995 6.41894,-18.25214 6.60708,-18.066532 0.18814,0.185608 16.51044,-0.0827 35.79685,0.564794 19.2864,0.647444 38.72209,1.178029 43.79272,1.430756 l 9.21933,0.459496 0.26812,28.097606 0.20706,26.5101 -51.58045,-3.2e-4 -52.74054,-0.36667 c -0.14397,-6.53923 -0.0672,-12.77379 0.13204,-19.31371 z"
       style="fill:#917c6f;fill-opacity:1;stroke:#eeebea;stroke-width:2.5;stroke-linecap:round;stroke-linejoin:round;stroke-miterlimit:4;stroke-dasharray:none;stroke-opacity:1" />
    <path
       sodipodi:nodetypes="ccccsscc"
       inkscape:connector-curvature="0"
       id="path3521"
       d="m 493.15766,144.80347 -28.0582,0.4049 c -0.74141,-5.67859 -1.12551,-12.97295 -1.59723,-18.59399 17.49755,1.14241 39.78109,0.24745 59.21114,-0.79288 l -0.36634,10.93195 c -0.15864,4.73381 -0.25452,8.53174 -0.56558,8.43394 -0.31107,-0.0978 -13.19177,-0.27038 -28.62379,-0.38351 z"
       style="fill:#917c6f;fill-opacity:1;stroke:#eeebea;stroke-width:2.5;stroke-linecap:round;stroke-linejoin:round;stroke-miterlimit:4;stroke-dasharray:none;stroke-opacity:1" />
    <path
       sodipodi:nodetypes="ssscscccs"
       inkscape:connector-curvature="0"
       id="path3525"
       d="m 106.55271,142.93105 c -0.63411,-2.34972 -1.25745,-10.46405 -0.58896,-11.49954 0.389,-0.60257 9.53581,-0.76476 29.0792,-1.15516 26.14836,-0.52233 27.80421,-0.47797 27.33654,0.73224 -0.2738,0.70854 -0.49782,4.99694 -0.49782,8.05225 l 0,5.55512 -27.43712,0 -27.43713,0 z"
       style="fill:#917c6f;fill-opacity:1;stroke:#eeebea;stroke-width:2.5;stroke-linecap:round;stroke-linejoin:round;stroke-miterlimit:4;stroke-dasharray:none;stroke-opacity:1" />
    <path
       sodipodi:nodetypes="ccccc"
       inkscape:connector-curvature="0"
       id="path3527"
       d="m 18.25565,13.758719 c 19.412646,0.518178 34.370656,0.806178 52.895293,1.457617 1.495795,12.297918 2.667612,28.480115 2.863567,36.903261 -21.487939,0.259202 -38.881786,0.343382 -61.414658,1.021457 2.228028,-13.678523 3.813871,-25.721478 5.655798,-39.382335 z"
       style="fill:#917c6f;fill-opacity:1;stroke:#eeebea;stroke-width:2.5;stroke-linecap:round;stroke-linejoin:round;stroke-miterlimit:4;stroke-dasharray:none;stroke-opacity:1" />
    <path
       sodipodi:nodetypes="ccccc"
       inkscape:connector-curvature="0"
       id="path3529"
       d="m 122.54674,13.892683 73.76995,1.172482 c 1.27903,11.12301 2.18144,25.053045 2.80676,36.155114 -22.05597,0.06264 -6.20075,-1.052453 -77.0682,0.295973 -2.23151,-12.524841 -0.0102,-26.633488 0.49149,-37.623569 z"
       style="fill:#917c6f;fill-opacity:1;stroke:#eeebea;stroke-width:2.5;stroke-linecap:round;stroke-linejoin:round;stroke-miterlimit:4;stroke-dasharray:none;stroke-opacity:1" />
    <path
       sodipodi:nodetypes="ccccssccc"
       inkscape:connector-curvature="0"
       id="path3533"
       d="m 338.32213,37.152848 c 0.42405,-2.277951 2.22571,-7.959419 2.38321,-9.978746 0.42912,-4.049139 1.50999,-10.107674 2.07206,-14.140187 23.64209,0.935326 47.55527,1.320811 70.94425,0.880801 l 5.89836,12.548291 c 5.08503,10.817992 5.94101,12.04507 6.10954,16.574552 l 0.26516,7.127052 c -29.56431,-0.597112 -61.96881,-0.753848 -87.78068,0.233896 -0.37063,-7.008457 -0.76212,-8.394531 0.1081,-13.245659 z"
       style="fill:#917c6f;fill-opacity:1;stroke:#eeebea;stroke-width:2.5;stroke-linecap:round;stroke-linejoin:round;stroke-miterlimit:4;stroke-dasharray:none;stroke-opacity:1" />
    <path
       sodipodi:nodetypes="ccccccc"
       inkscape:connector-curvature="0"
       id="path3535"
       d="m 460.24212,25.819557 2.97592,-9.973975 c 27.64923,-2.06237 45.80724,-2.115168 68.2601,-2.068777 2.75765,6.995095 3.69414,16.809828 6.79633,22.5931 0.93323,3.703356 1.10051,8.951808 1.10051,12.921476 -23.91118,-0.275522 -58.93057,-0.04899 -82.48571,0.535079 -1.67975,-8.13555 1.61981,-18.20044 3.35285,-24.006903 z"
       style="fill:#917c6f;fill-opacity:1;stroke:#eeebea;stroke-width:2.5;stroke-linecap:round;stroke-linejoin:round;stroke-miterlimit:4;stroke-dasharray:none;stroke-opacity:1" />
    <path
       sodipodi:nodetypes="ccscscsscc"
       inkscape:connector-curvature="0"
       id="path3543"
       d="m 111.57134,121.04425 3.93247,-9.56798 24.13156,0.53962 c 13.27238,0.29679 26.03464,0.47131 26.17701,0.60849 0.14238,0.1372 -1.09848,4.20402 -1.90035,8.72229 l -1.47166,8.29232 -19.39189,0 c -10.66553,0 -22.99587,0.21897 -27.40074,0.48661 l -8.00885,0.4866 z"
       style="fill:#483e37;fill-opacity:1;stroke:#eeebea;stroke-width:2.5;stroke-linecap:round;stroke-linejoin:round;stroke-miterlimit:4;stroke-dasharray:none;stroke-opacity:1" />
    <path
       sodipodi:nodetypes="cscscscc"
       inkscape:connector-curvature="0"
       id="path3547"
       d="m 105.66359,131.96967 c -0.295,-5.50645 -0.80202,-12.99185 -1.74176,-21.29935 l -2.36726,-17.614619 2.84698,-4.937171 c 1.56762,-2.718524 3.12593,-7.795104 3.15028,-7.383248 0.0244,-0.883361 2.27257,8.20235 3.71315,16.043952 l 2.81662,15.331926 c -3.24043,5.91355 -5.84425,14.22451 -8.41801,19.85851 z"
       style="fill:#483e37;fill-opacity:1;stroke:#eeebea;stroke-width:2.5;stroke-linecap:round;stroke-linejoin:round;stroke-miterlimit:4;stroke-dasharray:none;stroke-opacity:1" />
    <path
       sodipodi:nodetypes="sscssss"
       inkscape:connector-curvature="0"
       id="path3549"
       d="m 162.7133,131.15025 c -0.0967,-5.21644 3.49074,-21.2011 6.99532,-32.284066 l 5.21063,-16.478258 1.8567,7.870853 c 0.5923,2.510865 1.18168,4.463066 1.4467,4.720443 0.265,0.257368 -3.22859,7.367798 -6.20656,14.037728 -7.78006,17.42552 -9.27037,23.88313 -9.30279,22.1333 z"
       style="fill:#6c5d53;fill-opacity:1;stroke:#eeebea;stroke-width:2.5;stroke-linecap:round;stroke-linejoin:round;stroke-miterlimit:4;stroke-dasharray:none;stroke-opacity:1" />
    <path
       sodipodi:nodetypes="ssccss"
       inkscape:connector-curvature="0"
       id="path3551"
       d="m 178.12738,94.255889 c -0.5687,-1.789962 -2.53712,-12.042101 -2.27646,-12.300939 0.38475,-0.382066 111.93037,-5.453036 113.58668,-4.308267 -0.68616,5.966341 -2.0878,11.930422 -2.50634,18.392679 L 231.87993,95.19195 c -42.09777,-0.648014 -53.5183,-0.198788 -53.75255,-0.936061 z"
       style="fill:#6c5d53;fill-opacity:1;stroke:#eeebea;stroke-width:2.5;stroke-linecap:round;stroke-linejoin:round;stroke-miterlimit:4;stroke-dasharray:none;stroke-opacity:1" />
    <path
       sodipodi:nodetypes="cccscscc"
       inkscape:connector-curvature="0"
       id="path3553"
       d="m 287.09745,95.875203 1.91433,-8.446497 1.08227,-10.365107 7.17698,14.943182 c 3.2902,6.850543 7.78964,14.579169 7.7922,15.402909 0.003,0.82373 -1.16582,5.7553 -2.36308,9.0949 l -4.32157,12.05445 c -3.40161,-8.85074 -9.58914,-24.13838 -11.28113,-32.683837 z"
       style="fill:#483e37;fill-opacity:1;stroke:#eeebea;stroke-width:2.5;stroke-linecap:round;stroke-linejoin:round;stroke-miterlimit:4;stroke-dasharray:none;stroke-opacity:1" />
    <path
       sodipodi:nodetypes="csccccc"
       inkscape:connector-curvature="0"
       id="path3555"
       d="m 298.62059,128.38872 c 0.20118,-0.52062 2.07486,-4.26477 3.99274,-11.30347 l 2.70854,-9.94047 c 11.5035,0.29511 22.71153,0.0476 34.1638,0.12211 l 0.36634,10.76493 0.6908,10.48315 c -4.13432,-0.12657 -33.71591,0.98137 -41.92222,-0.12625 z"
       style="fill:#483e37;fill-opacity:1;stroke:#eeebea;stroke-width:2.5;stroke-linecap:round;stroke-linejoin:round;stroke-miterlimit:4;stroke-dasharray:none;stroke-opacity:1" />
    <path
       sodipodi:nodetypes="ccsscc"
       inkscape:connector-curvature="0"
       id="path3561"
       d="m 340.00307,107.34863 c 4.48474,-9.773474 8.49852,-19.470148 12.48756,-29.319931 l 0.98373,8.494176 c 0.49948,4.312828 -2.11689,7.15347 -5.98166,21.082395 l -7.05356,25.42162 c 0.325,-7.78421 -0.37186,-17.95354 -0.43607,-25.67826 z"
       style="fill:#6c5d53;fill-opacity:1;stroke:#eeebea;stroke-width:2.5;stroke-linecap:round;stroke-linejoin:round;stroke-miterlimit:4;stroke-dasharray:none;stroke-opacity:1" />
    <path
       sodipodi:nodetypes="cccccc"
       inkscape:connector-curvature="0"
       id="path3575"
       d="m 463.67311,126.02012 c 0,-0.4923 6.88562,-19.23616 7.22347,-19.71371 17.42434,1.57446 34.7477,2.37447 52.14351,4.24682 l 0.0495,7.71969 c -0.006,3.5742 -0.26086,6.87806 -0.56558,7.3419 0,2.44253 -51.04897,0.96394 -58.85088,0.4053 z"
       style="fill:#483e37;fill-opacity:1;stroke:#eeebea;stroke-width:2.5;stroke-linecap:round;stroke-linejoin:round;stroke-miterlimit:4;stroke-dasharray:none;stroke-opacity:1" />
    <path
       inkscape:connector-curvature="0"
       id="path3577"
       d="m 522.99008,121.12227 c 0,-2.87741 -0.0266,-10.89228 -0.0266,-12.05239 0,-0.66762 5.78135,-29.626075 6.60484,-30.443827 0.15485,-0.153758 2.6432,3.591935 4.11534,5.186019 l 3.79444,4.10877 c -4.28369,11.861733 -7.84497,22.063698 -14.28446,35.728548 -0.15469,0.18484 -0.20357,-0.16361 -0.20357,-2.52712 z"
       style="fill:#6c5d53;fill-opacity:1;stroke:#eeebea;stroke-width:2.5;stroke-linecap:round;stroke-linejoin:round;stroke-miterlimit:4;stroke-dasharray:none;stroke-opacity:1"
       sodipodi:nodetypes="sscsccs" />
    <path
       sodipodi:nodetypes="csccccscsccc"
       inkscape:connector-curvature="0"
       id="path3581"
       d="m 587.20063,89.155269 c -20.11592,-0.732642 -39.25582,-0.754772 -42.8497,-0.787502 l -6.53432,-0.0599 -3.41898,-4.535896 -4.80056,-5.226688 2.15314,-0.266437 c 1.18423,-0.146529 24.36218,1.177818 49.35111,1.511155 l 45.31311,0.604454 0,5.152179 c 0,4.447896 -0.008,5.137729 -1.147,5.04643 -0.72583,-0.0582 -17.95087,-0.705173 -38.0668,-1.437826 z"
       style="fill:#6c5d53;fill-opacity:1;stroke:#eeebea;stroke-width:2.5;stroke-linecap:round;stroke-linejoin:round;stroke-miterlimit:4;stroke-dasharray:none;stroke-opacity:1" />
    <path
       sodipodi:nodetypes="ccccc"
       inkscape:connector-curvature="0"
       id="path3585"
       d="M 74.063915,45.976162 C 73.169753,31.929663 72.0329,23.413214 71.358912,16.101452 72.59258,14.65134 77.308971,7.5515762 77.566768,8.8501994 79.787374,16.114026 82.940127,22.566983 84.59481,30.326499 81.320087,35.753061 76.001277,43.510322 74.063915,45.976162 Z"
       style="fill:#483e37;fill-opacity:1;stroke:#eeebea;stroke-width:2.5;stroke-linecap:round;stroke-linejoin:round;stroke-miterlimit:4;stroke-dasharray:none;stroke-opacity:1" />
    <path
       sodipodi:nodetypes="cssccc"
       inkscape:connector-curvature="0"
       id="path3589"
       d="m 209.40689,30.307301 8.44181,-0.265165 c 8.88128,-0.27897 10.1708,-0.562652 8.7971,4.238361 l -1.35987,4.752725 c -7.65809,0.02701 -17.55827,-0.131288 -25.13922,1.024999 2.79059,-2.836101 6.43559,-6.826385 9.26018,-9.75092 z"
       style="fill:#483e37;fill-opacity:1;stroke:#eeebea;stroke-width:2.5;stroke-linecap:round;stroke-linejoin:round;stroke-miterlimit:4;stroke-dasharray:none;stroke-opacity:1" />
    <path
       sodipodi:nodetypes="ccccc"
       inkscape:connector-curvature="0"
       id="path3593"
       d="m 128.60578,7.8926849 c 24.20233,-0.6169619 49.73419,0.049349 73.75218,-0.3386287 -1.48028,2.7596198 -4.61665,6.1670578 -6.15452,7.2946628 -24.70443,0 -48.90393,-1.022204 -73.60837,-1.022204 z"
       style="fill:#6c5d53;fill-opacity:1;stroke:#eeebea;stroke-width:2.5;stroke-linecap:round;stroke-linejoin:round;stroke-miterlimit:4;stroke-dasharray:none;stroke-opacity:1" />
    <path
       sodipodi:nodetypes="ccccc"
       inkscape:connector-curvature="0"
       id="path3595"
       d="m 297.37448,13.679461 c 1.095,-2.963278 2.39416,-5.8233618 3.77682,-8.6582368 2.5238,18.1018118 5.66973,22.3001298 5.157,24.2136568 -0.42454,1.373624 -3.86465,10.46441 -4.1292,10.46441 -1.60125,-6.84626 -2.99146,-18.408922 -4.80462,-26.01983 z"
       style="fill:#483e37;fill-opacity:1;stroke:#eeebea;stroke-width:2.5;stroke-linecap:round;stroke-linejoin:round;stroke-miterlimit:4;stroke-dasharray:none;stroke-opacity:1" />
    <path
       sodipodi:nodetypes="ccccc"
       inkscape:connector-curvature="0"
       id="path3597"
       d="m 344.35519,5.850858 c 0.54109,-0.5860032 73.29182,0.8990161 73.90257,1.5055062 -0.89701,2.4802425 -2.83495,4.1770088 -4.39668,6.5204638 -23.34645,0.246665 -47.74417,-0.515609 -71.08503,-0.928078 0.40251,-2.378782 0.79522,-4.8783519 1.57914,-7.097892 z"
       style="fill:#6c5d53;fill-opacity:1;stroke:#eeebea;stroke-width:2.5;stroke-linecap:round;stroke-linejoin:round;stroke-miterlimit:4;stroke-dasharray:none;stroke-opacity:1" />
    <path
       sodipodi:nodetypes="scsssss"
       inkscape:connector-curvature="0"
       id="path3599"
       d="m 420.17858,26.913534 -5.76988,-12.877891 2.16577,-3.570935 c 2.37878,-3.9221498 2.95306,-2.5125747 7.6579,9.21439 2.7841,6.93947 3.1677,8.917549 2.72717,12.418846 -0.27281,2.168285 -0.90872,5.400744 -1.19707,5.400744 -0.28834,0 -3.08813,-5.014842 -5.58389,-10.585154 z"
       style="fill:#483e37;fill-opacity:1;stroke:#eeebea;stroke-width:2.5;stroke-linecap:round;stroke-linejoin:round;stroke-miterlimit:4;stroke-dasharray:none;stroke-opacity:1" />
    <path
       sodipodi:nodetypes="csccc"
       inkscape:connector-curvature="0"
       id="path3601"
       d="m 427.83828,27.841968 c 0.42273,-0.556389 23.4617,-2.968979 23.93521,-2.485013 0.68375,0.698865 4.52358,10.097382 4.2248,10.363403 -9.19305,-0.07757 -19.6526,1.361434 -29.49743,1.14995 0.51074,-2.583398 0.68522,-6.486065 1.33742,-9.02834 z"
       style="fill:#483e37;fill-opacity:1;stroke:#eeebea;stroke-width:2.5;stroke-linecap:round;stroke-linejoin:round;stroke-miterlimit:4;stroke-dasharray:none;stroke-opacity:1" />
    <path
       sodipodi:nodetypes="ccccc"
       inkscape:connector-curvature="0"
       id="path3603"
       d="m 452.35274,25.358754 c 1.1342,-4.7286 3.43296,-14.30091 4.97452,-18.8911711 2.38408,1.9544058 4.04011,6.4923651 5.98521,9.1929771 -1.78372,5.244848 -4.4106,15.608396 -6.48888,20.730082 -1.34953,-2.720878 -3.25438,-7.800418 -4.47085,-11.031888 z"
       style="fill:#6c5d53;fill-opacity:1;stroke:#eeebea;stroke-width:2.5;stroke-linecap:round;stroke-linejoin:round;stroke-miterlimit:4;stroke-dasharray:none;stroke-opacity:1" />
    <path
       sodipodi:nodetypes="ccccc"
       inkscape:connector-curvature="0"
       id="path3607"
       d="m 457.47978,6.4534081 c 28.0237,-0.6209729 51.07338,0.3409536 80.41617,0.7734843 l -6.52589,6.4391146 c -22.18056,0.601261 -45.50581,0.08054 -67.65464,1.496906 z"
       style="fill:#6c5d53;fill-opacity:1;stroke:#eeebea;stroke-width:2.5;stroke-linecap:round;stroke-linejoin:round;stroke-miterlimit:4;stroke-dasharray:none;stroke-opacity:1" />
    <path
       sodipodi:nodetypes="sccscsss"
       inkscape:connector-curvature="0"
       id="path3609"
       d="m 553.87244,35.472595 -14.69214,0.793721 c 0.50933,-1.831341 2.37885,-4.611148 1.46961,-6.397848 -0.22932,-0.227714 7.85181,-2.072878 16.1619,-2.072878 l 15.46281,-0.0442 0.0697,2.852376 c 0.14489,5.931828 3.06346,5.932081 -2.29969,5.260361 -1.54604,-0.193638 -8.84248,-0.787511 -16.17215,-0.391537 z"
       style="fill:#483e37;fill-opacity:1;stroke:#eeebea;stroke-width:2.5;stroke-linecap:round;stroke-linejoin:round;stroke-miterlimit:4;stroke-dasharray:none;stroke-opacity:1" />
    <path
       sodipodi:nodetypes="cccccc"
       inkscape:connector-curvature="0"
       id="path3611"
       d="m 532.19749,13.797706 c 1.54386,-2.528934 3.61712,-4.2349486 5.76377,-6.3010472 l 1.97002,19.6203462 c 0.38625,1.742862 0.73804,3.912388 0.48715,4.734639 l -1.6593,5.228426 c -2.93093,-4.686816 -5.25174,-16.65478 -6.56164,-23.282364 z"
       style="fill:#483e37;fill-opacity:1;stroke:#eeebea;stroke-width:2.5;stroke-linecap:round;stroke-linejoin:round;stroke-miterlimit:4;stroke-dasharray:none;stroke-opacity:1" />
    <path
       sodipodi:nodetypes="ccccc"
       inkscape:connector-curvature="0"
       id="path3629"
       d="m 75.036785,51.802653 c -1.290534,-0.663211 -1.32865,-6.466822 -1.000231,-6.823721 15.837973,-1.157273 30.600986,-2.749417 46.694226,-5.108945 0.11924,3.675823 -0.0972,9.054274 1.48634,11.62703 -12.07438,0.616687 -33.07678,0.519132 -47.180335,0.305636 z"
       style="fill:#917c6f;fill-opacity:1;stroke:#eeebea;stroke-width:2.5;stroke-linecap:round;stroke-linejoin:round;stroke-miterlimit:4;stroke-dasharray:none;stroke-opacity:1" />
    <path
       sodipodi:nodetypes="sscccss"
       inkscape:connector-curvature="0"
       id="path3631"
       d="m 199.70535,49.983927 c -0.25175,-0.651486 -0.42191,-3.948797 -0.52023,-5.908685 l -0.17678,-3.523721 c 11.47787,-1.474798 18.48216,-1.78723 26.2187,-1.523204 0.19889,3.792683 0.63623,8.212396 0.90755,12.000345 l -12.83015,0.12592 c -10.2327,0.100427 -13.20827,-0.159283 -13.59909,-1.170655 z"
       style="fill:#917c6f;fill-opacity:1;stroke:#eeebea;stroke-width:2.5;stroke-linecap:round;stroke-linejoin:round;stroke-miterlimit:4;stroke-dasharray:none;stroke-opacity:1" />
    <path
       sodipodi:nodetypes="ccccc"
       inkscape:connector-curvature="0"
       id="path3633"
       d="m 426.57485,37.013962 c 9.79897,-0.490545 21.05709,-1.246205 29.41036,-0.981039 l 0,13.705149 -29.41036,0.309359 z"
       style="fill:#917c6f;fill-opacity:1;stroke:#eeebea;stroke-width:2.5;stroke-linecap:round;stroke-linejoin:round;stroke-miterlimit:4;stroke-dasharray:none;stroke-opacity:1" />
    <path
       sodipodi:nodetypes="ccccc"
       inkscape:connector-curvature="0"
       id="path3635"
       d="m 538.92101,36.450315 c 12.17648,-0.516819 22.29842,-2.424678 33.8603,0.297677 0,3.167064 0.0884,9.339332 0.0884,12.506395 -10.55756,0 -22.83869,0.08839 -33.39626,0.08839 0,-3.494627 -0.55242,-9.397836 -0.55242,-12.892462 z"
       style="fill:#483e37;stroke:#eeebea;stroke-width:2.5;stroke-linecap:round;stroke-linejoin:round;stroke-miterlimit:4;stroke-dasharray:none;stroke-opacity:1" />
    <path
       sodipodi:nodetypes="ccscsscsssssscccccssscscscccccccccccccccccccccsscssc"
       style="fill:#4b413b;fill-opacity:1;stroke:#eeebea;stroke-width:2.5;stroke-linecap:round;stroke-linejoin:round;stroke-miterlimit:4;stroke-dasharray:none;stroke-opacity:1"
       d="M 260.10935,393.21685 C 118.87992,392.70357 3.0736592,392.02895 2.7621078,391.7177 2.4505666,391.40645 2.0469133,347.7743 1.8651062,294.7574 L 1.0609013,197.69139 17.58985,211.97507 c 8.759428,7.56957 17.432636,14.71446 19.116039,16.06186 l 2.328045,1.77817 17.782475,-13.13226 c 11.883219,-8.77569 15.466856,-13.71863 17.722254,-14.07696 1.842119,-0.29267 13.66377,-1.8305 20.050935,-2.46646 13.543552,-1.34854 9.884142,-2.95804 18.812442,13.62484 4.08774,7.59231 6.06078,12.35575 7.44951,12.69462 1.16495,0.28426 8.04924,0.4108 15.10014,0.99089 l 12.17042,0.49192 7.46291,-13.54429 7.58504,-13.72745 9.97682,0.2796 9.97684,0.2796 8.45971,12.70851 c 4.53954,6.8195 8.15791,13.66269 9.16107,14.40676 1.31165,0.97288 4.96807,0.33229 14.79481,0.36824 l 13.7271,-0.009 6.65065,-12.83062 c 3.65217,-7.04587 7.33557,-12.88533 7.72496,-13.2507 0.38936,-0.36537 5.88933,-1.514 11.79087,-1.58256 l 11.32717,-0.30767 7.13668,12.32789 7.07562,12.26681 c 10.21168,1.18835 22.09708,2.62271 30.17474,3.36199 4.719,-10.77595 8.29755,-19.01657 13.10657,-30.52333 9.9282,0.50398 21.14547,0.99982 30.23407,1.21655 4.41502,8.78375 7.96647,17.41886 11.97917,26.3897 8.56721,0 16.78903,0.1727 25.35624,0.1727 4.84364,-5.43133 17.64956,-23.89909 23.37003,-25.80435 3.95393,-1.32157 11.83617,-1.65533 17.61747,-2.21635 4.31872,9.02989 8.81906,18.02005 12.96823,27.4206 8.76544,-0.1846 17.57813,-0.0475 26.52407,-0.0475 4.62871,-9.18112 9.20907,-17.89604 13.97168,-26.40844 9.44157,0 21.02016,-0.30529 30.15644,0.67163 5.35466,9.35488 10.4651,18.52658 16.18612,27.88146 7.11533,0 12.52103,-0.0611 19.63635,-0.0611 3.83701,-8.23884 8.8427,-16.62092 12.56228,-23.67718 6.60736,-0.54021 23.04416,-1.69259 27.39945,-0.96609 7.22578,8.7333 12.93123,19.14854 20.68412,27.44172 8.38465,-10.67916 16.79565,-23.23722 23.11006,-31.39259 9.40379,-0.48847 20.63931,0.36635 30.89792,0.79375 l 1.25241,59.01226 c 0.688,32.41816 0.70289,76.26752 0.70289,97.43188 l 0,38.48068 -75.98627,-0.17712 c -41.79245,-0.0974 -191.53763,-0.59709 -332.76705,-1.11038 z"
       id="path3992"
       inkscape:connector-curvature="0" />
    <path
       style="fill:#917c6f;fill-opacity:1;stroke:#eeebea;stroke-width:2.5;stroke-linecap:round;stroke-linejoin:round;stroke-miterlimit:4;stroke-dasharray:none;stroke-opacity:1"
       d="m 602.853,216.2664 c -5.07512,-7.25422 -9.65465,-13.45348 -10.17671,-13.77613 -0.52205,-0.32265 -7.093,-0.27569 -14.60211,0.10435 l -13.65292,0.69101 -6.29136,12.01229 -6.29138,12.01229 -9.53138,-0.007 -9.53138,-0.007 -8.04689,-14.01163 -8.04687,-14.01164 -15.25205,-0.2666 -15.25204,-0.26662 -7.32288,13.23988 -7.32287,13.23988 -12.62141,0 -12.6214,0 -6.52998,-13.7459 -6.52998,-13.74588 -5.82653,0.5566 c -15.43311,1.47432 -13.43339,0.34764 -25.32243,14.26711 l -10.82019,12.66807 -11.90884,0 -11.90886,0 -6.29293,-13.18082 -6.29292,-13.18083 -9.11128,-0.0572 c -5.01119,-0.0315 -11.95656,-0.35459 -15.43413,-0.71807 l -6.32288,-0.66087 -6.71969,15.60019 -6.71971,15.6002 -4.85173,-0.61357 c -2.66845,-0.33745 -9.23851,-1.16263 -14.60014,-1.83372 l -9.74839,-1.22017 -6.8726,-12.33015 -6.87259,-12.33015 -11.97314,0.35336 c -9.66652,0.28528 -12.24751,0.69696 -13.39731,2.13692 -0.78329,0.98096 -4.26008,7.14496 -7.72617,13.69779 l -6.302,11.91422 -13.45468,-0.0333 -13.45467,-0.0333 -8.54122,-13.99897 -8.54121,-13.99897 -11.05107,-0.28868 -11.05106,-0.2887 -7.30123,13.79148 -7.30122,13.79148 -3.92078,0 c -2.15643,0 -8.25084,-0.30736 -13.54314,-0.68301 l -9.62234,-0.68299 -7.04253,-13.07582 c -3.87339,-7.1917 -7.46519,-13.33704 -7.98178,-13.6563 -1.31602,-0.81336 -31.777919,2.48506 -33.199849,3.59488 -0.640614,0.5 -8.044244,6.47315 -16.452515,13.27364 -8.408261,6.8005 -16.040524,12.54995 -16.811327,12.25416 -0.770802,-0.29579 -9.358947,-7.76966 -19.234011,-16.08621 L 1.7456335,197.15498 1.7058563,181.53411 1.4218771,165.91323 l 93.0197199,0 c 51.160843,0 201.160913,-0.30447 333.333513,-0.67661 125.82341,0.0388 198.50895,-0.65926 239.09347,-0.65926 l -0.17271,19.28699 0.24424,15.83303 -15.28691,-0.60536 -16.15039,-0.60538 -10.93754,15.48456 c -6.01565,8.51651 -11.28568,15.48457 -11.71117,15.48457 -0.42549,0 -4.92601,-5.93527 -10.00113,-13.18949 z"
       id="path3994"
       inkscape:connector-curvature="0"
       sodipodi:nodetypes="ccscccccccccccccccsscccccsscccsscccssscccccccccsscsssssscccsccccccsssc" />
    <path
       style="fill:#917c6f;fill-opacity:1;stroke:#eeebea;stroke-width:2.5;stroke-linecap:round;stroke-linejoin:round;stroke-miterlimit:4;stroke-dasharray:none;stroke-opacity:1"
       d="m 626.93844,136.18781 0,-7.4133 c 14.42911,-0.29286 29.05426,-0.43314 42.41269,-0.68949 -0.0365,4.89273 -0.23377,9.78057 -0.41214,14.66947 -15.27322,1.45185 -21.0898,0.97256 -42.00055,0.84631 z"
       id="path4000"
       inkscape:connector-curvature="0"
       sodipodi:nodetypes="cccccc" />
    <path
       sodipodi:nodetypes="ssccccs"
       style="fill:#483e37;fill-opacity:1;stroke:#eeebea;stroke-width:2.5;stroke-linecap:round;stroke-linejoin:round;stroke-miterlimit:4;stroke-dasharray:none;stroke-opacity:1"
       d="m 627.77843,128.42196 c 0,-0.26568 2.82525,-6.29315 4.32587,-9.75329 2.66012,-6.13372 2.4994,-8.2955 7.25454,-8.37401 10.30049,-0.25442 26.6458,-0.30777 30.90388,-0.31445 -0.44423,6.02101 -0.68197,12.05156 -0.93159,18.08266 -13.51315,0.2488 -27.99687,0.32473 -41.5527,0.35912 z"
       id="path4004"
       inkscape:connector-curvature="0" />
    <path
       style="fill:#917c6f;stroke:#ffffff;stroke-width:0.69999999;stroke-linecap:round;stroke-linejoin:round;stroke-miterlimit:4;stroke-dasharray:none;stroke-opacity:1"
       d=""
       id="path4006"
       inkscape:connector-curvature="0" />
    <path
       style="fill:#483e37;fill-opacity:1;stroke:#eeebea;stroke-width:2.5;stroke-linecap:round;stroke-linejoin:round;stroke-miterlimit:4;stroke-dasharray:none;stroke-opacity:1"
       d="m 627.94135,1.9849341 c 1.6673,8.9546619 3.8238,17.8044109 4.77536,26.8553859 -0.98697,2.054114 -3.14387,5.239773 -4.3282,7.184092 0.31033,-11.012915 -0.24745,-23.033866 -0.44716,-34.0394779 z"
       id="path4010"
       inkscape:connector-curvature="0"
       sodipodi:nodetypes="cccc" />
    <path
       sodipodi:nodetypes="ccsssccscc"
       inkscape:connector-curvature="0"
       id="path5066"
       d="m 2.6447902,123.21137 0,-26.457005 12.4437368,-0.648334 c 6.844059,-0.356577 29.004516,-0.959081 49.245455,-1.338897 35.285854,-0.662133 37.060768,-1.301237 37.060768,0.568265 0,2.408196 4.15374,45.395501 4.73767,50.690941 -2.7916,1.16158 -33.657963,1.52692 -39.797351,1.71601 -21.334591,0.65711 -44.402483,0.95118 -51.246542,1.29709 l -12.4437368,0.62894 z"
       style="fill:#917c6f;fill-opacity:1;stroke:#eeebea;stroke-width:2.5;stroke-linecap:round;stroke-linejoin:round;stroke-miterlimit:4;stroke-dasharray:none;stroke-opacity:1" />
    <path
       sodipodi:nodetypes="cccsscc"
       inkscape:connector-curvature="0"
       id="path5068"
       d="M 4.3976366,82.894981 C 5.0345657,82.364076 107.69525,77.495954 108.1869,77.987619 c -1.0066,7.403108 -6.09479,13.376699 -7.48549,15.530757 l -11.483379,0.496846 c -6.553635,0.283557 -28.778491,1.01393 -49.397858,1.285617 L 2.6383755,96.639116 C 2.792399,92.011651 3.1464263,87.334447 4.3976366,82.894981 Z"
       style="fill:#6c5d53;fill-opacity:1;stroke:#eeebea;stroke-width:2.5;stroke-linecap:round;stroke-linejoin:round;stroke-miterlimit:4;stroke-dasharray:none;stroke-opacity:1" />
    <path
       inkscape:connector-curvature="0"
       id="path5070"
       d="m 628.66891,36.88094 1.88136,-4.02969 c 1.112,-2.381788 2.09123,-4.08258 4.22663,-4.07513 5.77608,0.0202 50.11419,2.714855 50.39209,2.992776 -3.46141,5.995341 -4.20088,5.463865 -7.40727,5.499995 -17.18982,-0.548995 -31.75688,-0.450622 -49.09281,-0.387951 z"
       style="fill:#483e37;fill-opacity:1;stroke:#eeebea;stroke-width:2.5;stroke-linecap:round;stroke-linejoin:round;stroke-miterlimit:4;stroke-dasharray:none;stroke-opacity:1"
       sodipodi:nodetypes="cssccc" />
    <path
       sodipodi:nodetypes="cssccc"
       inkscape:connector-curvature="0"
       id="path5072"
       d="m 628.71544,36.999075 26.90643,0.08839 c 27.05257,0.08887 26.92184,-0.597842 25.38299,6.707408 l -1.05097,4.799766 -51.41522,-0.03125 z"
       style="fill:#917c6f;fill-opacity:1;stroke:#eeebea;stroke-width:2.5;stroke-linecap:round;stroke-linejoin:round;stroke-miterlimit:4;stroke-dasharray:none;stroke-opacity:1" />
    <path
       inkscape:connector-curvature="0"
       id="path5884"
       d="m 226.37363,50.898571 c 9.6e-4,-0.10296 -0.70625,-8.162969 -0.50214,-11.303489 -0.11602,-1.655757 -0.44066,0.31176 0.098,-2.147491 2.27171,-9.199893 3.763,-17.684427 6.19918,-26.671712 24.14432,0 42.11287,1.088696 65.03725,2.653875 1.87159,8.907954 2.86625,15.666867 4.80387,25.266657 -0.46399,5.318452 0.27723,8.578514 -0.10575,12.019871 -18.50997,0.719793 -47.90573,0.389696 -75.53039,0.182289 z"
       style="fill:#917c6f;fill-opacity:1;stroke:#eeebea;stroke-width:2.5;stroke-linecap:round;stroke-linejoin:round;stroke-miterlimit:4;stroke-dasharray:none;stroke-opacity:1"
       sodipodi:nodetypes="cccccccc" />
    <path
       sodipodi:nodetypes="ccccc"
       inkscape:connector-curvature="0"
       id="path5886"
       d="m 232.20213,10.83297 1.52526,-6.5475306 c 24.15331,0.7850913 45.53465,0.9031471 67.36738,0.60894 -0.94653,2.4708207 -2.60801,5.8505486 -3.78606,8.4378806 -19.43844,-1.155618 -41.69873,-2.626833 -65.10658,-2.49929 z"
       style="fill:#6c5d53;fill-opacity:1;stroke:#eeebea;stroke-width:2.5;stroke-linecap:round;stroke-linejoin:round;stroke-miterlimit:4;stroke-dasharray:none;stroke-opacity:1" />
    <path
       sodipodi:nodetypes="ccccc"
       inkscape:connector-curvature="0"
       id="path5888"
       d="m 303.33006,38.105016 c 1.02344,-3.449573 2.18323,-6.034829 3.35388,-9.727472 10.94521,-0.03187 22.66382,0.09095 33.60903,0.05908 -0.66837,3.755775 -1.86042,7.625105 -2.35777,10.623834 -11.3511,-0.718318 -25.20487,-1.214484 -34.60514,-0.955442 z"
       style="fill:#483e37;fill-opacity:1;stroke:#eeebea;stroke-width:2.5;stroke-linecap:round;stroke-linejoin:round;stroke-miterlimit:4;stroke-dasharray:none;stroke-opacity:1" />
    <path
       sodipodi:nodetypes="ccccc"
       inkscape:connector-curvature="0"
       id="path5890"
       d="m 302.18368,38.085243 c 12.08549,0.177776 25.02836,0.31505 35.49481,1.129584 0,2.901877 0.39774,8.367016 0.39774,11.268892 -11.73925,0.122834 -25.35258,0.246114 -35.7716,0.24869 -0.12188,-4.148506 -0.37821,-8.632413 -0.12095,-12.647166 z"
       style="fill:#917c6f;fill-opacity:1;stroke:#eeebea;stroke-width:2.5;stroke-linecap:round;stroke-linejoin:round;stroke-miterlimit:4;stroke-dasharray:none;stroke-opacity:1" />
    <path
       inkscape:connector-curvature="0"
       id="path5892"
       d="m 573.8269,38.142741 0.0811,-0.89357 0.44875,0 c 0.39706,0 0.44099,-0.0343 0.38143,-0.29786 -0.0371,-0.16382 -1.13064,-4.837208 -1.93261,-10.661937 -0.80197,-5.824731 -0.99529,-12.995116 -1.03277,-13.158936 -0.15592,-0.927585 1.54767,-0.38356 5.17945,-0.469244 13.58896,-0.21172 51.0785,-0.508522 51.0785,-0.508522 0,0 0.2484,16.495417 0.42314,22.598437 0.21575,9.006134 -0.003,9.757322 0.006,13.939746 -18.3086,0.0185 -40.48235,0.429109 -55.46547,0.486838 0.31293,-3.101748 0.56952,-7.709899 0.83286,-11.034952 z"
       style="fill:#917c6f;fill-opacity:1;stroke:#eeebea;stroke-width:2.5;stroke-linecap:round;stroke-linejoin:round;stroke-miterlimit:4;stroke-dasharray:none;stroke-opacity:1"
       sodipodi:nodetypes="ccscsccccccc" />
    <path
       sodipodi:nodetypes="cccccc"
       inkscape:connector-curvature="0"
       id="path5894"
       d="m 571.87587,12.56024 c 2.77451,-3.1704969 4.87863,-5.7506065 7.87067,-9.0067804 15.42813,-0.4781473 31.63099,-1.2241549 48.11914,-1.5902453 0.0629,0.1225498 -0.0422,10.0766507 -0.10933,10.1436707 -19.3638,0.545492 -29.49417,0.340713 -53.97414,0.685825 -2.13519,0.0322 -2.1425,0.0313 -1.90634,-0.23247 z"
       style="fill:#6c5d53;fill-opacity:1;stroke:#eeebea;stroke-width:2.5;stroke-linecap:round;stroke-linejoin:round;stroke-miterlimit:4;stroke-dasharray:none;stroke-opacity:1" />
    <path
       sodipodi:nodetypes="ccc"
       inkscape:connector-curvature="0"
       id="path5896"
       d="m 626.64352,129.40581 8.49233,-18.10476 -8.1408,-30.152232"
       style="fill:#483e37;fill-opacity:1;fill-rule:evenodd;stroke:#eeebea;stroke-width:2.5;stroke-linecap:round;stroke-linejoin:round;stroke-miterlimit:4;stroke-dasharray:none;stroke-opacity:1" />
    <path
       sodipodi:nodetypes="cssssssscscscc"
       inkscape:connector-curvature="0"
       id="path5882"
       d="m 2.4814317,153.98006 c 0.2621168,-5.12156 0.072505,-4.90297 3.8304261,-5.25139 2.1979586,-0.20379 25.8466782,-1.35429 52.2035822,-1.73977 41.88709,-0.6126 48.03854,-0.0473 48.03854,-1.4559 0,-1.43968 27.74028,-0.4263 260.44046,0.0401 146.84663,0.29433 253.98506,-0.87179 257.84406,-0.89104 0.94216,-0.005 3.12174,-0.20434 3.64139,-0.72387 0.53426,-0.53414 9.82294,-0.0858 20.69441,-0.42842 l 19.76632,-0.62284 -0.70836,10.48967 c -0.46339,6.86214 -1.35643,10.48717 -1.35643,11.42393 0,0 -485.53796,1.63161 -617.943983,1.66138 l -47.4872113,0.0107 c -0.1256658,-4.73148 1.0051857,-8.53242 1.036796,-12.51255 z"
       style="fill:#917c6f;fill-opacity:1;stroke:#eeebea;stroke-width:2.5;stroke-linecap:round;stroke-linejoin:round;stroke-miterlimit:4;stroke-dasharray:none;stroke-opacity:1" />
    <path
       sodipodi:nodetypes="cccccccccc"
       inkscape:connector-curvature="0"
       id="path3523"
       d="m 298.38618,138.43796 c 0.006,-3.39791 -0.10174,-7.76727 0.14835,-8.69397 0.71077,-1.66338 2.25173,-0.84338 6.98128,-0.82336 l 35.09032,-0.0305 0,7.86291 0,7.86291 -21.11512,0 -21.11514,0 0.0103,-6.17799 z"
       style="fill:#917c6f;fill-opacity:1;stroke:#eeebea;stroke-width:2.5;stroke-linecap:round;stroke-linejoin:round;stroke-miterlimit:4;stroke-dasharray:none;stroke-opacity:1" />
    <path
       sodipodi:nodetypes="ssccscs"
       inkscape:connector-curvature="0"
       id="path3569"
       d="m 461.28459,108.98795 c -0.4518,-3.79627 -2.58477,-14.83391 -1.8367,-17.983389 0.50549,-2.128259 2.4003,-10.573586 2.62762,-10.799313 2.78132,9.030881 6.17497,20.482052 9.15165,25.637822 l -3.9857,9.84708 c -1.91931,4.74184 -3.53068,8.6871 -3.76608,8.69412 -0.2354,0.007 -1.17758,-6.88278 -2.19079,-15.39632 z"
       style="fill:#483e37;fill-opacity:1;stroke:#eeebea;stroke-width:2.5;stroke-linecap:round;stroke-linejoin:round;stroke-miterlimit:4;stroke-dasharray:none;stroke-opacity:1" />
    <path
       sodipodi:nodetypes="cscssccccc"
       inkscape:connector-curvature="0"
       id="path3517"
       d="m 341.25064,141.23321 c -1.35888,-9.84489 0.53687,-13.13303 7.05992,-33.16759 l 6.19622,-19.030699 11.459,0.236247 c 6.23955,0.128629 30.17345,0.723843 52.5539,0.986561 22.67241,0.266137 40.56234,1.410916 40.63902,1.509355 0.22675,0.290977 4.31283,33.062526 4.29838,35.311356 l 1.34797,18.15308 c -40.17471,0.74102 -82.72749,0.27917 -123.07482,-0.52396 -0.15985,-1.1581 -0.31969,-2.31631 -0.47959,-3.47435 z"
       style="fill:#917c6f;fill-opacity:1;stroke:#eeebea;stroke-width:2.5;stroke-linecap:round;stroke-linejoin:round;stroke-miterlimit:4;stroke-dasharray:none;stroke-opacity:1" />
    <path
       sodipodi:nodetypes="csssscc"
       inkscape:connector-curvature="0"
       id="path3619"
       d="m 354.01896,88.667454 -0.69548,-6.01894 c -0.86484,-7.484647 -7.71253,-6.337388 55.28825,-5.872543 29.00795,0.214038 52.87472,2.897562 53.04837,3.07 0.17364,0.172428 -0.73929,3.918062 -1.24521,6.644525 -0.86027,4.636274 -1.04565,4.950761 -2.86328,4.857612 -35.49778,-1.524905 -69.13032,-1.06722 -103.53265,-2.680654 z"
       style="fill:#6c5d53;stroke:#eeebea;stroke-width:2.5;stroke-linecap:round;stroke-linejoin:round;stroke-miterlimit:4;stroke-dasharray:none;stroke-opacity:1" />
    <path
       sodipodi:nodetypes="ccccc"
       inkscape:connector-curvature="0"
       id="path3583"
       d="M 18.322053,13.778077 25.624366,8.2094158 C 43.217078,8.1991759 59.712946,7.9287215 77.088615,8.4308716 75.346836,10.51746 72.533156,15.066872 69.964917,14.939937 56.974339,14.394169 28.688481,13.942376 18.322053,13.778077 Z"
       style="fill:#6c5d53;fill-opacity:1;stroke:#eeebea;stroke-width:2.5;stroke-linecap:round;stroke-linejoin:round;stroke-miterlimit:4;stroke-dasharray:none;stroke-opacity:1" />
    <path
       sodipodi:nodetypes="sscccss"
       inkscape:connector-curvature="0"
       id="path3591"
       d="m 198.65197,40.613899 c 0,-0.786736 -0.87242,-9.981938 -1.35327,-15.631121 l -0.8198,-9.631261 c 1.29141,-2.043856 5.4946,-5.952171 5.98326,-7.8004668 0.68056,2.1110963 6.58487,21.5444718 6.58185,22.6639248 -0.002,0.633283 -2.20614,2.79361 -4.27995,4.821979 -2.91802,2.854085 -6.11209,6.683948 -6.11209,5.576945 z"
       style="fill:#483e37;fill-opacity:1;stroke:#eeebea;stroke-width:2.5;stroke-linecap:round;stroke-linejoin:round;stroke-miterlimit:4;stroke-dasharray:none;stroke-opacity:1" />
  </g>
</svg>
